{
.appVersion = "3343";
.formatVersion = 3;
DisplayStrings = (
"/dieresiscomb.sc"
);
axes = (
{
name = Weight;
tag = wght;
}
);
classes = (
{
code = "A AE AEacute Aacute Abreve Acaron Acircumflex Adieresis Agrave Amacron Aogonek Aring Atilde B C Cacute Ccaron Ccedilla Ccircumflex Cdotaccent D Dcaron Dcroat E Eacute Ebreve Ecaron Ecircumflex Edieresis Edotaccent Egrave Emacron Eng Eogonek Eth F G Gbreve Gcircumflex Gcommaaccent Gdotaccent H Hbar Hcircumflex I IJ Iacute Ibreve Icircumflex Idieresis Idotaccent Igrave Imacron Iogonek Itilde J Jcircumflex K Kcommaaccent L Lacute Lcaron Lcommaaccent Ldot Lslash M N Nacute Ncaron Ncommaaccent Ntilde O OE Oacute Obreve Ocircumflex Odieresis Ograve Ohungarumlaut Omacron Oslash Oslashacute Otilde P Q R Racute Rcaron Rcommaaccent S Sacute Scaron Scedilla Scircumflex Scommaaccent T Tbar Tcaron Tcommaaccent Thorn U Uacute Ubreve Ucircumflex Udieresis Ugrave Uhungarumlaut Umacron Uogonek Uring Utilde V W Wacute Wcircumflex Wdieresis Wgrave X Y Yacute Ycircumflex Ydieresis Ygrave Z Zacute Zcaron Zdotaccent acute.case breve.case caron.case caron.alt.case cedilla.case circumflex.case commaaccent.case dieresis.case dotaccent.case Germandbls grave.case hungarumlaut.case macron.case ogonek.case ring.case tilde.case F_B F_F F_F_B F_F_H F_F_I F_F_J F_F_K F_F_L F_F_T F_H F_I F_J F_K F_L F_T T_T
";
name = c2pc_c2sc;
},
{
code = "zero.osf one.osf two.osf three.osf four.osf five.osf six.osf seven.osf eight.osf nine.osf zero.tosf one.tosf two.tosf three.tosf four.tosf five.tosf six.tosf seven.tosf eight.tosf nine.tosf zero one two three four five six seven eight nine zero.fit one.fit two.fit three.fit four.fit five.fit six.fit seven.fit eight.fit nine.fit zero.numr one.numr two.numr three.numr four.numr five.numr six.numr seven.numr eight.numr nine.numr";
name = dnom_frac;
},
{

glyphs = (
{
color = 4;
glyphname = A;
kernLeft = KO_A;
kernRight = KO_A;
lastChange = "2023-12-16 23:22:17 +0000";
layers = (
{
anchors = (
{
name = ogonek;
pos = (469,0);
},
{
name = top;
pos = (294,669);
}
);
layerId = m001;
shapes = (
{
closed = 1;
nodes = (
(42,0,l),
(144,233,l),
(369,233,l),
(433,0,l),
(483,0,l),
(312,612,l),
(268,612,l),
(-6,0,l)
);
},
{
closed = 1;
nodes = (
(283,549,l),
(358,275,l),
(162,275,l)
);
}
);
userData = {
com.hugojourdan.ColorFlow = {
"0" = 0;
"1" = 0;
"10" = 0;
"11" = 0;
"2" = 0;
"3" = 0;
"4" = 0;
"5" = 0;
"6" = 0;
"7" = 0;
"8" = 0;
"9" = 0;
};
};
width = 526;
},
{
anchors = (
{
name = ogonek;
pos = (563,0);
},
{
name = top;
pos = (324,633);
}
);
layerId = "52319A01-0C76-4F01-98F2-7849B20FD9E6";
shapes = (
{
closed = 1;
nodes = (
(151,0,l),
(174,69,l),
(349,69,l),
(360,0,l),
(560,0,l),
(454,612,l),
(188,612,l),
(-42,0,l)
);
},
{
closed = 1;
nodes = (
(292,427,l),
(325,217,l),
(223,217,l)
);
}
);
userData = {
com.hugojourdan.ColorFlow = {
"0" = 0;
"1" = 0;
"10" = 0;
"11" = 0;
"2" = 0;
"3" = 0;
"4" = 0;
"5" = 0;
"6" = 0;
"7" = 0;
"8" = 0;
"9" = 0;
};
};
width = 577;
}
);
unicode = 65;
},
{
color = 4;
glyphname = AE;
kernRight = KO_E;
lastChange = "2023-11-03 12:07:28 +0000";
layers = (
{
anchors = (
{
name = top;
pos = (440,612);
}
);
layerId = m001;
shapes = (
{
closed = 1;
nodes = (
(5,0,l),
(145,228,l),
(337,228,l),
(321,0,l),
(627,0,l),
(636,41,l),
(372,37,l),
(390,304,l),
(603,303,l),
(611,342,l),
(393,342,l),
(409,574,l),
(650,570,l),
(659,612,l),
(340,612,l),
(-45,0,l)
);
},
{
closed = 1;
nodes = (
(359,575,l),
(361,575,l),
(340,269,l),
(171,269,l)
);
}
);
userData = {
com.hugojourdan.ColorFlow = {
"0" = 0;
"1" = 0;
"10" = 0;
"11" = 0;
"2" = 0;
"3" = 0;
"4" = 0;
"5" = 0;
"6" = 0;
"7" = 0;
"8" = 0;
"9" = 0;
};
};
width = 696;
},
{
anchors = (
{
name = top;
pos = (320,612);
}
);
layerId = "52319A01-0C76-4F01-98F2-7849B20FD9E6";
shapes = (
{
closed = 1;
nodes = (
(159,0,l),
(195,86,l),
(342,86,l),
(336,0,l),
(754,0,l),
(786,154,l),
(547,151,l),
(553,240,l),
(736,234,l),
(767,382,l),
(563,382,l),
(569,468,l),
(772,465,l),
(803,612,l),
(260,612,l),
(-26,0,l)
);
},
{
closed = 1;
nodes = (
(352,458,l),
(368,458,l),
(352,233,l),
(257,233,l)
);
}
);
userData = {
com.hugojourdan.ColorFlow = {
"0" = 0;
"1" = 0;
"10" = 0;
"11" = 0;
"2" = 0;
"3" = 0;
"4" = 0;
"5" = 0;
"6" = 0;
"7" = 0;
"8" = 0;
"9" = 0;
};
};
width = 821;
}
);
metricRight = E;
unicode = 198;
},
{
color = 4;
glyphname = B;
kernLeft = KO_B;
kernRight = KO_B;
lastChange = "2023-12-16 23:22:17 +0000";
layers = (
{
layerId = m001;
shapes = (
{
closed = 1;
nodes = (
(188,0,ls),
(330,0,o),
(432,66,o),
(432,185,cs),
(432,285,o),
(349,316,o),
(298,320,c),
(361,349,o),
(408,405,o),
(408,481,cs),
(408,562,o),
(353,612,o),
(250,612,cs),
(108,612,l),
(65,0,l)
);
},
{
closed = 1;
nodes = (
(134,295,l),
(228,295,ls),
(329,295,o),
(383,244,o),
(383,162,cs),
(383,86,o),
(321,35,o),
(221,35,cs),
(117,35,l)
);
},
{
closed = 1;
nodes = (
(154,577,l),
(218,577,ls),
(313,577,o),
(358,530,o),
(358,455,cs),
(358,378,o),
(298,330,o),
(219,330,cs),
(137,330,l)
);
}
);
userData = {
com.hugojourdan.ColorFlow = {
"0" = 0;
"1" = 0;
"10" = 0;
"11" = 0;
"2" = 0;
"3" = 0;
"4" = 0;
"5" = 0;
"6" = 0;
"7" = 0;
"8" = 0;
"9" = 0;
};
};
width = 476;
},
{
layerId = "52319A01-0C76-4F01-98F2-7849B20FD9E6";
shapes = (
{
closed = 1;
nodes = (
(257,0,ls),
(393,0,o),
(541,59,o),
(541,200,cs),
(541,263,o),
(512,308,o),
(453,331,c),
(498,366,o),
(525,412,o),
(525,462,cs),
(525,566,o),
(455,612,o),
(305,612,cs),
(76,612,l),
(33,0,l)
);
},
{
closed = 1;
nodes = (
(242,255,l),
(254,255,ls),
(314,255,o),
(340,218,o),
(340,184,cs),
(340,144,o),
(300,126,o),
(264,126,cs),
(232,126,l)
);
},
{
closed = 1;
nodes = (
(260,489,l),
(276,489,ls),
(313,489,o),
(343,461,o),
(343,423,cs),
(343,389,o),
(320,372,o),
(270,372,cs),
(251,372,l)
);
}
);
userData = {
com.hugojourdan.ColorFlow = {
"0" = 0;
"1" = 0;
"10" = 0;
"11" = 0;
"2" = 0;
"3" = 0;
"4" = 0;
"5" = 0;
"6" = 0;
"7" = 0;
"8" = 0;
"9" = 0;
};
};
width = 564;
}
);
unicode = 66;
},
{
color = 4;
glyphname = C;
kernLeft = KO_O;
kernRight = KO_C;
lastChange = "2023-12-16 23:22:53 +0000";
layers = (
{
anchors = (
{
name = bottom;
pos = (251,0);
},
{
name = top;
pos = (270,669);
}
);
annotations = (
{
pos = (483,564);
text = "70 grados";
type = Text;
},
{
pos = (450,66);
text = "106 grados";
type = Text;
}
);
layerId = m001;
shapes = (
{
closed = 1;
nodes = (
(330,-10,o),
(400,17,o),
(447,34,c),
(438,68,l),
(402,55,o),
(350,32,o),
(274,32,cs),
(190,32,o),
(98,100,o),
(98,259,cs),
(98,512,o),
(202,582,o),
(293,582,cs),
(367,582,o),
(439,556,o),
(461,547,c),
(477,590,l),
(442,604,o),
(375,621,o),
(321,621,cs),
(131,621,o),
(48,436,o),
(48,244,cs),
(48,64,o),
(156,-10,o),
(262,-10,cs)
);
}
);
userData = {
com.hugojourdan.ColorFlow = {
"0" = 0;
"1" = 0;
"10" = 0;
"11" = 0;
"2" = 0;
"3" = 0;
"4" = 0;
"5" = 0;
"6" = 0;
"7" = 0;
"8" = 0;
"9" = 0;
};
};
width = 504;
},
{
anchors = (
{
name = bottom;
pos = (254,0);
},
{
name = top;
pos = (368,633);
}
);
annotations = (
{
pos = (490,497);
text = "70 grados";
type = Text;
},
{
pos = (467,91);
text = "106 grados";
type = Text;
}
);
layerId = "52319A01-0C76-4F01-98F2-7849B20FD9E6";
shapes = (
{
closed = 1;
nodes = (
(377,-17,o),
(425,-1,o),
(473,19,c),
(435,150,l),
(406,142,o),
(365,137,o),
(343,137,cs),
(284,137,o),
(214,184,o),
(214,289,cs),
(214,388,o),
(241,473,o),
(336,473,cs),
(367,473,o),
(391,473,o),
(452,455,c),
(507,609,l),
(465,623,o),
(418,632,o),
(364,632,cs),
(123,632,o),
(8,458,o),
(8,280,cs),
(8,100,o),
(112,-17,o),
(284,-17,cs)
);
}
);
userData = {
com.hugojourdan.ColorFlow = {
"0" = 0;
"1" = 0;
"10" = 0;
"11" = 0;
"2" = 0;
"3" = 0;
"4" = 0;
"5" = 0;
"6" = 0;
"7" = 0;
"8" = 0;
"9" = 0;
};
};
width = 489;
},
{
anchors = (
{
name = bottom;
pos = (253,0);
},
{
name = top;
pos = (367,633);
}
);
annotations = (
{
pos = (490,497);
text = "70 grados";
type = Text;
},
{
pos = (467,91);
text = "106 grados";
type = Text;
}
);
associatedMasterId = "52319A01-0C76-4F01-98F2-7849B20FD9E6";
layerId = "6270FBD7-558F-415C-9766-25F2952992CC";
name = "16 de oct. de 23, 20:34";
shapes = (
{
closed = 1;
nodes = (
(376,-17,o),
(420,-4,o),
(464,16,c),
(442,152,l),
(406,139,o),
(364,137,o),
(342,137,cs),
(283,137,o),
(213,184,o),
(213,289,cs),
(213,388,o),
(240,473,o),
(335,473,cs),
(366,473,o),
(388,474,o),
(458,452,c),
(499,609,l),
(464,623,o),
(417,632,o),
(363,632,cs),
(122,632,o),
(7,458,o),
(7,280,cs),
(7,100,o),
(111,-17,o),
(283,-17,cs)
);
}
);
visible = 1;
width = 488;
},
{
anchors = (
{
name = bottom;
pos = (246,0);
},
{
name = top;
pos = (265,669);
}
);
annotations = (
{
pos = (483,564);
text = "70 grados";
type = Text;
},
{
pos = (450,66);
text = "106 grados";
type = Text;
}
);
associatedMasterId = m001;
layerId = "7A2CC210-0051-4F1C-959B-61EBC03E7890";
name = "16 de oct. de 23, 20:34";
shapes = (
{
closed = 1;
nodes = (
(325,-10,o),
(398,18,o),
(445,35,c),
(431,68,l),
(395,55,o),
(345,32,o),
(269,32,cs),
(185,32,o),
(93,100,o),
(93,259,cs),
(93,512,o),
(197,582,o),
(288,582,cs),
(362,582,o),
(435,554,o),
(454,546,c),
(473,590,l),
(438,604,o),
(370,621,o),
(316,621,cs),
(126,621,o),
(43,436,o),
(43,244,cs),
(43,64,o),
(151,-10,o),
(257,-10,cs)
);
}
);
visible = 1;
width = 499;
}
);
metricLeft = O;
unicode = 67;
userData = {
KernOnName = C;
};
},
{
color = 4;
glyphname = D;
kernLeft = KO_H;
kernRight = KO_D;
lastChange = "2023-12-16 23:22:17 +0000";
layers = (
{
anchors = (
{
name = center;
pos = (258,306);
},
{
name = top;
pos = (269,669);
}
);
layerId = m001;
shapes = (
{
closed = 1;
nodes = (
(212,0,ls),
(370,0,o),
(524,119,o),
(523,366,cs),
(524,504,o),
(430,612,o),
(270,612,cs),
(113,612,l),
(70,0,l)
);
},
{
closed = 1;
nodes = (
(157,571,l),
(248,571,ls),
(398,571,o),
(477,482,o),
(477,341,cs),
(477,148,o),
(372,41,o),
(228,41,cs),
(121,41,l)
);
}
);
userData = {
com.hugojourdan.ColorFlow = {
"0" = 0;
"1" = 0;
"10" = 0;
"11" = 0;
"2" = 0;
"3" = 0;
"4" = 0;
"5" = 0;
"6" = 0;
"7" = 0;
"8" = 0;
"9" = 0;
};
};
width = 560;
},
{
anchors = (
{
name = center;
pos = (373,306);
},
{
name = top;
pos = (418,633);
}
);
layerId = "52319A01-0C76-4F01-98F2-7849B20FD9E6";
shapes = (
{
closed = 1;
nodes = (
(254,0,ls),
(474,0,o),
(607,151,o),
(610,334,cs),
(607,523,o),
(491,612,o),
(327,612,cs),
(76,612,l),
(33,0,l)
);
},
{
closed = 1;
nodes = (
(269,462,l),
(286,462,ls),
(338,462,o),
(399,427,o),
(399,309,cs),
(399,188,o),
(327,150,o),
(253,150,cs),
(244,150,l)
);
}
);
userData = {
com.hugojourdan.ColorFlow = {
"0" = 0;
"1" = 0;
"10" = 0;
"11" = 0;
"2" = 0;
"3" = 0;
"4" = 0;
"5" = 0;
"6" = 0;
"7" = 0;
"8" = 0;
"9" = 0;
};
};
width = 618;
}
);
metricLeft = H;
metricRight = O;
unicode = 68;
},
{
color = 4;
glyphname = Dcroat;
kernRight = KO_D;
lastChange = "2023-11-03 12:31:12 +0000";
layers = (
{
layerId = m001;
shapes = (
{
closed = 1;
nodes = (
(319,295,l),
(334,322,l),
(334,334,l),
(53,334,l),
(38,306,l),
(38,295,l)
);
},
{
pos = (19,0);
ref = D;
}
);
userData = {
com.hugojourdan.ColorFlow = {
"0" = 0;
"1" = 0;
"10" = 0;
"11" = 0;
"2" = 0;
"3" = 0;
"4" = 0;
"5" = 0;
"6" = 0;
"7" = 0;
"8" = 0;
"9" = 0;
};
};
width = 579;
},
{
layerId = "52319A01-0C76-4F01-98F2-7849B20FD9E6";
shapes = (
{
closed = 1;
nodes = (
(319,240,l),
(345,352,l),
(345,377,l),
(6,377,l),
(-20,266,l),
(-20,240,l)
);
},
{
pos = (-17,0);
ref = D;
}
);
userData = {
com.hugojourdan.ColorFlow = {
"0" = 0;
"1" = 0;
"10" = 0;
"11" = 0;
"2" = 0;
"3" = 0;
"4" = 0;
"5" = 0;
"6" = 0;
"7" = 0;
"8" = 0;
"9" = 0;
};
};
width = 601;
}
);
metricRight = D;
unicode = 272;
},
{
color = 4;
glyphname = Eth;
kernRight = KO_D;
lastChange = "2023-11-03 12:32:57 +0000";
layers = (
{
layerId = m001;
shapes = (
{
closed = 1;
nodes = (
(319,295,l),
(334,322,l),
(334,334,l),
(53,334,l),
(38,306,l),
(38,295,l)
);
},
{
pos = (17,0);
ref = D;
}
);
userData = {
com.hugojourdan.ColorFlow = {
"0" = 0;
"1" = 0;
"10" = 0;
"11" = 0;
"2" = 0;
"3" = 0;
"4" = 0;
"5" = 0;
"6" = 0;
"7" = 0;
"8" = 0;
"9" = 0;
};
};
width = 577;
},
{
layerId = "52319A01-0C76-4F01-98F2-7849B20FD9E6";
shapes = (
{
closed = 1;
nodes = (
(319,240,l),
(345,352,l),
(345,377,l),
(6,377,l),
(-20,266,l),
(-20,240,l)
);
},
{
pos = (-15,0);
ref = D;
}
);
userData = {
com.hugojourdan.ColorFlow = {
"0" = 0;
"1" = 0;
"10" = 0;
"11" = 0;
"2" = 0;
"3" = 0;
"4" = 0;
"5" = 0;
"6" = 0;
"7" = 0;
"8" = 0;
"9" = 0;
};
};
width = 603;
}
);
metricRight = D;
unicode = 208;
},
{
color = 4;
glyphname = E;
kernLeft = KO_H;
kernRight = KO_E;
lastChange = "2023-12-16 23:22:53 +0000";
layers = (
{
anchors = (
{
name = bottom;
pos = (235,0);
},
{
name = ogonek;
pos = (377,0);
},
{
name = top;
pos = (255,669);
}
);
layerId = m001;
shapes = (
{
closed = 1;
nodes = (
(377,0,l),
(386,41,l),
(121,38,l),
(139,304,l),
(354,303,l),
(362,342,l),
(142,342,l),
(158,573,l),
(400,570,l),
(409,612,l),
(113,612,l),
(70,0,l)
);
}
);
userData = {
com.hugojourdan.ColorFlow = {
"0" = 0;
"1" = 0;
"10" = 0;
"11" = 0;
"2" = 0;
"3" = 0;
"4" = 0;
"5" = 0;
"6" = 0;
"7" = 0;
"8" = 0;
"9" = 0;
};
};
width = 446;
},
{
anchors = (
{
name = bottom;
pos = (234,0);
},
{
name = ogonek;
pos = (449,0);
},
{
name = top;
pos = (305,633);
}
);
layerId = "52319A01-0C76-4F01-98F2-7849B20FD9E6";
shapes = (
{
closed = 1;
nodes = (
(449,0,l),
(483,154,l),
(244,151,l),
(250,240,l),
(431,234,l),
(463,382,l),
(260,382,l),
(266,468,l),
(468,465,l),
(500,612,l),
(76,612,l),
(33,0,l)
);
}
);
userData = {
com.hugojourdan.ColorFlow = {
"0" = 0;
"1" = 0;
"10" = 0;
"11" = 0;
"2" = 0;
"3" = 0;
"4" = 0;
"5" = 0;
"6" = 0;
"7" = 0;
"8" = 0;
"9" = 0;
};
};
width = 518;
},
{
anchors = (
{
name = bottom;
pos = (230,0);
},
{
name = ogonek;
pos = (372,0);
},
{
name = top;
pos = (250,669);
}
);
associatedMasterId = m001;
layerId = "1311CA7F-2B1F-4D44-AFDC-1FCB5FFEA2A6";
name = "5 de oct. de 23, 9:35";
shapes = (
{
closed = 1;
nodes = (
(372,0,l),
(381,41,l),
(116,38,l),
(134,304,l),
(349,303,l),
(356,342,l),
(137,342,l),
(153,573,l),
(395,570,l),
(404,612,l),
(108,612,l),
(65,0,l)
);
}
);
visible = 1;
width = 441;
},
{
anchors = (
{
name = bottom;
pos = (234,0);
},
{
name = ogonek;
pos = (449,0);
},
{
name = top;
pos = (305,633);
}
);
associatedMasterId = "52319A01-0C76-4F01-98F2-7849B20FD9E6";
layerId = "63CB513C-9757-4D0D-990D-E8810273558C";
name = "5 de oct. de 23, 9:36";
shapes = (
{
closed = 1;
nodes = (
(449,0,l),
(483,154,l),
(244,151,l),
(250,240,l),
(429,234,l),
(465,382,l),
(260,382,l),
(266,468,l),
(468,465,l),
(502,612,l),
(76,612,l),
(33,0,l)
);
}
);
visible = 1;
width = 518;
}
);
metricLeft = H;
unicode = 69;
userData = {
KernOnName = E;
};
},
{
color = 4;
glyphname = F;
kernLeft = KO_B;
kernRight = KO_F;
lastChange = "2023-10-23 17:02:16 +0000";
layers = (
{
layerId = m001;
shapes = (
{
closed = 1;
nodes = (
(113,0,l),
(134,296,l),
(347,295,l),
(354,333,l),
(136,333,l),
(153,573,l),
(395,570,l),
(404,612,l),
(108,612,l),
(65,0,l)
);
}
);
userData = {
com.hugojourdan.ColorFlow = {
"0" = 0;
"1" = 0;
"10" = 0;
"11" = 0;
"2" = 0;
"3" = 0;
"4" = 0;
"5" = 0;
"6" = 0;
"7" = 0;
"8" = 0;
"9" = 0;
};
};
width = 430;
},
{
layerId = "52319A01-0C76-4F01-98F2-7849B20FD9E6";
shapes = (
{
closed = 1;
nodes = (
(233,0,l),
(249,221,l),
(427,215,l),
(459,363,l),
(259,363,l),
(266,468,l),
(469,465,l),
(501,612,l),
(76,612,l),
(33,0,l)
);
}
);
userData = {
com.hugojourdan.ColorFlow = {
"0" = 0;
"1" = 0;
"10" = 0;
"11" = 0;
"2" = 0;
"3" = 0;
"4" = 0;
"5" = 0;
"6" = 0;
"7" = 0;
"8" = 0;
"9" = 0;
};
};
width = 496;
}
);
unicode = 70;
},
{
color = 4;
glyphname = G;
kernLeft = KO_O;
lastChange = "2023-12-16 23:22:17 +0000";
layers = (
{
anchors = (
{
name = bottom;
pos = (294,0);
},
{
name = top;
pos = (325,669);
}
);
layerId = m001;
shapes = (
{
closed = 1;
nodes = (
(344,-9,o),
(405,10,o),
(469,43,c),
(490,304,l),
(442,304,l),
(424,58,l),
(383,43,o),
(318,34,o),
(287,34,cs),
(200,34,o),
(99,93,o),
(99,275,cs),
(99,456,o),
(172,582,o),
(302,582,cs),
(378,582,o),
(445,555,o),
(481,540,c),
(500,590,l),
(473,599,o),
(410,620,o),
(340,620,cs),
(150,620,o),
(48,467,o),
(48,245,cs),
(48,66,o),
(169,-9,o),
(264,-9,cs)
);
}
);
userData = {
com.hugojourdan.ColorFlow = {
"0" = 0;
"1" = 0;
"10" = 0;
"11" = 0;
"2" = 0;
"3" = 0;
"4" = 0;
"5" = 0;
"6" = 0;
"7" = 0;
"8" = 0;
"9" = 0;
};
};
width = 548;
},
{
anchors = (
{
name = bottom;
pos = (264,0);
},
{
name = top;
pos = (346,633);
}
);
layerId = "52319A01-0C76-4F01-98F2-7849B20FD9E6";
shapes = (
{
closed = 1;
nodes = (
(370,-20,o),
(467,-1,o),
(516,21,c),
(533,304,l),
(361,304,l),
(350,132,l),
(346,132,o),
(342,132,o),
(338,132,cs),
(269,132,o),
(212,177,o),
(212,275,cs),
(212,424,o),
(256,473,o),
(338,473,cs),
(406,473,o),
(486,450,o),
(513,438,c),
(568,592,l),
(518,624,o),
(425,635,o),
(355,635,cs),
(114,635,o),
(8,424,o),
(8,281,cs),
(8,85,o),
(107,-20,o),
(303,-20,cs)
);
}
);
userData = {
com.hugojourdan.ColorFlow = {
"0" = 0;
"1" = 0;
"10" = 0;
"11" = 0;
"2" = 0;
"3" = 0;
"4" = 0;
"5" = 0;
"6" = 0;
"7" = 0;
"8" = 0;
"9" = 0;
};
};
width = 576;
}
);
metricLeft = O;
unicode = 71;
},
{
color = 4;
glyphname = H;
kernLeft = KO_H;
kernRight = KO_H;
lastChange = "2023-12-16 23:22:53 +0000";
layers = (
{
anchors = (
{
name = center;
pos = (286,306);
},
{
name = top;
pos = (302,669);
}
);
layerId = m001;
shapes = (
{
closed = 1;
nodes = (
(118,0,l),
(139,305,l),
(441,305,l),
(420,0,l),
(468,0,l),
(511,612,l),
(463,612,l),
(444,340,l),
(142,340,l),
(161,612,l),
(113,612,l),
(70,0,l)
);
}
);
userData = {
com.hugojourdan.ColorFlow = {
"0" = 0;
"1" = 0;
"10" = 0;
"11" = 0;
"2" = 0;
"3" = 0;
"4" = 0;
"5" = 0;
"6" = 0;
"7" = 0;
"8" = 0;
"9" = 0;
};
};
width = 570;
},
{
anchors = (
{
name = center;
pos = (326,306);
},
{
name = top;
pos = (360,633);
}
);
layerId = "52319A01-0C76-4F01-98F2-7849B20FD9E6";
shapes = (
{
closed = 1;
nodes = (
(233,0,l),
(249,225,l),
(391,225,l),
(375,0,l),
(576,0,l),
(619,612,l),
(418,612,l),
(402,391,l),
(260,391,l),
(276,612,l),
(76,612,l),
(33,0,l)
);
}
);
userData = {
com.hugojourdan.ColorFlow = {
"0" = 0;
"1" = 0;
"10" = 0;
"11" = 0;
"2" = 0;
"3" = 0;
"4" = 0;
"5" = 0;
"6" = 0;
"7" = 0;
"8" = 0;
"9" = 0;
};
};
width = 651;
}
);
unicode = 72;
userData = {
KernOnName = H;
};
},
{
color = 4;
glyphname = Hbar;
lastChange = "2023-10-23 16:22:14 +0000";
layers = (
{
layerId = m001;
shapes = (
{
closed = 1;
nodes = (
(562,449,l),
(576,474,l),
(575,485,l),
(66,485,l),
(52,460,l),
(53,449,l)
);
},
{
pos = (16,0);
ref = H;
}
);
userData = {
com.hugojourdan.ColorFlow = {
"0" = 0;
"1" = 0;
"10" = 0;
"11" = 0;
"2" = 0;
"3" = 0;
"4" = 0;
"5" = 0;
"6" = 0;
"7" = 0;
"8" = 0;
"9" = 0;
};
};
width = 597;
},
{
layerId = "52319A01-0C76-4F01-98F2-7849B20FD9E6";
shapes = (
{
closed = 1;
nodes = (
(635,442,l),
(664,536,l),
(667,562,l),
(19,562,l),
(-10,467,l),
(-13,442,l)
);
},
{
pos = (-10,0);
ref = H;
}
);
userData = {
com.hugojourdan.ColorFlow = {
"0" = 0;
"1" = 0;
"10" = 0;
"11" = 0;
"2" = 0;
"3" = 0;
"4" = 0;
"5" = 0;
"6" = 0;
"7" = 0;
"8" = 0;
"9" = 0;
};
};
width = 629;
}
);
unicode = 294;
},
{
color = 4;
glyphname = I;
kernLeft = KO_H;
kernRight = KO_H;
lastChange = "2023-11-03 12:34:21 +0000";
layers = (
{
anchors = (
{
name = ogonek;
pos = (120,0);
},
{
name = top;
pos = (138,669);
}
);
layerId = m001;
shapes = (
{
closed = 1;
nodes = (
(118,0,l),
(161,612,l),
(113,612,l),
(70,0,l)
);
}
);
userData = {
com.hugojourdan.ColorFlow = {
"0" = 0;
"1" = 0;
"10" = 0;
"11" = 0;
"2" = 0;
"3" = 0;
"4" = 0;
"5" = 0;
"6" = 0;
"7" = 0;
"8" = 0;
"9" = 0;
};
};
width = 220;
},
{
anchors = (
{
name = ogonek;
pos = (232,0);
},
{
name = top;
pos = (184,633);
}
);
layerId = "52319A01-0C76-4F01-98F2-7849B20FD9E6";
shapes = (
{
closed = 1;
nodes = (
(233,0,l),
(276,612,l),
(76,612,l),
(33,0,l)
);
}
);
userData = {
com.hugojourdan.ColorFlow = {
"0" = 0;
"1" = 0;
"10" = 0;
"11" = 0;
"2" = 0;
"3" = 0;
"4" = 0;
"5" = 0;
"6" = 0;
"7" = 0;
"8" = 0;
"9" = 0;
};
};
width = 308;
}
);
metricLeft = H;
metricRight = H;
unicode = 73;
},
{
color = 4;
glyphname = Idieresis;
lastChange = "2023-10-23 16:22:14 +0000";
layers = (
{
layerId = m001;
shapes = (
{
closed = 1;
nodes = (
(88,724,o),
(113,747,o),
(114,762,cs),
(116,776,o),
(85,791,o),
(76,791,cs),
(65,791,o),
(41,769,o),
(40,753,cs),
(38,741,o),
(67,724,o),
(78,724,cs)
);
},
{
ref = I;
},
{
closed = 1;
nodes = (
(225,724,o),
(249,747,o),
(250,762,cs),
(252,776,o),
(222,791,o),
(212,791,cs),
(202,791,o),
(177,769,o),
(176,753,cs),
(174,741,o),
(204,724,o),
(214,724,cs)
);
}
);
userData = {
com.hugojourdan.ColorFlow = {
"0" = 0;
"1" = 0;
"10" = 0;
"11" = 0;
"2" = 0;
"3" = 0;
"4" = 0;
"5" = 0;
"6" = 0;
"7" = 0;
"8" = 0;
"9" = 0;
};
};
width = 225;
},
{
layerId = "52319A01-0C76-4F01-98F2-7849B20FD9E6";
shapes = (
{
closed = 1;
nodes = (
(95,632,o),
(164,696,o),
(165,730,cs),
(167,769,o),
(104,821,o),
(69,821,cs),
(33,821,o),
(-32,754,o),
(-33,721,cs),
(-35,683,o),
(27,632,o),
(63,632,cs)
);
},
{
ref = I;
},
{
closed = 1;
nodes = (
(319,632,o),
(388,696,o),
(389,730,cs),
(391,769,o),
(327,821,o),
(292,821,cs),
(257,821,o),
(192,754,o),
(191,721,cs),
(189,683,o),
(251,632,o),
(287,632,cs)
);
}
);
userData = {
com.hugojourdan.ColorFlow = {
"0" = 0;
"1" = 0;
"10" = 0;
"11" = 0;
"2" = 0;
"3" = 0;
"4" = 0;
"5" = 0;
"6" = 0;
"7" = 0;
"8" = 0;
"9" = 0;
};
};
width = 305;
}
);
unicode = 207;
},
{
color = 4;
glyphname = Itilde;
lastChange = "2023-10-23 16:22:14 +0000";
layers = (
{
layerId = m001;
shapes = (
{
closed = 1;
nodes = (
(29,689,o),
(61,716,o),
(87,716,cs),
(113,716,o),
(155,683,o),
(191,683,cs),
(233,683,o),
(252,711,o),
(278,734,c),
(258,758,l),
(242,744,o),
(223,731,o),
(197,731,cs),
(168,731,o),
(141,759,o),
(99,759,cs),
(57,759,o),
(32,734,o),
(4,705,c),
(22,685,l)
);
},
{
ref = I;
}
);
userData = {
com.hugojourdan.ColorFlow = {
"0" = 0;
"1" = 0;
"10" = 0;
"11" = 0;
"2" = 0;
"3" = 0;
"4" = 0;
"5" = 0;
"6" = 0;
"7" = 0;
"8" = 0;
"9" = 0;
};
};
width = 225;
},
{
layerId = "52319A01-0C76-4F01-98F2-7849B20FD9E6";
shapes = (
{
closed = 1;
nodes = (
(51,638,o),
(87,676,o),
(113,676,cs),
(139,676,o),
(213,643,o),
(249,643,cs),
(291,643,o),
(380,722,o),
(395,766,c),
(335,831,l),
(311,806,o),
(285,778,o),
(259,778,cs),
(230,778,o),
(167,814,o),
(125,814,cs),
(83,814,o),
(-11,704,o),
(-3,709,c),
(48,630,l)
);
},
{
ref = I;
}
);
userData = {
com.hugojourdan.ColorFlow = {
"0" = 0;
"1" = 0;
"10" = 0;
"11" = 0;
"2" = 0;
"3" = 0;
"4" = 0;
"5" = 0;
"6" = 0;
"7" = 0;
"8" = 0;
"9" = 0;
};
};
width = 305;
}
);
unicode = 296;
},
{
color = 4;
glyphname = J;
kernLeft = KO_J;
kernRight = KO_J;
lastChange = "2023-12-16 23:22:17 +0000";
layers = (
{
anchors = (
{
name = top;
pos = (230,669);
}
);
layerId = m001;
shapes = (
{
closed = 1;
nodes = (
(150,-9,o),
(218,57,o),
(226,176,cs),
(256,612,l),
(209,612,l),
(175,128,ls),
(171,70,o),
(131,26,o),
(94,26,cs),
(67,26,o),
(30,35,o),
(4,44,c),
(-7,0,l),
(11,-6,o),
(31,-9,o),
(53,-9,cs)
);
}
);
userData = {
com.hugojourdan.ColorFlow = {
"0" = 0;
"1" = 0;
"10" = 0;
"11" = 0;
"2" = 0;
"3" = 0;
"4" = 0;
"5" = 0;
"6" = 0;
"7" = 0;
"8" = 0;
"9" = 0;
};
};
width = 322;
},
{
anchors = (
{
name = top;
pos = (245,633);
}
);
layerId = "52319A01-0C76-4F01-98F2-7849B20FD9E6";
shapes = (
{
closed = 1;
nodes = (
(201,-20,o),
(306,57,o),
(314,176,cs),
(344,612,l),
(143,612,l),
(117,216,ls),
(113,154,o),
(91,146,o),
(62,146,cs),
(35,146,o),
(12,155,o),
(2,162,c),
(-37,4,l),
(-19,-6,o),
(35,-20,o),
(85,-20,cs)
);
}
);
userData = {
com.hugojourdan.ColorFlow = {
"0" = 0;
"1" = 0;
"10" = 0;
"11" = 0;
"2" = 0;
"3" = 0;
"4" = 0;
"5" = 0;
"6" = 0;
"7" = 0;
"8" = 0;
"9" = 0;
};
};
width = 377;
}
);
unicode = 74;
},
{
color = 4;
glyphname = K;
kernLeft = KO_H;
kernRight = KO_K;
lastChange = "2023-12-16 23:22:17 +0000";
layers = (
{
anchors = (
{
name = bottom;
pos = (240,0);
},
{
name = top;
pos = (321,612);
}
);
layerId = m001;
shapes = (
{
closed = 1;
nodes = (
(460,0,l),
(201,332,l),
(504,612,l),
(447,612,l),
(147,329,l),
(398,0,l)
);
},
{
closed = 1;
nodes = (
(117,0,l),
(160,612,l),
(113,612,l),
(70,0,l)
);
}
);
userData = {
com.hugojourdan.ColorFlow = {
"0" = 0;
"1" = 0;
"10" = 0;
"11" = 0;
"2" = 0;
"3" = 0;
"4" = 0;
"5" = 0;
"6" = 0;
"7" = 0;
"8" = 0;
"9" = 0;
};
};
width = 506;
},
{
anchors = (
{
name = bottom;
pos = (363,0);
},
{
name = top;
pos = (232,612);
}
);
layerId = "52319A01-0C76-4F01-98F2-7849B20FD9E6";
shapes = (
{
closed = 1;
nodes = (
(626,0,l),
(452,328,l),
(656,612,l),
(435,612,l),
(251,330,l),
(397,0,l)
);
},
{
closed = 1;
nodes = (
(232,0,l),
(275,612,l),
(76,612,l),
(33,0,l)
);
}
);
userData = {
com.hugojourdan.ColorFlow = {
"0" = 0;
"1" = 0;
"10" = 0;
"11" = 0;
"2" = 0;
"3" = 0;
"4" = 0;
"5" = 0;
"6" = 0;
"7" = 0;
"8" = 0;
"9" = 0;
};
com.typemytype.robofont.guideline.magnetic.lBeeTQI9Ov = 5;
};
width = 632;
},
{
anchors = (
{
name = bottom;
pos = (363,0);
},
{
name = top;
pos = (232,612);
}
);
associatedMasterId = "52319A01-0C76-4F01-98F2-7849B20FD9E6";
layerId = "B52D39F3-4F89-435B-A629-969B7FC7ACDC";
name = "23 de ago. de 23, 19:47";
shapes = (
{
closed = 1;
nodes = (
(232,0,l),
(255,321,l),
(397,0,l),
(626,0,l),
(452,328,l),
(656,612,l),
(435,612,l),
(256,336,l),
(275,612,l),
(76,612,l),
(33,0,l)
);
},
{
closed = 1;
nodes = (
(232,0,l),
(255,321,l),
(397,0,l),
(626,0,l),
(452,328,l),
(656,612,l),
(435,612,l),
(256,336,l),
(275,612,l),
(76,612,l),
(33,0,l)
);
}
);
userData = {
com.typemytype.robofont.guideline.magnetic.lBeeTQI9Ov = 5;
};
visible = 1;
width = 632;
}
);
metricLeft = H;
unicode = 75;
},
{
color = 4;
glyphname = L;
kernLeft = KO_H;
kernRight = KO_L;
lastChange = "2023-12-16 23:22:53 +0000";
layers = (
{
anchors = (
{
name = bottom;
pos = (227,0);
},
{
name = top;
pos = (313,669);
}
);
layerId = m001;
shapes = (
{
closed = 1;
nodes = (
(376,0,l),
(385,41,l),
(121,38,l),
(161,612,l),
(113,612,l),
(70,0,l)
);
}
);
userData = {
com.hugojourdan.ColorFlow = {
"0" = 0;
"1" = 0;
"10" = 0;
"11" = 0;
"2" = 0;
"3" = 0;
"4" = 0;
"5" = 0;
"6" = 0;
"7" = 0;
"8" = 0;
"9" = 0;
};
};
width = 438;
},
{
anchors = (
{
name = bottom;
pos = (241,0);
},
{
name = top;
pos = (27,633);
}
);
layerId = "52319A01-0C76-4F01-98F2-7849B20FD9E6";
shapes = (
{
closed = 1;
nodes = (
(449,0,l),
(485,161,l),
(244,158,l),
(276,612,l),
(76,612,l),
(33,0,l)
);
}
);
userData = {
com.hugojourdan.ColorFlow = {
"0" = 0;
"1" = 0;
"10" = 0;
"11" = 0;
"2" = 0;
"3" = 0;
"4" = 0;
"5" = 0;
"6" = 0;
"7" = 0;
"8" = 0;
"9" = 0;
};
};
width = 484;
}
);
metricLeft = H;
unicode = 76;
userData = {
KernOnName = L;
};
},
{
color = 4;
glyphname = Lslash;
lastChange = "2023-11-03 12:34:51 +0000";
layers = (
{
layerId = m001;
shapes = (
{
closed = 1;
nodes = (
(300,356,l),
(304,403,l),
(27,290,l),
(23,242,l)
);
},
{
pos = (6,0);
ref = L;
}
);
userData = {
com.hugojourdan.ColorFlow = {
"0" = 0;
"1" = 0;
"10" = 0;
"11" = 0;
"2" = 0;
"3" = 0;
"4" = 0;
"5" = 0;
"6" = 0;
"7" = 0;
"8" = 0;
"9" = 0;
};
};
width = 444;
},
{
layerId = "52319A01-0C76-4F01-98F2-7849B20FD9E6";
shapes = (
{
closed = 1;
nodes = (
(355,345,l),
(362,476,l),
(12,322,l),
(4,191,l)
);
},
{
pos = (6,0);
ref = L;
}
);
userData = {
com.hugojourdan.ColorFlow = {
"0" = 0;
"1" = 0;
"10" = 0;
"11" = 0;
"2" = 0;
"3" = 0;
"4" = 0;
"5" = 0;
"6" = 0;
"7" = 0;
"8" = 0;
"9" = 0;
};
};
width = 490;
}
);
metricRight = L;
unicode = 321;
},
{
color = 4;
glyphname = M;
kernLeft = KO_M;
kernRight = KO_M;
lastChange = "2023-12-16 23:22:17 +0000";
layers = (
{
anchors = (
{
name = top;
pos = (396,669);
}
);
layerId = m001;
shapes = (
{
closed = 1;
nodes = (
(93,0,l),
(172,538,l),
(328,0,l),
(370,0,l),
(598,524,l),
(613,0,l),
(659,0,l),
(641,612,l),
(595,612,l),
(359,68,l),
(355,68,l),
(199,612,l),
(147,612,l),
(48,0,l)
);
}
);
userData = {
com.hugojourdan.ColorFlow = {
"0" = 0;
"1" = 0;
"10" = 0;
"11" = 0;
"2" = 0;
"3" = 0;
"4" = 0;
"5" = 0;
"6" = 0;
"7" = 0;
"8" = 0;
"9" = 0;
};
};
width = 743;
},
{
anchors = (
{
name = top;
pos = (443,633);
}
);
layerId = "52319A01-0C76-4F01-98F2-7849B20FD9E6";
shapes = (
{
closed = 1;
nodes = (
(191,0,l),
(235,336,l),
(309,0,l),
(487,0,l),
(608,348,l),
(602,0,l),
(801,0,l),
(808,612,l),
(529,612,l),
(429,321,l),
(428,321,l),
(359,612,l),
(100,612,l),
(8,0,l)
);
}
);
userData = {
com.hugojourdan.ColorFlow = {
"0" = 0;
"1" = 0;
"10" = 0;
"11" = 0;
"2" = 0;
"3" = 0;
"4" = 0;
"5" = 0;
"6" = 0;
"7" = 0;
"8" = 0;
"9" = 0;
};
};
width = 863;
}
);
unicode = 77;
},
{
color = 4;
glyphname = N;
kernLeft = KO_H;
kernRight = KO_H;
lastChange = "2023-12-16 23:22:17 +0000";
layers = (
{
anchors = (
{
name = bottom;
pos = (280,0);
},
{
name = top;
pos = (321,669);
}
);
layerId = m001;
shapes = (
{
closed = 1;
nodes = (
(111,0,l),
(148,536,l),
(447,0,l),
(484,0,l),
(527,612,l),
(488,612,l),
(448,94,l),
(155,612,l),
(113,612,l),
(71,0,l)
);
}
);
userData = {
com.hugojourdan.ColorFlow = {
"0" = 0;
"1" = 0;
"10" = 0;
"11" = 0;
"2" = 0;
"3" = 0;
"4" = 0;
"5" = 0;
"6" = 0;
"7" = 0;
"8" = 0;
"9" = 0;
};
};
width = 586;
},
{
anchors = (
{
name = bottom;
pos = (314,0);
},
{
name = top;
pos = (351,633);
}
);
layerId = "52319A01-0C76-4F01-98F2-7849B20FD9E6";
shapes = (
{
closed = 1;
nodes = (
(218,0,l),
(238,295,l),
(390,0,l),
(572,0,l),
(613,612,l),
(427,612,l),
(413,319,l),
(277,612,l),
(77,612,l),
(33,0,l)
);
}
);
userData = {
com.hugojourdan.ColorFlow = {
"0" = 0;
"1" = 0;
"10" = 0;
"11" = 0;
"2" = 0;
"3" = 0;
"4" = 0;
"5" = 0;
"6" = 0;
"7" = 0;
"8" = 0;
"9" = 0;
};
};
width = 647;
}
);
metricLeft = H;
metricRight = H;
unicode = 78;
},
{
color = 4;
glyphname = Eng;
lastChange = "2023-11-03 12:35:05 +0000";
layers = (
{
layerId = m001;
shapes = (
{
closed = 1;
nodes = (
(404,-180,o),
(472,-116,o),
(479,5,cs),
(479,11,l),
(437,34,l),
(433,-25,ls),
(429,-103,o),
(399,-137,o),
(346,-137,cs),
(320,-137,o),
(297,-129,o),
(270,-119,c),
(253,-166,l),
(265,-169,o),
(292,-180,o),
(314,-180,cs)
);
},
{
ref = N;
}
);
userData = {
com.hugojourdan.ColorFlow = {
"0" = 0;
"1" = 0;
"10" = 0;
"11" = 0;
"2" = 0;
"3" = 0;
"4" = 0;
"5" = 0;
"6" = 0;
"7" = 0;
"8" = 0;
"9" = 0;
};
};
width = 586;
},
{
layerId = "52319A01-0C76-4F01-98F2-7849B20FD9E6";
shapes = (
{
closed = 1;
nodes = (
(477,-180,o),
(566,-105,o),
(573,16,cs),
(581,142,l),
(405,77,l),
(403,7,l),
(399,-23,o),
(369,-32,o),
(357,-32,cs),
(320,-32,o),
(293,-24,o),
(277,-10,c),
(246,-159,l),
(280,-176,o),
(314,-180,o),
(365,-180,cs)
);
},
{
ref = N;
}
);
userData = {
com.hugojourdan.ColorFlow = {
"0" = 0;
"1" = 0;
"10" = 0;
"11" = 0;
"2" = 0;
"3" = 0;
"4" = 0;
"5" = 0;
"6" = 0;
"7" = 0;
"8" = 0;
"9" = 0;
};
};
width = 647;
}
);
metricLeft = N;
metricRight = N;
unicode = 330;
},
{
color = 4;
glyphname = O;
kernLeft = KO_O;
kernRight = KO_O;
lastChange = "2023-12-16 23:22:53 +0000";
layers = (
{
anchors = (
{
name = top;
pos = (310,669);
}
);
layerId = m001;
shapes = (
{
closed = 1;
nodes = (
(359,-9,o),
(518,77,o),
(518,357,cs),
(518,530,o),
(429,621,o),
(320,621,cs),
(208,621,o),
(49,535,o),
(49,255,cs),
(49,82,o),
(139,-9,o),
(247,-9,cs)
);
},
{
closed = 1;
nodes = (
(193,31,o),
(99,80,o),
(99,286,cs),
(99,488,o),
(188,581,o),
(282,581,cs),
(371,581,o),
(470,535,o),
(470,326,cs),
(470,125,o),
(379,31,o),
(285,31,cs)
);
}
);
userData = {
com.hugojourdan.ColorFlow = {
"0" = 0;
"1" = 0;
"10" = 0;
"11" = 0;
"2" = 0;
"3" = 0;
"4" = 0;
"5" = 0;
"6" = 0;
"7" = 0;
"8" = 0;
"9" = 0;
};
};
width = 555;
},
{
anchors = (
{
name = top;
pos = (353,633);
}
);
layerId = "52319A01-0C76-4F01-98F2-7849B20FD9E6";
shapes = (
{
closed = 1;
nodes = (
(484,-20,o),
(621,139,o),
(621,353,cs),
(621,515,o),
(525,632,o),
(344,632,cs),
(144,632,o),
(7,473,o),
(7,259,cs),
(7,97,o),
(103,-20,o),
(284,-20,cs)
);
},
{
closed = 1;
nodes = (
(245,133,o),
(213,193,o),
(213,267,cs),
(213,441,o),
(251,479,o),
(312,479,cs),
(380,479,o),
(413,411,o),
(413,345,cs),
(413,168,o),
(369,133,o),
(311,133,cs)
);
}
);
userData = {
com.hugojourdan.ColorFlow = {
"0" = 0;
"1" = 0;
"10" = 0;
"11" = 0;
"2" = 0;
"3" = 0;
"4" = 0;
"5" = 0;
"6" = 0;
"7" = 0;
"8" = 0;
"9" = 0;
};
};
width = 628;
}
);
unicode = 79;
userData = {
KernOnName = O;
};
},
{
color = 4;
glyphname = Oslash;
kernRight = KO_O;
lastChange = "2023-10-23 05:36:15 +0000";
layers = (
{
anchors = (
{
name = top;
pos = (270,669);
}
);
layerId = m001;
shapes = (
{
closed = 1;
nodes = (
(149,-83,l),
(455,693,l),
(417,693,l),
(110,-83,l)
);
},
{
ref = O;
}
);
userData = {
com.hugojourdan.ColorFlow = {
"0" = 0;
"1" = 0;
"10" = 0;
"11" = 0;
"2" = 0;
"3" = 0;
"4" = 0;
"5" = 0;
"6" = 0;
"7" = 0;
"8" = 0;
"9" = 0;
};
};
width = 555;
},
{
anchors = (
{
name = top;
pos = (317,633);
}
);
layerId = "52319A01-0C76-4F01-98F2-7849B20FD9E6";
shapes = (
{
closed = 1;
nodes = (
(204,-83,l),
(543,693,l),
(417,693,l),
(78,-83,l)
);
},
{
ref = O;
}
);
userData = {
com.hugojourdan.ColorFlow = {
"0" = 0;
"1" = 0;
"10" = 0;
"11" = 0;
"2" = 0;
"3" = 0;
"4" = 0;
"5" = 0;
"6" = 0;
"7" = 0;
"8" = 0;
"9" = 0;
};
};
width = 628;
}
);
metricLeft = O;
metricRight = O;
unicode = 216;
},
{
color = 4;
glyphname = OE;
kernRight = KO_E;
lastChange = "2023-11-03 12:46:53 +0000";
layers = (
{
anchors = (
{
name = top;
pos = (386,612);
}
);
layerId = m001;
shapes = (
{
closed = 1;
nodes = (
(304,-9,o),
(345,9,o),
(381,28,c),
(371,55,l),
(343,42,o),
(317,31,o),
(282,31,cs),
(182,31,o),
(99,104,o),
(99,286,cs),
(99,507,o),
(198,581,o),
(288,581,cs),
(335,581,o),
(379,568,o),
(418,532,c),
(423,591,l),
(405,601,o),
(384,621,o),
(318,621,cs),
(216,621,o),
(49,542,o),
(49,266,cs),
(49,96,o),
(117,-9,o),
(252,-9,cs)
);
},
{
pos = (301,0);
ref = E;
}
);
userData = {
com.hugojourdan.ColorFlow = {
"0" = 0;
"1" = 0;
"10" = 0;
"11" = 0;
"2" = 0;
"3" = 0;
"4" = 0;
"5" = 0;
"6" = 0;
"7" = 0;
"8" = 0;
"9" = 0;
};
};
width = 747;
},
{
anchors = (
{
name = top;
pos = (409,612);
}
);
layerId = "52319A01-0C76-4F01-98F2-7849B20FD9E6";
shapes = (
{
closed = 1;
nodes = (
(327,-20,o),
(407,-10,o),
(476,54,c),
(404,197,l),
(391,151,o),
(346,133,o),
(315,133,cs),
(252,133,o),
(212,170,o),
(212,267,cs),
(212,402,o),
(231,479,o),
(296,479,cs),
(368,479,o),
(423,429,o),
(418,368,c),
(555,499,l),
(500,597,o),
(407,632,o),
(341,632,cs),
(70,632,o),
(6,388,o),
(6,247,cs),
(6,74,o),
(140,-20,o),
(267,-20,cs)
);
},
{
pos = (334,0);
ref = E;
}
);
userData = {
com.hugojourdan.ColorFlow = {
"0" = 0;
"1" = 0;
"10" = 0;
"11" = 0;
"2" = 0;
"3" = 0;
"4" = 0;
"5" = 0;
"6" = 0;
"7" = 0;
"8" = 0;
"9" = 0;
};
};
width = 852;
}
);
metricLeft = O;
metricRight = E;
unicode = 338;
},
{
color = 4;
glyphname = P;
kernLeft = KO_H;
kernRight = KO_P;
lastChange = "2023-12-16 23:22:17 +0000";
layers = (
{
layerId = m001;
shapes = (
{
closed = 1;
nodes = (
(118,0,l),
(136,255,l),
(178,255,ls),
(327,255,o),
(430,338,o),
(430,462,cs),
(430,558,o),
(364,612,o),
(240,612,cs),
(114,612,l),
(70,0,l)
);
},
{
closed = 1;
nodes = (
(159,574,l),
(219,574,ls),
(323,574,o),
(383,536,o),
(383,436,cs),
(383,330,o),
(295,291,o),
(217,291,cs),
(139,291,l)
);
}
);
userData = {
com.hugojourdan.ColorFlow = {
"0" = 0;
"1" = 0;
"10" = 0;
"11" = 0;
"2" = 0;
"3" = 0;
"4" = 0;
"5" = 0;
"6" = 0;
"7" = 0;
"8" = 0;
"9" = 0;
};
};
width = 454;
},
{
layerId = "52319A01-0C76-4F01-98F2-7849B20FD9E6";
shapes = (
{
closed = 1;
nodes = (
(236,0,l),
(248,178,l),
(289,178,ls),
(460,178,o),
(563,283,o),
(563,415,cs),
(563,536,o),
(482,612,o),
(318,612,cs),
(76,612,l),
(36,0,l)
);
},
{
closed = 1;
nodes = (
(268,480,l),
(290,480,ls),
(332,480,o),
(359,438,o),
(359,393,cs),
(359,370,o),
(355,323,o),
(284,323,cs),
(258,323,l)
);
}
);
userData = {
com.hugojourdan.ColorFlow = {
"0" = 0;
"1" = 0;
"10" = 0;
"11" = 0;
"2" = 0;
"3" = 0;
"4" = 0;
"5" = 0;
"6" = 0;
"7" = 0;
"8" = 0;
"9" = 0;
};
};
width = 565;
}
);
metricLeft = H;
unicode = 80;
},
{
color = 4;
glyphname = Thorn;
kernLeft = KO_H;
lastChange = "2023-11-03 12:36:52 +0000";
layers = (
{
layerId = m001;
shapes = (
{
closed = 1;
nodes = (
(118,0,l),
(128,142,l),
(178,142,ls),
(327,142,o),
(430,225,o),
(430,350,cs),
(430,445,o),
(364,499,o),
(240,499,cs),
(154,499,l),
(162,612,l),
(114,612,l),
(70,0,l)
);
},
{
closed = 1;
nodes = (
(151,462,l),
(219,462,ls),
(323,462,o),
(383,424,o),
(383,324,cs),
(383,217,o),
(295,178,o),
(217,178,cs),
(131,178,l)
);
}
);
userData = {
com.hugojourdan.ColorFlow = {
"0" = 0;
"1" = 0;
"10" = 0;
"11" = 0;
"2" = 0;
"3" = 0;
"4" = 0;
"5" = 0;
"6" = 0;
"7" = 0;
"8" = 0;
"9" = 0;
};
};
width = 462;
},
{
layerId = "52319A01-0C76-4F01-98F2-7849B20FD9E6";
shapes = (
{
closed = 1;
nodes = (
(236,0,l),
(242,84,l),
(289,84,ls),
(460,84,o),
(563,189,o),
(563,320,cs),
(563,441,o),
(482,518,o),
(318,518,cs),
(271,518,l),
(277,612,l),
(76,612,l),
(36,0,l)
);
},
{
closed = 1;
nodes = (
(262,385,l),
(290,385,ls),
(332,385,o),
(359,344,o),
(359,298,cs),
(359,275,o),
(355,229,o),
(284,229,cs),
(251,229,l)
);
}
);
userData = {
com.hugojourdan.ColorFlow = {
"0" = 0;
"1" = 0;
"10" = 0;
"11" = 0;
"2" = 0;
"3" = 0;
"4" = 0;
"5" = 0;
"6" = 0;
"7" = 0;
"8" = 0;
"9" = 0;
};
};
width = 572;
}
);
metricLeft = P;
metricRight = P;
unicode = 222;
},
{
color = 4;
glyphname = Q;
lastChange = "2023-10-23 17:02:16 +0000";
layers = (
{
layerId = m001;
shapes = (
{
closed = 1;
nodes = (
(400,-161,o),
(424,-159,o),
(462,-136,c),
(466,-90,l),
(442,-110,o),
(424,-113,o),
(400,-113,cs),
(348,-113,o),
(283,-75,o),
(216,-60,c),
(292,-23,o),
(376,27,o),
(390,44,c),
(349,39,l),
(306,5,o),
(219,-30,o),
(141,-55,c),
(120,-57,o),
(97,-62,o),
(73,-73,c),
(83,-117,l),
(104,-100,o),
(120,-95,o),
(143,-93,cs),
(219,-86,o),
(305,-161,o),
(382,-161,cs)
);
},
{
ref = O;
}
);
userData = {
com.hugojourdan.ColorFlow = {
"0" = 0;
"1" = 0;
"10" = 0;
"11" = 0;
"2" = 0;
"3" = 0;
"4" = 0;
"5" = 0;
"6" = 0;
"7" = 0;
"8" = 0;
"9" = 0;
};
};
width = 555;
},
{
layerId = "52319A01-0C76-4F01-98F2-7849B20FD9E6";
shapes = (
{
closed = 1;
nodes = (
(505,-234,o),
(559,-210,o),
(579,-194,c),
(586,-50,l),
(551,-70,o),
(501,-87,o),
(466,-87,cs),
(427,-87,o),
(362,-73,o),
(305,-61,c),
(439,8,o),
(460,27,o),
(521,80,c),
(426,137,l),
(355,74,o),
(302,21,o),
(158,-44,cs),
(133,-55,o),
(102,-67,o),
(71,-79,c),
(97,-201,l),
(131,-179,o),
(162,-161,o),
(197,-161,cs),
(263,-161,o),
(352,-234,o),
(444,-234,cs)
);
},
{
ref = O;
}
);
userData = {
com.hugojourdan.ColorFlow = {
"0" = 0;
"1" = 0;
"10" = 0;
"11" = 0;
"2" = 0;
"3" = 0;
"4" = 0;
"5" = 0;
"6" = 0;
"7" = 0;
"8" = 0;
"9" = 0;
};
};
width = 628;
},
{
associatedMasterId = m001;
layerId = "AD3A65B7-EFE2-423F-B4E9-D68EF00CC7FA";
name = "16 de oct. de 23, 23:18";
shapes = (
{
closed = 1;
nodes = (
(400,-161,o),
(424,-159,o),
(462,-136,c),
(466,-90,l),
(442,-110,o),
(424,-113,o),
(400,-113,cs),
(348,-113,o),
(283,-75,o),
(216,-60,c),
(292,-23,o),
(376,27,o),
(390,44,c),
(349,39,l),
(306,5,o),
(219,-30,o),
(141,-55,c),
(120,-57,o),
(97,-62,o),
(73,-73,c),
(84,-117,l),
(104,-100,o),
(120,-95,o),
(143,-93,cs),
(219,-86,o),
(305,-161,o),
(382,-161,cs)
);
},
{
ref = O;
}
);
visible = 1;
width = 555;
},
{
associatedMasterId = "52319A01-0C76-4F01-98F2-7849B20FD9E6";
layerId = "4476A604-C9FB-4132-BAC8-39DEA495F457";
name = "16 de oct. de 23, 23:18";
shapes = (
{
closed = 1;
nodes = (
(505,-234,o),
(559,-210,o),
(579,-194,c),
(586,-50,l),
(551,-70,o),
(501,-87,o),
(466,-87,cs),
(427,-87,o),
(362,-73,o),
(305,-61,c),
(439,8,o),
(460,27,o),
(521,80,c),
(426,137,l),
(355,74,o),
(302,21,o),
(158,-44,cs),
(133,-55,o),
(104,-67,o),
(73,-79,c),
(95,-201,l),
(129,-179,o),
(162,-161,o),
(197,-161,cs),
(263,-161,o),
(352,-234,o),
(444,-234,cs)
);
},
{
ref = O;
}
);
visible = 1;
width = 628;
}
);
unicode = 81;
},
{
color = 4;
glyphname = R;
kernLeft = KO_H;
lastChange = "2023-12-16 23:22:17 +0000";
layers = (
{
anchors = (
{
name = bottom;
pos = (250,0);
},
{
name = top;
pos = (264,669);
}
);
layerId = m001;
shapes = (
{
closed = 1;
nodes = (
(118,0,l),
(137,270,l),
(200,270,ls),
(215,270,o),
(230,271,o),
(244,273,c),
(378,0,l),
(437,0,l),
(437,0,o),
(317,226,o),
(288,284,c),
(366,311,o),
(425,374,o),
(425,463,cs),
(425,552,o),
(362,612,o),
(245,612,cs),
(114,612,l),
(70,0,l)
);
},
{
closed = 1;
nodes = (
(159,574,l),
(232,574,ls),
(337,574,o),
(378,525,o),
(378,439,cs),
(378,343,o),
(302,304,o),
(239,304,cs),
(140,304,l)
);
}
);
userData = {
com.hugojourdan.ColorFlow = {
"0" = 0;
"1" = 0;
"10" = 0;
"11" = 0;
"2" = 0;
"3" = 0;
"4" = 0;
"5" = 0;
"6" = 0;
"7" = 0;
"8" = 0;
"9" = 0;
};
};
width = 488;
},
{
anchors = (
{
name = bottom;
pos = (328,0);
},
{
name = top;
pos = (339,633);
}
);
layerId = "52319A01-0C76-4F01-98F2-7849B20FD9E6";
shapes = (
{
closed = 1;
nodes = (
(236,0,l),
(250,204,l),
(268,204,l),
(274,204,o),
(280,204,o),
(286,204,c),
(369,0,l),
(585,0,l),
(585,0,o),
(509,160,o),
(464,253,c),
(526,296,o),
(558,362,o),
(558,431,cs),
(558,545,o),
(477,612,o),
(323,612,cs),
(76,612,l),
(36,0,l)
);
},
{
closed = 1;
nodes = (
(268,480,l),
(281,480,ls),
(316,480,o),
(354,456,o),
(354,417,cs),
(354,383,o),
(343,351,o),
(277,351,cs),
(260,351,l)
);
}
);
userData = {
com.hugojourdan.ColorFlow = {
"0" = 0;
"1" = 0;
"10" = 0;
"11" = 0;
"2" = 0;
"3" = 0;
"4" = 0;
"5" = 0;
"6" = 0;
"7" = 0;
"8" = 0;
"9" = 0;
};
};
width = 580;
}
);
metricLeft = H;
unicode = 82;
},
{
color = 4;
glyphname = S;
kernLeft = KO_S;
kernRight = KO_S;
lastChange = "2023-12-16 23:22:17 +0000";
layers = (
{
anchors = (
{
name = bottom;
pos = (208,0);
},
{
name = top;
pos = (269,669);
}
);
layerId = m001;
shapes = (
{
closed = 1;
nodes = (
(273,-9,o),
(373,65,o),
(373,186,cs),
(373,251,o),
(328,288,o),
(252,328,cs),
(210,350,ls),
(128,393,o),
(113,428,o),
(113,479,cs),
(113,530,o),
(150,580,o),
(219,586,cs),
(277,591,o),
(323,585,o),
(379,563,c),
(391,604,l),
(356,615,o),
(321,621,o),
(261,621,cs),
(150,621,o),
(66,551,o),
(66,453,cs),
(66,379,o),
(109,345,o),
(192,303,cs),
(233,282,ls),
(315,240,o),
(325,204,o),
(325,147,cs),
(325,86,o),
(274,29,o),
(190,31,c),
(150,29,o),
(86,36,o),
(35,52,c),
(22,9,l),
(60,-7,o),
(95,-9,o),
(137,-9,cs)
);
}
);
userData = {
com.hugojourdan.ColorFlow = {
"0" = 0;
"1" = 0;
"10" = 0;
"11" = 0;
"2" = 0;
"3" = 0;
"4" = 0;
"5" = 0;
"6" = 0;
"7" = 0;
"8" = 0;
"9" = 0;
};
};
width = 417;
},
{
anchors = (
{
name = bottom;
pos = (215,0);
},
{
name = top;
pos = (247,633);
}
);
layerId = "52319A01-0C76-4F01-98F2-7849B20FD9E6";
shapes = (
{
closed = 1;
nodes = (
(367,-20,o),
(482,69,o),
(482,182,cs),
(482,244,o),
(466,306,o),
(380,350,cs),
(279,401,ls),
(258,411,o),
(237,432,o),
(237,449,cs),
(237,479,o),
(261,477,o),
(288,477,cs),
(335,477,o),
(443,433,o),
(458,422,c),
(505,593,l),
(485,598,o),
(394,632,o),
(291,632,cs),
(154,632,o),
(44,544,o),
(44,413,cs),
(44,353,o),
(76,286,o),
(137,256,cs),
(233,209,ls),
(257,197,o),
(278,178,o),
(278,158,cs),
(278,126,o),
(255,127,o),
(248,125,c),
(161,127,o),
(97,160,o),
(54,182,c),
(4,20,l),
(45,4,o),
(131,-20,o),
(221,-20,cs)
);
}
);
userData = {
com.hugojourdan.ColorFlow = {
"0" = 0;
"1" = 0;
"10" = 0;
"11" = 0;
"2" = 0;
"3" = 0;
"4" = 0;
"5" = 0;
"6" = 0;
"7" = 0;
"8" = 0;
"9" = 0;
};
};
width = 515;
},
{
anchors = (
{
name = bottom;
pos = (215,0);
},
{
name = top;
pos = (247,633);
}
);
associatedMasterId = "52319A01-0C76-4F01-98F2-7849B20FD9E6";
layerId = "789246F7-82EF-4CEB-A0B7-B78CFFFD3CAD";
name = "29 de ago. de 23, 10:46";
shapes = (
{
closed = 1;
nodes = (
(367,-20,o),
(482,69,o),
(482,182,cs),
(482,244,o),
(467,308,o),
(380,350,cs),
(279,401,ls),
(258,411,o),
(237,432,o),
(237,449,cs),
(237,479,o),
(261,477,o),
(288,477,cs),
(335,477,o),
(445,432,o),
(459,421,c),
(504,593,l),
(485,598,o),
(394,632,o),
(291,632,cs),
(154,632,o),
(44,544,o),
(44,413,cs),
(44,353,o),
(77,287,o),
(137,256,cs),
(233,209,ls),
(257,197,o),
(278,178,o),
(278,158,cs),
(278,126,o),
(255,127,o),
(248,125,c),
(161,127,o),
(97,160,o),
(48,186,c),
(10,17,l),
(45,4,o),
(131,-20,o),
(221,-20,cs)
);
},
{
closed = 1;
nodes = (
(367,-20,o),
(482,69,o),
(482,182,cs),
(482,244,o),
(467,308,o),
(380,350,cs),
(279,401,ls),
(258,411,o),
(237,432,o),
(237,449,cs),
(237,479,o),
(261,477,o),
(288,477,cs),
(335,477,o),
(445,432,o),
(459,421,c),
(504,593,l),
(485,598,o),
(394,632,o),
(291,632,cs),
(154,632,o),
(44,544,o),
(44,413,cs),
(44,353,o),
(77,287,o),
(137,256,cs),
(233,209,ls),
(257,197,o),
(278,178,o),
(278,158,cs),
(278,126,o),
(255,127,o),
(248,125,c),
(161,127,o),
(97,160,o),
(48,186,c),
(10,17,l),
(45,4,o),
(131,-20,o),
(221,-20,cs)
);
}
);
visible = 1;
width = 515;
},
{
anchors = (
{
name = bottom;
pos = (208,0);
},
{
name = top;
pos = (269,669);
}
);
associatedMasterId = m001;
layerId = "B0011213-BBE2-4E3E-B282-9C00F63A5073";
name = "29 de ago. de 23, 10:46";
shapes = (
{
closed = 1;
nodes = (
(273,-9,o),
(373,65,o),
(373,186,cs),
(373,251,o),
(328,289,o),
(252,328,cs),
(210,350,ls),
(127,392,o),
(113,428,o),
(113,479,cs),
(113,530,o),
(156,586,o),
(219,586,cs),
(277,586,o),
(317,582,o),
(379,563,c),
(391,604,l),
(361,617,o),
(321,621,o),
(261,621,cs),
(150,621,o),
(66,551,o),
(66,453,cs),
(66,379,o),
(109,345,o),
(192,303,cs),
(233,282,ls),
(315,240,o),
(325,204,o),
(325,147,cs),
(325,86,o),
(274,29,o),
(190,31,c),
(150,29,o),
(86,36,o),
(37,51,c),
(21,10,l),
(60,-7,o),
(95,-9,o),
(137,-9,cs)
);
},
{
closed = 1;
nodes = (
(273,-9,o),
(373,65,o),
(373,186,cs),
(373,251,o),
(328,289,o),
(252,328,cs),
(210,350,ls),
(127,392,o),
(113,428,o),
(113,479,cs),
(113,530,o),
(156,586,o),
(219,586,cs),
(277,586,o),
(317,582,o),
(379,563,c),
(391,604,l),
(361,617,o),
(321,621,o),
(261,621,cs),
(150,621,o),
(66,551,o),
(66,453,cs),
(66,379,o),
(109,345,o),
(192,303,cs),
(233,282,ls),
(315,240,o),
(325,204,o),
(325,147,cs),
(325,86,o),
(274,29,o),
(190,31,c),
(150,29,o),
(86,36,o),
(37,51,c),
(21,10,l),
(60,-7,o),
(95,-9,o),
(137,-9,cs)
);
}
);
visible = 1;
width = 417;
}
);
unicode = 83;
},
{
color = 3;
glyphname = Germandbls;
kernLeft = KO_B;
lastChange = "2023-11-20 14:43:03 +0000";
layers = (
{
layerId = m001;
shapes = (
{
closed = 1;
nodes = (
(65,0,l),
(117,0,l),
(158,586,l),
(138,570,l),
(449,570,l),
(386,497,o),
(331,435,o),
(266,358,c),
(275,317,l),
(367,326,o),
(488,307,o),
(479,170,cs),
(469,23,o),
(310,28,o),
(212,59,c),
(192,8,l),
(349,-21,o),
(523,31,o),
(533,177,cs),
(542,298,o),
(464,354,o),
(327,356,c),
(395,434,o),
(449,492,o),
(515,568,c),
(518,612,l),
(108,612,l)
);
}
);
userData = {
com.hugojourdan.ColorFlow = {
"0" = 0;
"1" = 0;
"10" = 0;
"11" = 0;
"2" = 0;
"3" = 0;
"4" = 0;
"5" = 0;
"6" = 0;
"7" = 0;
"8" = 0;
"9" = 0;
};
};
width = 577;
},
{
layerId = "52319A01-0C76-4F01-98F2-7849B20FD9E6";
shapes = (
{
closed = 1;
nodes = (
(33,0,l),
(231,0,l),
(267,516,l),
(250,486,l),
(467,486,l),
(433,453,o),
(367,391,o),
(336,359,c),
(367,268,l),
(418,261,o),
(469,236,o),
(466,189,cs),
(463,144,o),
(404,126,o),
(315,143,c),
(287,8,l),
(416,-16,o),
(655,0,o),
(667,177,cs),
(674,268,o),
(624,329,o),
(532,364,c),
(573,402,o),
(612,443,o),
(654,483,c),
(662,612,l),
(76,612,l)
);
}
);
userData = {
com.hugojourdan.ColorFlow = {
"0" = 0;
"1" = 0;
"10" = 0;
"11" = 0;
"2" = 0;
"3" = 0;
"4" = 0;
"5" = 0;
"6" = 0;
"7" = 0;
"8" = 0;
"9" = 0;
};
};
width = 691;
}
);
metricLeft = B;
metricRight = B;
unicode = 7838;
},
{
color = 4;
glyphname = T;
kernLeft = KO_T;
kernRight = KO_T;
lastChange = "2023-12-16 23:22:53 +0000";
layers = (
{
anchors = (
{
name = bottom;
pos = (211,0);
},
{
name = center;
pos = (253,306);
},
{
name = top;
pos = (259,669);
}
);
layerId = m001;
shapes = (
{
closed = 1;
nodes = (
(252,0,l),
(292,574,l),
(480,570,l),
(490,612,l),
(63,612,l),
(54,570,l),
(245,574,l),
(205,0,l)
);
}
);
userData = {
com.hugojourdan.ColorFlow = {
"0" = 0;
"1" = 0;
"10" = 0;
"11" = 0;
"2" = 0;
"3" = 0;
"4" = 0;
"5" = 0;
"6" = 0;
"7" = 0;
"8" = 0;
"9" = 0;
};
};
width = 493;
},
{
anchors = (
{
name = bottom;
pos = (247,0);
},
{
name = center;
pos = (249,306);
},
{
name = top;
pos = (289,633);
}
);
layerId = "52319A01-0C76-4F01-98F2-7849B20FD9E6";
shapes = (
{
closed = 1;
nodes = (
(332,0,l),
(364,455,l),
(502,453,l),
(537,612,l),
(33,612,l),
(-1,453,l),
(163,456,l),
(132,0,l)
);
}
);
userData = {
com.hugojourdan.ColorFlow = {
"0" = 0;
"1" = 0;
"10" = 0;
"11" = 0;
"2" = 0;
"3" = 0;
"4" = 0;
"5" = 0;
"6" = 0;
"7" = 0;
"8" = 0;
"9" = 0;
};
};
width = 502;
}
);
unicode = 84;
userData = {
KernOnName = T;
};
},
{
color = 4;
glyphname = Tbar;
lastChange = "2023-11-03 12:26:15 +0000";
layers = (
{
layerId = m001;
shapes = (
{
closed = 1;
nodes = (
(426,333,l),
(442,355,l),
(445,366,l),
(76,366,l),
(60,345,l),
(57,333,l)
);
},
{
ref = T;
}
);
userData = {
com.hugojourdan.ColorFlow = {
"0" = 0;
"1" = 0;
"10" = 0;
"11" = 0;
"2" = 0;
"3" = 0;
"4" = 0;
"5" = 0;
"6" = 0;
"7" = 0;
"8" = 0;
"9" = 0;
};
};
width = 493;
},
{
layerId = "52319A01-0C76-4F01-98F2-7849B20FD9E6";
shapes = (
{
closed = 1;
nodes = (
(433,235,l),
(464,340,l),
(464,366,l),
(72,366,l),
(41,261,l),
(42,235,l)
);
},
{
ref = T;
}
);
userData = {
com.hugojourdan.ColorFlow = {
"0" = 0;
"1" = 0;
"10" = 0;
"11" = 0;
"2" = 0;
"3" = 0;
"4" = 0;
"5" = 0;
"6" = 0;
"7" = 0;
"8" = 0;
"9" = 0;
};
};
width = 502;
}
);
metricLeft = T;
metricRight = T;
unicode = 358;
},
{
color = 4;
glyphname = U;
kernRight = KO_U;
lastChange = "2023-12-16 23:22:17 +0000";
layers = (
{
anchors = (
{
name = ogonek;
pos = (346,-9);
},
{
name = top;
pos = (329,669);
}
);
layerId = m001;
shapes = (
{
closed = 1;
nodes = (
(389,-9,o),
(475,61,o),
(485,214,cs),
(512,612,l),
(465,612,l),
(439,209,ls),
(429,80,o),
(375,35,o),
(285,35,cs),
(187,35,o),
(129,84,o),
(129,189,cs),
(129,242,o),
(133,267,o),
(155,612,c),
(107,612,l),
(80,241,o),
(77,206,o),
(77,162,cs),
(77,46,o),
(163,-9,o),
(257,-9,cs)
);
}
);
userData = {
com.hugojourdan.ColorFlow = {
"0" = 0;
"1" = 0;
"10" = 0;
"11" = 0;
"2" = 0;
"3" = 0;
"4" = 0;
"5" = 0;
"6" = 0;
"7" = 0;
"8" = 0;
"9" = 0;
};
};
width = 565;
},
{
anchors = (
{
name = ogonek;
pos = (222,-20);
},
{
name = top;
pos = (336,633);
}
);
layerId = "52319A01-0C76-4F01-98F2-7849B20FD9E6";
shapes = (
{
closed = 1;
nodes = (
(483,-20,o),
(577,83,o),
(587,236,cs),
(614,612,l),
(422,612,l),
(392,213,ls),
(389,157,o),
(364,129,o),
(325,129,cs),
(292,129,o),
(246,146,o),
(246,211,cs),
(246,231,o),
(250,289,o),
(275,612,c),
(75,612,l),
(48,241,o),
(47,228,o),
(47,184,cs),
(47,53,o),
(137,-20,o),
(293,-20,cs)
);
}
);
userData = {
com.hugojourdan.ColorFlow = {
"0" = 0;
"1" = 0;
"10" = 0;
"11" = 0;
"2" = 0;
"3" = 0;
"4" = 0;
"5" = 0;
"6" = 0;
"7" = 0;
"8" = 0;
"9" = 0;
};
};
width = 646;
}
);
unicode = 85;
},
{
color = 4;
glyphname = V;
kernLeft = KO_V;
kernRight = KO_V;
lastChange = "2023-12-16 23:22:53 +0000";
layers = (
{
layerId = m001;
shapes = (
{
closed = 1;
nodes = (
(273,0,l),
(532,612,l),
(483,612,l),
(253,54,l),
(98,612,l),
(50,612,l),
(220,0,l)
);
}
);
userData = {
com.hugojourdan.ColorFlow = {
"0" = 0;
"1" = 0;
"10" = 0;
"11" = 0;
"2" = 0;
"3" = 0;
"4" = 0;
"5" = 0;
"6" = 0;
"7" = 0;
"8" = 0;
"9" = 0;
};
};
width = 528;
},
{
layerId = "52319A01-0C76-4F01-98F2-7849B20FD9E6";
shapes = (
{
closed = 1;
nodes = (
(387,0,l),
(631,612,l),
(434,612,l),
(294,225,l),
(223,612,l),
(14,612,l),
(148,0,l)
);
}
);
userData = {
com.hugojourdan.ColorFlow = {
"0" = 0;
"1" = 0;
"10" = 0;
"11" = 0;
"2" = 0;
"3" = 0;
"4" = 0;
"5" = 0;
"6" = 0;
"7" = 0;
"8" = 0;
"9" = 0;
};
};
width = 590;
}
);
unicode = 86;
userData = {
KernOnName = V;
};
},
{
color = 4;
glyphname = W;
kernRight = KO_W;
lastChange = "2023-10-23 16:22:14 +0000";
layers = (
{
anchors = (
{
name = top;
pos = (437,669);
}
);
layerId = m001;
shapes = (
{
closed = 1;
nodes = (
(204,0,l),
(426,542,l),
(563,0,l),
(607,0,l),
(808,612,l),
(763,612,l),
(593,71,l),
(457,612,l),
(413,612,l),
(194,78,l),
(107,612,l),
(63,612,l),
(160,0,l)
);
}
);
userData = {
com.hugojourdan.ColorFlow = {
"0" = 0;
"1" = 0;
"10" = 0;
"11" = 0;
"2" = 0;
"3" = 0;
"4" = 0;
"5" = 0;
"6" = 0;
"7" = 0;
"8" = 0;
"9" = 0;
};
};
width = 821;
},
{
anchors = (
{
name = top;
pos = (448,633);
}
);
layerId = "52319A01-0C76-4F01-98F2-7849B20FD9E6";
shapes = (
{
closed = 1;
nodes = (
(332,0,l),
(433,274,l),
(490,0,l),
(720,0,l),
(874,612,l),
(690,612,l),
(619,300,l),
(555,612,l),
(377,612,l),
(273,303,l),
(246,612,l),
(33,612,l),
(105,0,l)
);
}
);
userData = {
com.hugojourdan.ColorFlow = {
"0" = 0;
"1" = 0;
"10" = 0;
"11" = 0;
"2" = 0;
"3" = 0;
"4" = 0;
"5" = 0;
"6" = 0;
"7" = 0;
"8" = 0;
"9" = 0;
};
};
width = 872;
}
);
unicode = 87;
},
{
color = 4;
glyphname = X;
lastChange = "2023-12-16 23:22:17 +0000";
layers = (
{
layerId = m001;
shapes = (
{
closed = 1;
nodes = (
(54,0,l),
(242,284,l),
(398,0,l),
(451,0,l),
(275,320,l),
(475,612,l),
(425,612,l),
(255,355,l),
(113,612,l),
(62,612,l),
(223,318,l),
(5,0,l)
);
}
);
userData = {
com.hugojourdan.ColorFlow = {
"0" = 0;
"1" = 0;
"10" = 0;
"11" = 0;
"2" = 0;
"3" = 0;
"4" = 0;
"5" = 0;
"6" = 0;
"7" = 0;
"8" = 0;
"9" = 0;
};
com.typemytype.robofont.guideline.magnetic.sox2OvgEaX = 5;
};
width = 489;
},
{
layerId = "52319A01-0C76-4F01-98F2-7849B20FD9E6";
shapes = (
{
closed = 1;
nodes = (
(167,0,l),
(256,160,l),
(343,0,l),
(564,0,l),
(400,304,l),
(606,612,l),
(385,612,l),
(307,474,l),
(233,612,l),
(11,612,l),
(164,331,l),
(-53,0,l)
);
}
);
userData = {
com.hugojourdan.ColorFlow = {
"0" = 0;
"1" = 0;
"10" = 0;
"11" = 0;
"2" = 0;
"3" = 0;
"4" = 0;
"5" = 0;
"6" = 0;
"7" = 0;
"8" = 0;
"9" = 0;
};
com.typemytype.robofont.guideline.magnetic.vQKJayIlNy = 5;
};
width = 566;
}
);
unicode = 88;
},
{
color = 4;
glyphname = Y;
kernRight = KO_Y;
lastChange = "2023-12-16 23:22:17 +0000";
layers = (
{
anchors = (
{
name = top;
pos = (289,669);
}
);
layerId = m001;
shapes = (
{
closed = 1;
nodes = (
(263,0,l),
(281,257,l),
(510,612,l),
(462,612,l),
(264,297,l),
(102,612,l),
(47,612,l),
(234,255,l),
(216,0,l)
);
}
);
userData = {
com.hugojourdan.ColorFlow = {
"0" = 0;
"1" = 0;
"10" = 0;
"11" = 0;
"2" = 0;
"3" = 0;
"4" = 0;
"5" = 0;
"6" = 0;
"7" = 0;
"8" = 0;
"9" = 0;
};
};
width = 516;
},
{
anchors = (
{
name = top;
pos = (289,633);
}
);
layerId = "52319A01-0C76-4F01-98F2-7849B20FD9E6";
shapes = (
{
closed = 1;
nodes = (
(343,0,l),
(358,211,l),
(576,612,l),
(374,612,l),
(286,421,l),
(215,612,l),
(4,612,l),
(157,211,l),
(143,0,l)
);
}
);
userData = {
com.hugojourdan.ColorFlow = {
"0" = 0;
"1" = 0;
"10" = 0;
"11" = 0;
"2" = 0;
"3" = 0;
"4" = 0;
"5" = 0;
"6" = 0;
"7" = 0;
"8" = 0;
"9" = 0;
};
};
width = 523;
},
{
anchors = (
{
name = top;
pos = (289,633);
}
);
associatedMasterId = "52319A01-0C76-4F01-98F2-7849B20FD9E6";
layerId = "6D8555B8-217F-4435-BCBA-899DE0140D66";
name = "4 de dic. de 23, 20:24";
shapes = (
{
closed = 1;
nodes = (
(343,0,l),
(358,215,l),
(361,215,l),
(576,612,l),
(374,612,l),
(286,421,l),
(215,612,l),
(4,612,l),
(156,215,l),
(158,215,l),
(143,0,l)
);
}
);
userData = {
com.hugojourdan.ColorFlow = {
"0" = 0;
"1" = 0;
"10" = 0;
"11" = 0;
"2" = 0;
"3" = 0;
"4" = 0;
"5" = 0;
"6" = 0;
"7" = 0;
"8" = 0;
"9" = 0;
};
};
visible = 1;
width = 523;
}
);
unicode = 89;
},
{
color = 4;
glyphname = Z;
kernLeft = KO_Z;
kernRight = KO_Z;
lastChange = "2023-10-23 16:22:14 +0000";
layers = (
{
anchors = (
{
name = top;
pos = (270,669);
}
);
layerId = m001;
shapes = (
{
closed = 1;
nodes = (
(427,0,l),
(436,41,l),
(96,41,l),
(458,567,l),
(463,612,l),
(92,612,l),
(83,570,l),
(409,570,l),
(46,38,l),
(42,0,l)
);
}
);
userData = {
com.hugojourdan.ColorFlow = {
"0" = 0;
"1" = 0;
"10" = 0;
"11" = 0;
"2" = 0;
"3" = 0;
"4" = 0;
"5" = 0;
"6" = 0;
"7" = 0;
"8" = 0;
"9" = 0;
};
com.typemytype.robofont.guideline.magnetic.zBgKMUkuuP = 5;
};
width = 505;
},
{
anchors = (
{
name = top;
pos = (310,633);
}
);
layerId = "52319A01-0C76-4F01-98F2-7849B20FD9E6";
shapes = (
{
closed = 1;
nodes = (
(488,0,l),
(522,158,l),
(275,158,l),
(524,479,l),
(529,612,l),
(72,612,l),
(36,450,l),
(274,450,l),
(24,118,l),
(20,0,l)
);
}
);
userData = {
com.hugojourdan.ColorFlow = {
"0" = 0;
"1" = 0;
"10" = 0;
"11" = 0;
"2" = 0;
"3" = 0;
"4" = 0;
"5" = 0;
"6" = 0;
"7" = 0;
"8" = 0;
"9" = 0;
};
};
width = 548;
}
);
unicode = 90;
},
{
color = 3;
glyphname = Gsmallhook;
lastChange = "2024-02-12 16:48:46 +0000";
layers = (
{
layerId = m001;
shapes = (
{
ref = G.sc;
},
{
closed = 1;
nodes = (
(334,526,o),
(347,492,o),
(370,455,c),
(409,455,l),
(383,500,o),
(375,526,o),
(377,556,cs),
(379,592,o),
(403,606,o),
(421,606,cs),
(443,606,o),
(456,595,o),
(462,592,c),
(475,619,l),
(458,629,o),
(441,639,o),
(411,639,cs),
(368,639,o),
(339,608,o),
(336,566,cs)
);
}
);
userData = {
com.hugojourdan.ColorFlow = {
"0" = 0;
"1" = 0;
"10" = 0;
"11" = 0;
"2" = 0;
"3" = 0;
"4" = 0;
"5" = 0;
"6" = 0;
"7" = 0;
"8" = 0;
"9" = 0;
};
};
width = 443;
},
{
layerId = "52319A01-0C76-4F01-98F2-7849B20FD9E6";
shapes = (
{
ref = G.sc;
scale = (1,0.835);
slant = (-1,0);
},
{
closed = 1;
nodes = (
(389,516,o),
(409,479,o),
(441,440,c),
(531,440,l),
(506,499,o),
(502,512,o),
(504,532,cs),
(505,551,o),
(521,568,o),
(545,568,cs),
(559,568,o),
(574,565,o),
(591,558,c),
(609,642,l),
(592,652,o),
(562,663,o),
(523,663,cs),
(453,663,o),
(396,620,o),
(391,558,cs)
);
}
);
userData = {
com.hugojourdan.ColorFlow = {
"0" = 0;
"1" = 0;
"10" = 0;
"11" = 0;
"2" = 0;
"3" = 0;
"4" = 0;
"5" = 0;
"6" = 0;
"7" = 0;
"8" = 0;
"9" = 0;
};
};
width = 549;
},
{
associatedMasterId = "52319A01-0C76-4F01-98F2-7849B20FD9E6";
layerId = "257164C0-4DB4-4C73-BFEC-CD76525FC7B0";
name = "14 de dic. de 23, 16:32";
shapes = (
{
ref = G.sc;
},
{
closed = 1;
nodes = (
(533,527,l),
(519,546,o),
(510,570,o),
(510,592,cs),
(510,633,o),
(540,649,o),
(583,657,c),
(551,742,l),
(476,736,o),
(392,687,o),
(393,621,cs),
(393,590,o),
(407,555,o),
(453,519,c)
);
}
);
userData = {
com.hugojourdan.ColorFlow = {
"0" = 0;
"1" = 0;
"10" = 0;
"11" = 0;
"2" = 0;
"3" = 0;
"4" = 0;
"5" = 0;
"6" = 0;
"7" = 0;
"8" = 0;
"9" = 0;
};
};
visible = 1;
width = 541;
}
);
unicode = 667;
},
{
color = 4;
glyphname = a;
kernLeft = KO_a;
kernRight = KO_n;
lastChange = "2023-12-16 23:22:53 +0000";
layers = (
{
anchors = (
{
name = bottom;
pos = (220,0);
},
{
name = ogonek;
pos = (314,0);
},
{
name = top;
pos = (241,500);
}
);
layerId = m001;
shapes = (
{
closed = 1;
nodes = (
(177,-9,o),
(250,43,o),
(283,145,c),
(282,-9,l),
(314,0,l),
(344,431,l),
(315,449,o),
(269,459,o),
(242,459,cs),
(118,459,o),
(43,312,o),
(43,164,cs),
(43,36,o),
(82,-9,o),
(136,-9,cs)
);
},
{
closed = 1;
nodes = (
(108,35,o),
(88,92,o),
(88,173,cs),
(88,323,o),
(143,421,o),
(211,421,cs),
(239,421,o),
(278,413,o),
(298,404,c),
(290,266,l),
(270,97,o),
(194,35,o),
(154,35,cs)
);
}
);
userData = {
com.hugojourdan.ColorFlow = {
"0" = 0;
"1" = 0;
"10" = 0;
"11" = 0;
"2" = 0;
"3" = 0;
"4" = 0;
"5" = 0;
"6" = 0;
"7" = 0;
"8" = 0;
"9" = 0;
};
};
width = 405;
},
{
anchors = (
{
name = bottom;
pos = (205,0);
},
{
name = ogonek;
pos = (485,0);
},
{
name = top;
pos = (292,500);
}
);
layerId = "52319A01-0C76-4F01-98F2-7849B20FD9E6";
shapes = (
{
closed = 1;
nodes = (
(214,-20,o),
(259,10,o),
(306,50,c),
(314,-20,l),
(485,0,l),
(515,431,l),
(472,453,o),
(404,470,o),
(300,470,cs),
(137,470,o),
(7,348,o),
(7,164,cs),
(7,36,o),
(71,-20,o),
(151,-20,cs)
);
},
{
closed = 1;
nodes = (
(236,112,o),
(208,111,o),
(208,173,cs),
(208,338,o),
(248,344,o),
(295,344,cs),
(306,344,o),
(315,342,o),
(322,340,c),
(316,277,l),
(302,135,o),
(266,112,o),
(242,112,cs)
);
}
);
userData = {
com.hugojourdan.ColorFlow = {
"0" = 0;
"1" = 0;
"10" = 0;
"11" = 0;
"2" = 0;
"3" = 0;
"4" = 0;
"5" = 0;
"6" = 0;
"7" = 0;
"8" = 0;
"9" = 0;
};
};
width = 533;
}
);
unicode = 97;
userData = {
KernOnName = a;
};
},
{
color = 3;
glyphname = "alpha-latin";
kernLeft = KO_a;
lastChange = "2024-02-12 16:49:12 +0000";
layers = (
{
anchors = (
{
name = bottom;
pos = (220,0);
},
{
name = ogonek;
pos = (314,0);
},
{
name = top;
pos = (241,500);
}
);
layerId = m001;
shapes = (
{
closed = 1;
nodes = (
(175,-9,o),
(244,39,o),
(279,134,c),
(275,67,o),
(264,-9,o),
(329,-9,cs),
(351,-9,o),
(373,3,o),
(410,31,c),
(406,62,l),
(383,44,o),
(360,33,o),
(348,33,cs),
(335,33,o),
(320,40,o),
(320,69,cs),
(320,125,o),
(337,332,o),
(348,468,c),
(303,449,l),
(281,455,o),
(258,459,o),
(242,459,cs),
(118,459,o),
(43,312,o),
(43,164,cs),
(43,36,o),
(82,-9,o),
(136,-9,cs)
);
},
{
closed = 1;
nodes = (
(108,35,o),
(88,92,o),
(88,173,cs),
(88,323,o),
(143,421,o),
(211,421,cs),
(239,421,o),
(278,413,o),
(298,404,c),
(287,246,l),
(264,92,o),
(192,35,o),
(154,35,cs)
);
}
);
userData = {
com.hugojourdan.ColorFlow = {
"0" = 0;
"1" = 0;
"10" = 0;
"11" = 0;
"2" = 0;
"3" = 0;
"4" = 0;
"5" = 0;
"6" = 0;
"7" = 0;
"8" = 0;
"9" = 0;
};
};
width = 438;
},
{
anchors = (
{
name = bottom;
pos = (205,0);
},
{
name = ogonek;
pos = (485,0);
},
{
name = top;
pos = (292,500);
}
);
layerId = "52319A01-0C76-4F01-98F2-7849B20FD9E6";
shapes = (
{
closed = 1;
nodes = (
(213,-20,o),
(262,12,o),
(313,56,c),
(328,6,o),
(367,-20,o),
(422,-20,cs),
(465,-20,o),
(503,-8,o),
(550,12,c),
(560,151,l),
(550,146,o),
(539,142,o),
(523,142,cs),
(504,142,o),
(500,164,o),
(500,182,cs),
(500,251,o),
(511,331,o),
(523,470,c),
(423,458,l),
(387,466,o),
(353,470,o),
(300,470,cs),
(137,470,o),
(7,348,o),
(7,164,cs),
(7,36,o),
(71,-20,o),
(151,-20,cs)
);
},
{
closed = 1;
nodes = (
(236,112,o),
(208,111,o),
(208,173,cs),
(208,338,o),
(248,344,o),
(295,344,cs),
(306,344,o),
(315,342,o),
(322,340,c),
(314,261,l),
(299,133,o),
(265,112,o),
(242,112,cs)
);
}
);
userData = {
com.hugojourdan.ColorFlow = {
"0" = 0;
"1" = 0;
"10" = 0;
"11" = 0;
"2" = 0;
"3" = 0;
"4" = 0;
"5" = 0;
"6" = 0;
"7" = 0;
"8" = 0;
"9" = 0;
};
};
width = 562;
}
);
metricLeft = a;
metricRight = iota;
unicode = 593;
},
{
color = 4;
glyphname = ae;
lastChange = "2023-10-23 16:22:14 +0000";
layers = (
{
anchors = (
{
name = top;
pos = (338,450);
}
);
layerId = m001;
shapes = (
{
closed = 1;
nodes = (
(157,-9,o),
(224,5,o),
(297,133,c),
(304,40,o),
(348,-9,o),
(416,-9,cs),
(465,-9,o),
(527,36,o),
(562,75,c),
(544,96,l),
(508,64,o),
(470,31,o),
(420,31,cs),
(353,31,o),
(342,174,o),
(344,217,c),
(442,218,o),
(566,267,o),
(566,367,cs),
(566,412,o),
(534,459,o),
(474,459,cs),
(436,459,o),
(402,442,o),
(373,411,c),
(340,439,o),
(293,459,o),
(254,459,cs),
(90,459,o),
(43,296,o),
(43,144,cs),
(43,25,o),
(97,-9,o),
(124,-9,cs)
);
},
{
closed = 1;
nodes = (
(118,35,o),
(88,86,o),
(88,145,cs),
(88,327,o),
(143,426,o),
(225,426,cs),
(270,426,o),
(320,397,o),
(348,377,c),
(317,327,o),
(298,258,o),
(296,176,c),
(249,91,o),
(186,35,o),
(151,35,cs)
);
},
{
closed = 1;
nodes = (
(360,402,o),
(420,423,o),
(459,423,cs),
(495,423,o),
(519,397,o),
(519,359,cs),
(519,300,o),
(452,249,o),
(346,248,c)
);
}
);
userData = {
com.hugojourdan.ColorFlow = {
"0" = 0;
"1" = 0;
"10" = 0;
"11" = 0;
"2" = 0;
"3" = 0;
"4" = 0;
"5" = 0;
"6" = 0;
"7" = 0;
"8" = 0;
"9" = 0;
};
};
width = 592;
},
{
anchors = (
{
name = top;
pos = (312,450);
}
);
layerId = "52319A01-0C76-4F01-98F2-7849B20FD9E6";
shapes = (
{
closed = 1;
nodes = (
(227,-17,o),
(277,21,o),
(312,64,c),
(345,7,o),
(405,-20,o),
(482,-20,cs),
(574,-20,o),
(640,14,o),
(690,49,c),
(649,158,l),
(600,122,o),
(558,115,o),
(544,115,cs),
(504,115,o),
(490,131,o),
(483,161,c),
(612,181,o),
(705,252,o),
(705,341,cs),
(705,416,o),
(647,470,o),
(543,470,cs),
(513,470,o),
(479,465,o),
(446,453,c),
(391,466,o),
(331,470,o),
(276,470,cs),
(218,470,o),
(7,420,o),
(7,184,cs),
(7,65,o),
(39,-17,o),
(167,-17,cs)
);
},
{
closed = 1;
nodes = (
(220,112,o),
(208,118,o),
(208,214,cs),
(208,308,o),
(241,338,o),
(272,338,cs),
(286,338,o),
(302,340,o),
(318,339,c),
(304,312,o),
(292,279,o),
(287,229,cs),
(282,177,o),
(291,112,o),
(249,112,cs)
);
},
{
closed = 1;
nodes = (
(463,299,o),
(472,354,o),
(514,354,cs),
(531,354,o),
(534,339,o),
(534,323,cs),
(534,284,o),
(507,262,o),
(464,253,c)
);
}
);
userData = {
com.hugojourdan.ColorFlow = {
"0" = 0;
"1" = 0;
"10" = 0;
"11" = 0;
"2" = 0;
"3" = 0;
"4" = 0;
"5" = 0;
"6" = 0;
"7" = 0;
"8" = 0;
"9" = 0;
};
};
width = 712;
}
);
unicode = 230;
},
{
color = 4;
glyphname = b;
kernLeft = KO_i;
kernRight = KO_p;
lastChange = "2023-12-16 23:22:53 +0000";
layers = (
{
layerId = m001;
shapes = (
{
closed = 1;
nodes = (
(109,15,l),
(154,-4,o),
(172,-9,o),
(209,-9,cs),
(301,-9,o),
(385,130,o),
(385,272,cs),
(385,432,o),
(327,459,o),
(285,459,cs),
(241,459,o),
(181,404,o),
(130,294,c),
(156,697,l),
(111,687,l),
(67,-4,l),
(96,-24,l)
);
},
{
closed = 1;
nodes = (
(187,29,o),
(143,41,o),
(114,50,c),
(122,165,l),
(147,335,o),
(234,414,o),
(270,414,cs),
(308,414,o),
(339,373,o),
(339,269,cs),
(339,101,o),
(277,29,o),
(221,29,cs)
);
}
);
userData = {
com.hugojourdan.ColorFlow = {
"0" = 0;
"1" = 0;
"10" = 0;
"11" = 0;
"2" = 0;
"3" = 0;
"4" = 0;
"5" = 0;
"6" = 0;
"7" = 0;
"8" = 0;
"9" = 0;
};
};
width = 431;
},
{
layerId = "52319A01-0C76-4F01-98F2-7849B20FD9E6";
shapes = (
{
closed = 1;
nodes = (
(119,-1,l),
(152,-10,o),
(192,-17,o),
(224,-17,cs),
(331,-17,o),
(513,53,o),
(513,298,cs),
(513,381,o),
(484,470,o),
(369,470,cs),
(314,470,o),
(269,446,o),
(234,413,c),
(256,717,l),
(66,692,l),
(16,-4,l),
(49,-24,l)
);
},
{
closed = 1;
nodes = (
(238,109,o),
(225,110,o),
(213,113,c),
(221,219,ls),
(227,297,o),
(245,341,o),
(281,341,cs),
(301,341,o),
(313,330,o),
(313,269,cs),
(313,174,o),
(307,109,o),
(253,109,cs)
);
}
);
userData = {
com.hugojourdan.ColorFlow = {
"0" = 0;
"1" = 0;
"10" = 0;
"11" = 0;
"2" = 0;
"3" = 0;
"4" = 0;
"5" = 0;
"6" = 0;
"7" = 0;
"8" = 0;
"9" = 0;
};
};
width = 519;
}
);
unicode = 98;
userData = {
KernOnName = b;
};
},
{
color = 3;
glyphname = bhook;
lastChange = "2024-02-12 16:48:59 +0000";
layers = (
{
layerId = m001;
shapes = (
{
closed = 1;
nodes = (
(108,15,l),
(153,-4,o),
(171,-9,o),
(208,-9,cs),
(300,-9,o),
(384,130,o),
(384,272,cs),
(384,432,o),
(326,459,o),
(284,459,cs),
(240,459,o),
(180,404,o),
(129,294,c),
(139,473,ls),
(147,610,o),
(178,658,o),
(248,658,cs),
(252,658,o),
(260,658,o),
(267,657,c),
(261,697,l),
(193,697,o),
(106,625,o),
(97,484,cs),
(66,-4,l),
(95,-24,l)
);
},
{
closed = 1;
nodes = (
(186,29,o),
(142,41,o),
(113,50,c),
(121,165,l),
(146,335,o),
(233,414,o),
(269,414,cs),
(307,414,o),
(338,373,o),
(338,269,cs),
(338,101,o),
(276,29,o),
(220,29,cs)
);
}
);
userData = {
com.hugojourdan.ColorFlow = {
"0" = 0;
"1" = 0;
"10" = 0;
"11" = 0;
"2" = 0;
"3" = 0;
"4" = 0;
"5" = 0;
"6" = 0;
"7" = 0;
"8" = 0;
"9" = 0;
};
};
width = 430;
},
{
layerId = "52319A01-0C76-4F01-98F2-7849B20FD9E6";
shapes = (
{
closed = 1;
nodes = (
(119,-1,l),
(152,-10,o),
(192,-17,o),
(224,-17,cs),
(331,-17,o),
(513,53,o),
(513,298,cs),
(513,381,o),
(484,470,o),
(369,470,cs),
(314,470,o),
(269,446,o),
(234,413,c),
(242,491,ls),
(247,544,o),
(285,555,o),
(312,555,cs),
(340,555,o),
(362,554,o),
(376,551,c),
(356,717,l),
(184,717,o),
(61,617,o),
(50,465,cs),
(16,-4,l),
(49,-24,l)
);
},
{
closed = 1;
nodes = (
(238,109,o),
(225,110,o),
(213,113,c),
(221,219,ls),
(227,297,o),
(245,341,o),
(281,341,cs),
(301,341,o),
(313,330,o),
(313,269,cs),
(313,174,o),
(307,109,o),
(253,109,cs)
);
}
);
userData = {
com.hugojourdan.ColorFlow = {
"0" = 0;
"1" = 0;
"10" = 0;
"11" = 0;
"2" = 0;
"3" = 0;
"4" = 0;
"5" = 0;
"6" = 0;
"7" = 0;
"8" = 0;
"9" = 0;
};
};
width = 519;
}
);
metricLeft = b;
metricRight = b;
unicode = 595;
},
{
color = 3;
glyphname = bidentalpercussive;
lastChange = "2024-02-12 16:48:59 +0000";
layers = (
{
layerId = m001;
shapes = (
{
closed = 1;
nodes = (
(124,287,l),
(133,410,l),
(330,410,l),
(321,288,l),
(367,288,l),
(379,451,l),
(88,450,l),
(76,287,l)
);
},
{
closed = 1;
nodes = (
(104,0,l),
(113,123,l),
(310,123,l),
(301,1,l),
(347,1,l),
(359,164,l),
(68,163,l),
(56,0,l)
);
}
);
userData = {
com.hugojourdan.ColorFlow = {
"0" = 0;
"1" = 0;
"10" = 0;
"11" = 0;
"2" = 0;
"3" = 0;
"4" = 0;
"5" = 0;
"6" = 0;
"7" = 0;
"8" = 0;
"9" = 0;
};
};
width = 435;
},
{
layerId = "52319A01-0C76-4F01-98F2-7849B20FD9E6";
shapes = (
{
closed = 1;
nodes = (
(206,237,l),
(212,329,l),
(329,329,l),
(323,238,l),
(467,238,l),
(482,451,l),
(77,450,l),
(62,237,l)
);
},
{
closed = 1;
nodes = (
(188,-1,l),
(195,91,l),
(312,91,l),
(305,0,l),
(449,0,l),
(464,213,l),
(59,212,l),
(44,-1,l)
);
}
);
userData = {
com.hugojourdan.ColorFlow = {
"0" = 0;
"1" = 0;
"10" = 0;
"11" = 0;
"2" = 0;
"3" = 0;
"4" = 0;
"5" = 0;
"6" = 0;
"7" = 0;
"8" = 0;
"9" = 0;
};
};
width = 526;
}
);
unicode = 685;
},
{
color = 3;
glyphname = bilabialclick;
lastChange = "2024-02-12 16:48:59 +0000";
layers = (
{
layerId = m001;
shapes = (
{
ref = O;
},
{
closed = 1;
nodes = (
(298,275,o),
(327,300,o),
(328,316,cs),
(329,333,o),
(300,351,o),
(288,351,cs),
(277,351,o),
(247,325,o),
(246,309,cs),
(245,293,o),
(274,275,o),
(286,275,cs)
);
}
);
userData = {
com.hugojourdan.ColorFlow = {
"0" = 0;
"1" = 0;
"10" = 0;
"11" = 0;
"2" = 0;
"3" = 0;
"4" = 0;
"5" = 0;
"6" = 0;
"7" = 0;
"8" = 0;
"9" = 0;
};
};
width = 555;
},
{
layerId = "52319A01-0C76-4F01-98F2-7849B20FD9E6";
shapes = (
{
ref = O;
},
{
closed = 1;
nodes = (
(343,221,o),
(402,280,o),
(404,311,cs),
(406,344,o),
(346,391,o),
(315,391,cs),
(282,391,o),
(226,332,o),
(224,300,cs),
(222,268,o),
(281,221,o),
(313,221,cs)
);
}
);
userData = {
com.hugojourdan.ColorFlow = {
"0" = 0;
"1" = 0;
"10" = 0;
"11" = 0;
"2" = 0;
"3" = 0;
"4" = 0;
"5" = 0;
"6" = 0;
"7" = 0;
"8" = 0;
"9" = 0;
};
};
width = 628;
}
);
unicode = 664;
},
{
color = 4;
glyphname = c;
kernLeft = KO_a;
kernRight = KO_c;
lastChange = "2023-12-16 23:22:53 +0000";
layers = (
{
anchors = (
{
name = bottom;
pos = (186,0);
},
{
name = top;
pos = (268,500);
}
);
layerId = m001;
shapes = (
{
closed = 1;
nodes = (
(231,-9,o),
(299,51,o),
(323,78,c),
(310,101,l),
(272,67,o),
(232,29,o),
(179,29,cs),
(114,29,o),
(90,84,o),
(90,194,cs),
(90,253,o),
(117,425,o),
(205,425,cs),
(251,425,o),
(275,409,o),
(319,386,c),
(338,425,l),
(327,432,o),
(288,459,o),
(225,459,cs),
(138,459,o),
(43,353,o),
(43,168,cs),
(43,45,o),
(89,-9,o),
(162,-9,cs)
);
}
);
userData = {
com.hugojourdan.ColorFlow = {
"0" = 0;
"1" = 0;
"10" = 0;
"11" = 0;
"2" = 0;
"3" = 0;
"4" = 0;
"5" = 0;
"6" = 0;
"7" = 0;
"8" = 0;
"9" = 0;
};
};
width = 363;
},
{
anchors = (
{
name = bottom;
pos = (193,0);
},
{
name = top;
pos = (137,500);
}
);
layerId = "52319A01-0C76-4F01-98F2-7849B20FD9E6";
shapes = (
{
closed = 1;
nodes = (
(261,-20,o),
(311,-9,o),
(384,43,c),
(324,145,l),
(301,127,o),
(275,123,o),
(261,123,cs),
(245,123,o),
(210,135,o),
(210,194,cs),
(210,303,o),
(228,337,o),
(263,337,cs),
(291,337,o),
(336,309,o),
(343,302,c),
(406,432,l),
(372,458,o),
(294,470,o),
(265,470,cs),
(123,470,o),
(11,375,o),
(11,187,cs),
(11,26,o),
(104,-20,o),
(192,-20,cs)
);
}
);
userData = {
com.hugojourdan.ColorFlow = {
"0" = 0;
"1" = 0;
"10" = 0;
"11" = 0;
"2" = 0;
"3" = 0;
"4" = 0;
"5" = 0;
"6" = 0;
"7" = 0;
"8" = 0;
"9" = 0;
};
};
width = 385;
},
{
anchors = (
{
name = bottom;
pos = (193,0);
},
{
name = top;
pos = (137,500);
}
);
associatedMasterId = "52319A01-0C76-4F01-98F2-7849B20FD9E6";
layerId = "68D9A98D-EAED-42D1-AF53-AAE633F2FA0F";
name = "17 de oct. de 23, 0:09";
shapes = (
{
closed = 1;
nodes = (
(261,-20,o),
(315,-6,o),
(373,33,c),
(333,150,l),
(305,130,o),
(275,123,o),
(256,123,cs),
(245,123,o),
(210,135,o),
(210,194,cs),
(210,345,o),
(256,337,o),
(263,337,cs),
(291,337,o),
(341,308,o),
(345,300,c),
(404,432,l),
(370,458,o),
(294,470,o),
(265,470,cs),
(123,470,o),
(11,375,o),
(11,187,cs),
(11,26,o),
(104,-20,o),
(192,-20,cs)
);
}
);
visible = 1;
width = 385;
},
{
anchors = (
{
name = bottom;
pos = (186,0);
},
{
name = top;
pos = (268,500);
}
);
associatedMasterId = m001;
layerId = "0D2E210A-A1EE-4BB3-B096-87431A42C5DF";
name = "17 de oct. de 23, 0:09";
shapes = (
{
closed = 1;
nodes = (
(231,-9,o),
(300,52,o),
(326,80,c),
(307,99,l),
(273,68,o),
(232,29,o),
(179,29,cs),
(114,29,o),
(90,84,o),
(90,194,cs),
(90,253,o),
(117,425,o),
(205,425,cs),
(251,425,o),
(274,409,o),
(318,386,c),
(338,425,l),
(327,432,o),
(298,459,o),
(225,459,cs),
(138,459,o),
(43,353,o),
(43,168,cs),
(43,45,o),
(89,-9,o),
(162,-9,cs)
);
}
);
visible = 1;
width = 363;
}
);
unicode = 99;
userData = {
KernOnName = c;
};
},
{
color = 3;
glyphname = ccurl;
lastChange = "2024-02-12 16:49:08 +0000";
layers = (
{
layerId = m001;
shapes = (
{
closed = 1;
nodes = (
(114,29,o),
(90,84,o),
(90,194,cs),
(90,253,o),
(117,425,o),
(205,425,cs),
(251,425,o),
(275,409,o),
(319,386,c),
(338,425,l),
(327,432,o),
(288,459,o),
(225,459,cs),
(138,459,o),
(43,353,o),
(43,168,cs),
(43,45,o),
(93,-9,o),
(178,-9,cs),
(250,-9,o),
(315,40,o),
(319,90,cs),
(323,140,o),
(290,165,o),
(244,165,cs),
(178,165,o),
(133,108,o),
(21,-78,c),
(59,-100,l),
(164,69,o),
(189,122,o),
(232,124,cs),
(259,125,o),
(273,108,o),
(273,88,cs),
(273,56,o),
(237,29,o),
(189,29,cs)
);
}
);
userData = {
com.hugojourdan.ColorFlow = {
"0" = 0;
"1" = 0;
"10" = 0;
"11" = 0;
"2" = 0;
"3" = 0;
"4" = 0;
"5" = 0;
"6" = 0;
"7" = 0;
"8" = 0;
"9" = 0;
};
};
width = 363;
},
{
layerId = "52319A01-0C76-4F01-98F2-7849B20FD9E6";
shapes = (
{
closed = 1;
nodes = (
(233,95,o),
(210,135,o),
(210,194,cs),
(210,303,o),
(228,337,o),
(263,337,cs),
(291,337,o),
(336,309,o),
(343,302,c),
(406,432,l),
(372,458,o),
(294,470,o),
(265,470,cs),
(123,470,o),
(11,375,o),
(11,187,cs),
(11,26,o),
(104,-20,o),
(192,-20,cs),
(330,-20,o),
(375,55,o),
(380,118,cs),
(384,177,o),
(349,223,o),
(293,223,cs),
(218,223,o),
(154,161,o),
(57,-87,c),
(144,-117,l),
(229,98,o),
(250,129,o),
(273,129,cs),
(281,129,o),
(286,124,o),
(285,115,cs),
(285,105,o),
(273,95,o),
(258,95,cs)
);
}
);
userData = {
com.hugojourdan.ColorFlow = {
"0" = 0;
"1" = 0;
"10" = 0;
"11" = 0;
"2" = 0;
"3" = 0;
"4" = 0;
"5" = 0;
"6" = 0;
"7" = 0;
"8" = 0;
"9" = 0;
};
};
width = 385;
}
);
unicode = 597;
},
{
color = 3;
glyphname = chook;
lastChange = "2024-02-12 16:49:08 +0000";
layers = (
{
layerId = m001;
shapes = (
{
ref = c;
},
{
closed = 1;
nodes = (
(263,496,o),
(276,462,o),
(299,425,c),
(338,425,l),
(312,470,o),
(304,496,o),
(306,526,cs),
(308,562,o),
(332,576,o),
(350,576,cs),
(372,576,o),
(385,565,o),
(391,562,c),
(404,589,l),
(387,599,o),
(370,609,o),
(340,609,cs),
(297,609,o),
(268,578,o),
(265,536,cs)
);
}
);
userData = {
com.hugojourdan.ColorFlow = {
"0" = 0;
"1" = 0;
"10" = 0;
"11" = 0;
"2" = 0;
"3" = 0;
"4" = 0;
"5" = 0;
"6" = 0;
"7" = 0;
"8" = 0;
"9" = 0;
};
};
width = 363;
},
{
layerId = "52319A01-0C76-4F01-98F2-7849B20FD9E6";
shapes = (
{
ref = c;
},
{
closed = 1;
nodes = (
(264,508,o),
(284,471,o),
(316,432,c),
(406,432,l),
(381,491,o),
(377,504,o),
(379,524,cs),
(380,543,o),
(396,560,o),
(420,560,cs),
(434,560,o),
(449,557,o),
(466,550,c),
(484,634,l),
(467,644,o),
(437,655,o),
(398,655,cs),
(328,655,o),
(271,612,o),
(266,550,cs)
);
}
);
userData = {
com.hugojourdan.ColorFlow = {
"0" = 0;
"1" = 0;
"10" = 0;
"11" = 0;
"2" = 0;
"3" = 0;
"4" = 0;
"5" = 0;
"6" = 0;
"7" = 0;
"8" = 0;
"9" = 0;
};
};
width = 385;
}
);
metricLeft = c;
unicode = 392;
},
{
color = 11;
glyphname = cstretched;
lastChange = "2024-05-17 05:35:01 +0000";
layers = (
{
layerId = "52319A01-0C76-4F01-98F2-7849B20FD9E6";
shapes = (
{
closed = 1;
nodes = (
(314,-241,o),
(362,-225,o),
(410,-205,c),
(372,-74,l),
(340,-81,o),
(306,-87,o),
(280,-83,cs),
(222,-74,o),
(201,-11,o),
(201,98,cs),
(201,220,o),
(234,302,o),
(289,309,cs),
(328,314,o),
(358,301,o),
(389,287,c),
(444,441,l),
(402,455,o),
(355,464,o),
(301,464,cs),
(110,464,o),
(-5,290,o),
(-5,89,cs),
(-5,-95,o),
(99,-241,o),
(252,-241,cs)
);
}
);
userData = {
com.hugojourdan.ColorFlow = {
"0" = 0;
"1" = 0;
"10" = 0;
"11" = 0;
"2" = 0;
"3" = 0;
"4" = 0;
"5" = 0;
"6" = 0;
"7" = 0;
"8" = 0;
"9" = 0;
};
};
width = 442;
},
{
layerId = m001;
shapes = (
{
closed = 1;
nodes = (
(289,-222,o),
(337,-203,o),
(376,-181,c),
(367,-147,l),
(326,-167,o),
(289,-180,o),
(243,-180,cs),
(149,-180,o),
(87,-65,o),
(87,94,cs),
(87,347,o),
(171,417,o),
(252,417,cs),
(326,417,o),
(368,398,o),
(390,382,c),
(406,425,l),
(371,446,o),
(334,456,o),
(280,456,cs),
(100,456,o),
(37,271,o),
(37,79,cs),
(37,-101,o),
(115,-222,o),
(228,-222,cs)
);
}
);
userData = {
com.hugojourdan.ColorFlow = {
"0" = 0;
"1" = 0;
"10" = 0;
"11" = 0;
"2" = 0;
"3" = 0;
"4" = 0;
"5" = 0;
"6" = 0;
"7" = 0;
"8" = 0;
"9" = 0;
};
};
width = 448;
}
);
metricLeft = C;
metricRight = C;
unicode = 663;
},
{
color = 4;
glyphname = d;
kernLeft = KO_a;
kernRight = KO_d;
lastChange = "2023-12-16 23:22:53 +0000";
layers = (
{
anchors = (
{
name = center;
pos = (222,225);
}
);
layerId = m001;
shapes = (
{
closed = 1;
nodes = (
(189,-9,o),
(250,46,o),
(301,160,c),
(308,-9,l),
(336,0,l),
(384,697,l),
(340,687,l),
(321,441,l),
(281,457,o),
(256,459,o),
(220,459,cs),
(128,459,o),
(44,319,o),
(44,177,cs),
(44,17,o),
(102,-9,o),
(144,-9,cs)
);
},
{
closed = 1;
nodes = (
(122,35,o),
(91,76,o),
(91,180,cs),
(91,348,o),
(150,418,o),
(207,418,cs),
(241,418,o),
(289,407,o),
(318,398,c),
(313,319,ls),
(301,128,o),
(198,35,o),
(159,35,cs)
);
}
);
userData = {
com.hugojourdan.ColorFlow = {
"0" = 0;
"1" = 0;
"10" = 0;
"11" = 0;
"2" = 0;
"3" = 0;
"4" = 0;
"5" = 0;
"6" = 0;
"7" = 0;
"8" = 0;
"9" = 0;
};
};
width = 428;
},
{
anchors = (
{
name = center;
pos = (248,225);
}
);
layerId = "52319A01-0C76-4F01-98F2-7849B20FD9E6";
shapes = (
{
closed = 1;
nodes = (
(209,-17,o),
(255,9,o),
(291,44,c),
(293,-20,l),
(475,0,l),
(524,715,l),
(334,690,l),
(317,469,l),
(310,470,o),
(303,470,o),
(297,470,cs),
(190,470,o),
(8,399,o),
(8,155,cs),
(8,72,o),
(36,-17,o),
(151,-17,cs)
);
},
{
closed = 1;
nodes = (
(220,112,o),
(208,123,o),
(208,184,cs),
(208,279,o),
(216,345,o),
(269,345,cs),
(284,345,o),
(296,344,o),
(307,341,c),
(301,241,ls),
(296,151,o),
(268,112,o),
(239,112,cs)
);
}
);
userData = {
com.hugojourdan.ColorFlow = {
"0" = 0;
"1" = 0;
"10" = 0;
"11" = 0;
"2" = 0;
"3" = 0;
"4" = 0;
"5" = 0;
"6" = 0;
"7" = 0;
"8" = 0;
"9" = 0;
};
};
width = 522;
}
);
unicode = 100;
userData = {
KernOnName = d;
};
},
{
color = 4;
glyphname = dcroat;
lastChange = "2023-11-21 16:24:19 +0000";
layers = (
{
layerId = m001;
shapes = (
{
closed = 1;
nodes = (
(454,560,l),
(468,583,l),
(471,598,l),
(262,598,l),
(248,575,l),
(245,560,l)
);
},
{
ref = d;
}
);
userData = {
com.hugojourdan.ColorFlow = {
"0" = 0;
"1" = 0;
"10" = 0;
"11" = 0;
"2" = 0;
"3" = 0;
"4" = 0;
"5" = 0;
"6" = 0;
"7" = 0;
"8" = 0;
"9" = 0;
};
};
width = 431;
},
{
layerId = "52319A01-0C76-4F01-98F2-7849B20FD9E6";
shapes = (
{
closed = 1;
nodes = (
(589,530,l),
(625,605,l),
(625,620,l),
(264,620,l),
(228,545,l),
(229,530,l)
);
},
{
ref = d;
}
);
userData = {
com.hugojourdan.ColorFlow = {
"0" = 0;
"1" = 0;
"10" = 0;
"11" = 0;
"2" = 0;
"3" = 0;
"4" = 0;
"5" = 0;
"6" = 0;
"7" = 0;
"8" = 0;
"9" = 0;
};
};
width = 519;
}
);
unicode = 273;
},
{
color = 3;
glyphname = dhook;
lastChange = "2024-02-12 16:49:08 +0000";
layers = (
{
layerId = m001;
shapes = (
{
closed = 1;
nodes = (
(189,-9,o),
(250,46,o),
(301,160,c),
(308,-9,l),
(336,0,l),
(368,473,ls),
(377,610,o),
(407,658,o),
(477,658,cs),
(481,658,o),
(489,658,o),
(496,657,c),
(490,697,l),
(422,697,o),
(338,625,o),
(325,484,cs),
(321,441,l),
(281,457,o),
(256,459,o),
(220,459,cs),
(128,459,o),
(44,319,o),
(44,177,cs),
(44,17,o),
(102,-9,o),
(144,-9,cs)
);
},
{
closed = 1;
nodes = (
(122,35,o),
(91,76,o),
(91,180,cs),
(91,348,o),
(150,418,o),
(207,418,cs),
(241,418,o),
(289,407,o),
(318,398,c),
(313,319,ls),
(301,128,o),
(198,35,o),
(159,35,cs)
);
}
);
userData = {
com.hugojourdan.ColorFlow = {
"0" = 0;
"1" = 0;
"10" = 0;
"11" = 0;
"2" = 0;
"3" = 0;
"4" = 0;
"5" = 0;
"6" = 0;
"7" = 0;
"8" = 0;
"9" = 0;
};
};
width = 428;
},
{
layerId = "52319A01-0C76-4F01-98F2-7849B20FD9E6";
shapes = (
{
closed = 1;
nodes = (
(209,-17,o),
(255,9,o),
(291,44,c),
(293,-20,l),
(475,0,l),
(508,491,ls),
(512,544,o),
(551,555,o),
(578,555,cs),
(600,555,o),
(622,554,o),
(642,551,c),
(622,717,l),
(450,717,o),
(341,625,o),
(319,482,cs),
(317,469,l),
(310,470,o),
(303,470,o),
(297,470,cs),
(190,470,o),
(8,399,o),
(8,155,cs),
(8,72,o),
(36,-17,o),
(151,-17,cs)
);
},
{
closed = 1;
nodes = (
(220,112,o),
(208,123,o),
(208,184,cs),
(208,279,o),
(216,345,o),
(269,345,cs),
(284,345,o),
(296,344,o),
(307,341,c),
(300,234,ls),
(295,151,o),
(268,112,o),
(239,112,cs)
);
}
);
userData = {
com.hugojourdan.ColorFlow = {
"0" = 0;
"1" = 0;
"10" = 0;
"11" = 0;
"2" = 0;
"3" = 0;
"4" = 0;
"5" = 0;
"6" = 0;
"7" = 0;
"8" = 0;
"9" = 0;
};
};
width = 522;
}
);
unicode = 599;
},
{
color = 3;
glyphname = dtail;
kernLeft = KO_a;
lastChange = "2024-02-12 16:49:08 +0000";
layers = (
{
anchors = (
{
name = center;
pos = (222,225);
}
);
layerId = m001;
shapes = (
{
closed = 1;
nodes = (
(472,-184,l),
(438,-181,o),
(389,-169,o),
(361,-133,cs),
(335,-101,o),
(332,-57,o),
(336,0,cs),
(384,697,l),
(340,687,l),
(321,441,l),
(281,457,o),
(256,459,o),
(220,459,cs),
(128,459,o),
(44,319,o),
(44,177,cs),
(44,17,o),
(102,-9,o),
(144,-9,cs),
(189,-9,o),
(250,46,o),
(301,160,c),
(291,11,ls),
(285,-76,o),
(291,-94,o),
(310,-129,cs),
(342,-186,o),
(400,-217,o),
(458,-221,c)
);
},
{
closed = 1;
nodes = (
(122,35,o),
(91,76,o),
(91,180,cs),
(91,348,o),
(150,418,o),
(207,418,cs),
(241,418,o),
(289,407,o),
(318,398,c),
(313,319,ls),
(301,128,o),
(198,35,o),
(159,35,cs)
);
}
);
userData = {
com.hugojourdan.ColorFlow = {
"0" = 0;
"1" = 0;
"10" = 0;
"11" = 0;
"2" = 0;
"3" = 0;
"4" = 0;
"5" = 0;
"6" = 0;
"7" = 0;
"8" = 0;
"9" = 0;
};
};
width = 428;
},
{
anchors = (
{
name = center;
pos = (248,225);
}
);
layerId = "52319A01-0C76-4F01-98F2-7849B20FD9E6";
shapes = (
{
closed = 1;
nodes = (
(550,-93,l),
(521,-88,o),
(507,-79,o),
(495,-64,cs),
(479,-46,o),
(473,-29,o),
(475,6,cs),
(524,715,l),
(334,690,l),
(317,469,l),
(310,470,o),
(303,470,o),
(297,470,cs),
(190,470,o),
(8,399,o),
(8,155,cs),
(8,72,o),
(36,-17,o),
(151,-17,cs),
(209,-17,o),
(255,9,o),
(291,44,c),
(288,0,ls),
(284,-59,o),
(296,-128,o),
(343,-170,cs),
(387,-211,o),
(443,-232,o),
(494,-237,c)
);
},
{
closed = 1;
nodes = (
(220,112,o),
(208,123,o),
(208,184,cs),
(208,279,o),
(216,345,o),
(269,345,cs),
(284,345,o),
(296,344,o),
(307,341,c),
(301,241,ls),
(296,151,o),
(268,112,o),
(239,112,cs)
);
}
);
userData = {
com.hugojourdan.ColorFlow = {
"0" = 0;
"1" = 0;
"10" = 0;
"11" = 0;
"2" = 0;
"3" = 0;
"4" = 0;
"5" = 0;
"6" = 0;
"7" = 0;
"8" = 0;
"9" = 0;
};
};
width = 522;
}
);
metricLeft = d;
unicode = 598;
},
{
color = 3;
glyphname = dzaltone;
kernLeft = KO_a;
lastChange = "2024-02-12 16:49:08 +0000";
layers = (
{
layerId = m001;
shapes = (
{
ref = d;
},
{
closed = 1;
nodes = (
(679,0,l),
(688,41,l),
(446,37,l),
(687,401,l),
(693,450,l),
(344,450,l),
(338,412,l),
(645,414,l),
(403,46,l),
(399,0,l)
);
}
);
userData = {
com.hugojourdan.ColorFlow = {
"0" = 0;
"1" = 0;
"10" = 0;
"11" = 0;
"2" = 0;
"3" = 0;
"4" = 0;
"5" = 0;
"6" = 0;
"7" = 0;
"8" = 0;
"9" = 0;
};
};
width = 723;
},
{
layerId = "52319A01-0C76-4F01-98F2-7849B20FD9E6";
shapes = (
{
ref = d;
},
{
closed = 1;
nodes = (
(881,0,l),
(914,148,l),
(761,140,l),
(939,375,l),
(941,450,l),
(447,450,l),
(425,303,l),
(681,312,l),
(505,76,l),
(501,0,l)
);
}
);
userData = {
com.hugojourdan.ColorFlow = {
"0" = 0;
"1" = 0;
"10" = 0;
"11" = 0;
"2" = 0;
"3" = 0;
"4" = 0;
"5" = 0;
"6" = 0;
"7" = 0;
"8" = 0;
"9" = 0;
};
};
width = 931;
}
);
metricLeft = d;
metricRight = z;
unicode = 675;
},
{
color = 3;
glyphname = dzcurl;
lastChange = "2024-02-12 16:49:08 +0000";
layers = (
{
layerId = m001;
shapes = (
{
ref = d;
},
{
closed = 1;
nodes = (
(557,78,o),
(592,131,o),
(635,133,cs),
(662,134,o),
(676,117,o),
(676,97,cs),
(676,65,o),
(638,40,o),
(577,39,cs),
(436,37,l),
(677,401,l),
(683,450,l),
(342,450,l),
(336,412,l),
(635,414,l),
(393,46,l),
(389,0,l),
(569,0,ls),
(653,0,o),
(718,36,o),
(722,99,cs),
(726,149,o),
(693,174,o),
(647,174,cs),
(581,174,o),
(535,125,o),
(414,-69,c),
(452,-91,l)
);
}
);
userData = {
com.hugojourdan.ColorFlow = {
"0" = 0;
"1" = 0;
"10" = 0;
"11" = 0;
"2" = 0;
"3" = 0;
"4" = 0;
"5" = 0;
"6" = 0;
"7" = 0;
"8" = 0;
"9" = 0;
};
};
width = 731;
},
{
layerId = "52319A01-0C76-4F01-98F2-7849B20FD9E6";
shapes = (
{
ref = d;
},
{
closed = 1;
nodes = (
(863,118,o),
(882,149,o),
(905,149,cs),
(913,149,o),
(918,144,o),
(918,135,cs),
(918,125,o),
(903,115,o),
(882,115,cs),
(752,115,l),
(949,375,l),
(951,450,l),
(417,450,l),
(395,303,l),
(691,312,l),
(515,76,l),
(511,0,l),
(834,0,ls),
(972,0,o),
(1012,75,o),
(1012,138,cs),
(1012,197,o),
(974,243,o),
(918,243,cs),
(843,243,o),
(783,181,o),
(704,-67,c),
(793,-97,l)
);
}
);
userData = {
com.hugojourdan.ColorFlow = {
"0" = 0;
"1" = 0;
"10" = 0;
"11" = 0;
"2" = 0;
"3" = 0;
"4" = 0;
"5" = 0;
"6" = 0;
"7" = 0;
"8" = 0;
"9" = 0;
};
};
width = 1018;
}
);
metricLeft = d;
metricRight = zcurl;
unicode = 677;
},
{
color = 4;
glyphname = eth;
lastChange = "2023-12-16 03:40:41 +0000";
layers = (
{
layerId = m001;
shapes = (
{
closed = 1;
nodes = (
(228,-9,o),
(363,112,o),
(363,334,cs),
(363,463,o),
(328,541,o),
(270,610,c),
(365,655,l),
(342,681,l),
(247,636,l),
(226,657,o),
(200,679,o),
(171,701,c),
(140,677,l),
(170,659,o),
(195,640,o),
(215,620,c),
(119,574,l),
(142,549,l),
(239,595,l),
(278,549,o),
(299,498,o),
(308,438,c),
(281,452,o),
(261,459,o),
(232,459,cs),
(142,459,o),
(45,340,o),
(44,175,cs),
(44,49,o),
(93,-9,o),
(156,-9,cs)
);
},
{
closed = 1;
nodes = (
(123,33,o),
(93,85,o),
(93,196,cs),
(93,359,o),
(151,417,o),
(215,417,cs),
(250,417,o),
(284,407,o),
(312,399,c),
(314,376,o),
(314,352,o),
(314,326,cs),
(314,137,o),
(221,33,o),
(172,34,cs)
);
}
);
userData = {
com.hugojourdan.ColorFlow = {
"0" = 0;
"1" = 0;
"10" = 0;
"11" = 0;
"2" = 0;
"3" = 0;
"4" = 0;
"5" = 0;
"6" = 0;
"7" = 0;
"8" = 0;
"9" = 0;
};
};
width = 405;
},
{
layerId = "52319A01-0C76-4F01-98F2-7849B20FD9E6";
shapes = (
{
closed = 1;
nodes = (
(330,-20,o),
(495,116,o),
(495,330,cs),
(495,402,o),
(470,523,o),
(358,614,c),
(434,662,l),
(374,732,l),
(273,668,l),
(231,688,o),
(182,705,o),
(124,716,c),
(56,637,l),
(93,623,o),
(124,607,o),
(151,590,c),
(57,531,l),
(120,461,l),
(225,528,l),
(241,510,o),
(254,490,o),
(264,470,c),
(221,467,o),
(175,451,o),
(133,422,cs),
(62,372,o),
(6,284,o),
(8,160,cs),
(8,42,o),
(86,-20,o),
(181,-20,cs)
);
},
{
closed = 1;
nodes = (
(217,117,o),
(202,117,o),
(202,170,cs),
(202,293,o),
(228,348,o),
(270,348,cs),
(280,348,o),
(289,348,o),
(296,347,c),
(298,330,o),
(299,313,o),
(299,296,cs),
(299,180,o),
(268,117,o),
(238,114,c)
);
}
);
userData = {
com.hugojourdan.ColorFlow = {
"0" = 0;
"1" = 0;
"10" = 0;
"11" = 0;
"2" = 0;
"3" = 0;
"4" = 0;
"5" = 0;
"6" = 0;
"7" = 0;
"8" = 0;
"9" = 0;
};
};
width = 499;
}
);
metricRight = o;
unicode = 240;
},
{
color = 4;
glyphname = e;
kernLeft = KO_e;
kernRight = KO_e;
lastChange = "2023-12-16 23:22:53 +0000";
layers = (
{
anchors = (
{
name = bottom;
pos = (175,0);
},
{
name = ogonek;
pos = (309,19);
},
{
name = top;
pos = (206,500);
}
);
layerId = m001;
shapes = (
{
closed = 1;
nodes = (
(212,-9,o),
(274,35,o),
(308,73,c),
(293,99,l),
(256,64,o),
(218,31,o),
(168,31,cs),
(98,31,o),
(86,145,o),
(92,217,c),
(190,218,o),
(314,267,o),
(314,367,cs),
(314,412,o),
(282,459,o),
(222,459,cs),
(122,459,o),
(44,338,o),
(44,161,cs),
(44,50,o),
(90,-9,o),
(164,-9,cs)
);
},
{
closed = 1;
nodes = (
(108,402,o),
(168,423,o),
(207,423,cs),
(242,423,o),
(267,397,o),
(267,359,cs),
(267,300,o),
(199,249,o),
(94,248,c)
);
}
);
userData = {
com.hugojourdan.ColorFlow = {
"0" = 0;
"1" = 0;
"10" = 0;
"11" = 0;
"2" = 0;
"3" = 0;
"4" = 0;
"5" = 0;
"6" = 0;
"7" = 0;
"8" = 0;
"9" = 0;
};
};
width = 340;
},
{
anchors = (
{
name = bottom;
pos = (215,0);
},
{
name = ogonek;
pos = (401,-17);
},
{
name = top;
pos = (261,500);
}
);
layerId = "52319A01-0C76-4F01-98F2-7849B20FD9E6";
shapes = (
{
closed = 1;
nodes = (
(304,-18,o),
(369,16,o),
(427,56,c),
(370,153,l),
(329,122,o),
(287,116,o),
(273,116,cs),
(249,116,o),
(226,124,o),
(215,162,c),
(343,183,o),
(434,254,o),
(434,341,cs),
(434,416,o),
(376,470,o),
(273,470,cs),
(165,470,o),
(14,407,o),
(14,184,cs),
(14,45,o),
(94,-18,o),
(211,-18,cs)
);
},
{
closed = 1;
nodes = (
(210,340,o),
(223,354,o),
(243,354,cs),
(256,354,o),
(263,339,o),
(263,324,cs),
(263,289,o),
(242,268,o),
(207,258,c)
);
}
);
userData = {
com.hugojourdan.ColorFlow = {
"0" = 0;
"1" = 0;
"10" = 0;
"11" = 0;
"2" = 0;
"3" = 0;
"4" = 0;
"5" = 0;
"6" = 0;
"7" = 0;
"8" = 0;
"9" = 0;
};
};
width = 442;
}
);
unicode = 101;
userData = {
KernOnName = e;
};
},
{
color = 11;
glyphname = eopenclosed;
lastChange = "2024-05-17 05:35:01 +0000";
layers = (
{
layerId = "52319A01-0C76-4F01-98F2-7849B20FD9E6";
shapes = (
{
closed = 1;
nodes = (
(354,-20,o),
(460,51,o),
(481,195,cs),
(500,333,o),
(430,470,o),
(250,470,cs),
(130,470,o),
(35,411,o),
(35,325,cs),
(35,265,o),
(60,243,o),
(93,228,c),
(47,213,o),
(5,178,o),
(3,118,cs),
(0,32,o),
(91,-20,o),
(217,-20,cs)
);
},
{
closed = 1;
nodes = (
(213,119,o),
(186,126,o),
(186,144,cs),
(186,161,o),
(205,169,o),
(234,172,cs),
(252,174,o),
(257,174,o),
(268,174,c),
(280,275,l),
(222,276,o),
(208,286,o),
(208,306,cs),
(208,320,o),
(218,328,o),
(245,328,cs),
(284,328,o),
(303,306,o),
(293,236,cs),
(280,144,o),
(266,119,o),
(232,119,cs)
);
}
);
userData = {
com.hugojourdan.ColorFlow = {
"0" = 0;
"1" = 0;
"10" = 0;
"11" = 0;
"2" = 0;
"3" = 0;
"4" = 0;
"5" = 0;
"6" = 0;
"7" = 0;
"8" = 0;
"9" = 0;
};
};
width = 485;
},
{
layerId = m001;
shapes = (
{
closed = 1;
nodes = (
(298,-9,o),
(362,73,o),
(374,176,cs),
(389,303,o),
(378,459,o),
(224,459,cs),
(124,459,o),
(58,409,o),
(59,329,cs),
(60,273,o),
(104,242,o),
(144,232,c),
(84,226,o),
(41,184,o),
(40,115,cs),
(39,35,o),
(114,-9,o),
(177,-9,cs)
);
},
{
closed = 1;
nodes = (
(139,35,o),
(96,58,o),
(91,119,cs),
(87,179,o),
(115,216,o),
(207,216,cs),
(224,216,o),
(230,216,o),
(244,214,c),
(250,247,l),
(156,248,o),
(101,284,o),
(99,328,cs),
(96,392,o),
(133,425,o),
(196,425,cs),
(327,425,o),
(339,292,o),
(327,184,cs),
(312,53,o),
(263,35,o),
(197,35,cs)
);
}
);
userData = {
com.hugojourdan.ColorFlow = {
"0" = 0;
"1" = 0;
"10" = 0;
"11" = 0;
"2" = 0;
"3" = 0;
"4" = 0;
"5" = 0;
"6" = 0;
"7" = 0;
"8" = 0;
"9" = 0;
};
};
width = 430;
}
);
metricLeft = eopenreversedclosed;
metricRight = eopenreversedclosed;
unicode = 666;
},
{
color = 3;
glyphname = eopenreversed;
lastChange = "2025-03-03 15:31:03 +0000";
layers = (
{
anchors = (
{
name = top;
pos = (127,500);
}
);
layerId = m001;
shapes = (
{
closed = 1;
nodes = (
(222,-11,o),
(283,35,o),
(299,115,cs),
(313,175,o),
(271,230,o),
(212,236,c),
(254,246,o),
(298,269,o),
(310,328,cs),
(328,409,o),
(246,459,o),
(178,459,cs),
(131,459,o),
(82,438,o),
(60,425,c),
(71,387,l),
(91,396,o),
(139,424,o),
(190,424,cs),
(261,424,o),
(277,387,o),
(267,337,cs),
(256,281,o),
(202,248,o),
(108,247,c),
(109,214,l),
(123,216,o),
(129,216,o),
(146,216,cs),
(238,216,o),
(261,179,o),
(249,119,cs),
(235,58,o),
(188,25,o),
(134,25,cs),
(88,25,o),
(62,39,o),
(28,62,c),
(14,35,l),
(37,19,o),
(65,-11,o),
(143,-11,cs)
);
}
);
userData = {
com.hugojourdan.ColorFlow = {
"0" = 0;
"1" = 0;
"10" = 0;
"11" = 0;
"2" = 0;
"3" = 0;
"4" = 0;
"5" = 0;
"6" = 0;
"7" = 0;
"8" = 0;
"9" = 0;
};
};
width = 360;
},
{
anchors = (
{
name = top;
pos = (40.073,500);
}
);
layerId = "52319A01-0C76-4F01-98F2-7849B20FD9E6";
shapes = (
{
closed = 1;
nodes = (
(236,-20,o),
(342,18,o),
(356,118,cs),
(364,178,o),
(326,221,o),
(282,236,c),
(317,251,o),
(347,285,o),
(353,325,cs),
(365,411,o),
(286,470,o),
(174,470,cs),
(91,470,o),
(23,449,o),
(-12,433,c),
(38,297,l),
(58,313,o),
(91,328,o),
(138,328,cs),
(162,328,o),
(179,320,o),
(177,306,cs),
(174,286,o),
(124,276,o),
(51,275,c),
(49,174,l),
(60,174,o),
(115,174,o),
(132,172,cs),
(161,169,o),
(179,161,o),
(176,144,cs),
(174,126,o),
(160,119,o),
(119,119,cs),
(73,119,o),
(48,131,o),
(35,139,c),
(-40,37,l),
(-16,22,o),
(37,-20,o),
(152,-20,cs)
);
}
);
userData = {
com.hugojourdan.ColorFlow = {
"0" = 0;
"1" = 0;
"10" = 0;
"11" = 0;
"2" = 0;
"3" = 0;
"4" = 0;
"5" = 0;
"6" = 0;
"7" = 0;
"8" = 0;
"9" = 0;
};
};
width = 365;
},
{
associatedMasterId = "52319A01-0C76-4F01-98F2-7849B20FD9E6";
layerId = "68AF751A-A1DE-4E72-971B-2B214B2F874D";
name = "17 de oct. de 23, 11:25";
shapes = (
{
alignment = -1;
ref = epsilon;
}
);
width = 365;
},
{
associatedMasterId = m001;
layerId = "80DF24A8-27C5-4191-913D-48D9F965415C";
name = "14 de dic. de 23, 9:59";
shapes = (
{
closed = 1;
nodes = (
(281,-18,o),
(376,30,o),
(382,118,cs),
(389,189,o),
(342,225,o),
(285,240,c),
(352,254,o),
(392,292,o),
(394,346,cs),
(397,426,o),
(328,468,o),
(232,468,cs),
(163,468,o),
(87,452,o),
(52,437,c),
(62,326,l),
(103,326,l),
(148,417,l),
(155,420,o),
(171,423,o),
(186,423,cs),
(218,423,o),
(234,393,o),
(232,364,cs),
(228,296,o),
(183,274,o),
(154,274,cs),
(129,274,o),
(121,278,o),
(108,282,c),
(100,190,l),
(126,190,l),
(133,205,o),
(147,213,o),
(172,212,cs),
(205,210,o),
(233,175,o),
(230,127,cs),
(227,49,o),
(191,16,o),
(106,33,c),
(61,124,l),
(20,124,l),
(10,13,l),
(45,-2,o),
(111,-18,o),
(180,-18,cs)
);
}
);
width = 418;
}
);
unicode = 604;
},
{
color = 1;
glyphname = eopenreversedclosed;
lastChange = "2024-04-15 22:13:59 +0000";
layers = (
{
layerId = m001;
shapes = (
{
closed = 1;
nodes = (
(290,-9,o),
(362,50,o),
(370,115,cs),
(378,184,o),
(342,230,o),
(283,236,c),
(325,246,o),
(373,278,o),
(382,334,cs),
(394,410,o),
(342,459,o),
(259,459,cs),
(105,459,o),
(45,303,o),
(45,176,cs),
(45,60,o),
(102,-9,o),
(205,-9,cs)
);
},
{
closed = 1;
nodes = (
(135,25,o),
(93,86,o),
(93,184,cs),
(93,292,o),
(117,425,o),
(241,425,cs),
(314,425,o),
(348,387,o),
(338,337,cs),
(327,281,o),
(273,248,o),
(179,247,c),
(180,214,l),
(194,216,o),
(200,216,o),
(217,216,cs),
(309,216,o),
(332,179,o),
(320,119,cs),
(306,58,o),
(259,25,o),
(205,25,cs)
);
}
);
userData = {
com.hugojourdan.ColorFlow = {
"0" = 0;
"1" = 0;
"10" = 0;
"11" = 0;
"2" = 0;
"3" = 0;
"4" = 0;
"5" = 0;
"6" = 0;
"7" = 0;
"8" = 0;
"9" = 0;
};
};
width = 430;
},
{
layerId = "52319A01-0C76-4F01-98F2-7849B20FD9E6";
shapes = (
{
closed = 1;
nodes = (
(368,-20,o),
(467,32,o),
(476,118,cs),
(482,178,o),
(446,221,o),
(402,236,c),
(437,251,o),
(467,285,o),
(473,325,cs),
(485,411,o),
(398,470,o),
(278,470,cs),
(98,470,o),
(9,333,o),
(9,195,cs),
(9,51,o),
(105,-20,o),
(242,-20,cs)
);
},
{
closed = 1;
nodes = (
(225,119,o),
(202,144,o),
(202,236,cs),
(202,306,o),
(216,328,o),
(255,328,cs),
(282,328,o),
(299,320,o),
(297,306,cs),
(294,286,o),
(264,276,o),
(221,275,c),
(219,174,l),
(230,174,o),
(235,174,o),
(252,172,cs),
(281,169,o),
(299,161,o),
(296,144,cs),
(294,126,o),
(278,119,o),
(259,119,cs)
);
}
);
userData = {
com.hugojourdan.ColorFlow = {
"0" = 0;
"1" = 0;
"10" = 0;
"11" = 0;
"2" = 0;
"3" = 0;
"4" = 0;
"5" = 0;
"6" = 0;
"7" = 0;
"8" = 0;
"9" = 0;
};
};
width = 485;
}
);
metricLeft = o;
metricRight = eopenreversed;
unicode = 606;
},
{
color = 3;
glyphname = eopenreversedhook;
lastChange = "2024-02-12 16:49:31 +0000";
layers = (
{
layerId = m001;
shapes = (
{
closed = 1;
nodes = (
(411,357,l),
(400,391,l),
(290,359,l),
(299,326,l)
);
},
{
ref = eopenreversed;
},
{
closed = 1;
nodes = (
(321,204,o),
(345,173,o),
(388,173,cs),
(418,173,o),
(436,183,o),
(455,193,c),
(446,220,l),
(439,217,o),
(425,206,o),
(403,206,cs),
(385,206,o),
(363,220,o),
(365,256,cs),
(367,286,o),
(379,312,o),
(411,357,c),
(372,357,l),
(345,320,o),
(326,286,o),
(323,246,cs)
);
}
);
userData = {
com.hugojourdan.ColorFlow = {
"0" = 0;
"1" = 0;
"10" = 0;
"11" = 0;
"2" = 0;
"3" = 0;
"4" = 0;
"5" = 0;
"6" = 0;
"7" = 0;
"8" = 0;
"9" = 0;
};
};
width = 457;
},
{
layerId = "52319A01-0C76-4F01-98F2-7849B20FD9E6";
shapes = (
{
closed = 1;
nodes = (
(528,346,l),
(509,452,l),
(268,390,l),
(285,285,l)
);
},
{
ref = eopenreversed;
},
{
closed = 1;
nodes = (
(368,166,o),
(418,123,o),
(488,123,cs),
(527,123,o),
(559,134,o),
(578,144,c),
(572,228,l),
(553,221,o),
(538,218,o),
(524,218,cs),
(500,218,o),
(486,235,o),
(488,254,cs),
(489,274,o),
(495,287,o),
(528,346,c),
(438,346,l),
(400,307,o),
(375,270,o),
(372,228,cs)
);
}
);
userData = {
com.hugojourdan.ColorFlow = {
"0" = 0;
"1" = 0;
"10" = 0;
"11" = 0;
"2" = 0;
"3" = 0;
"4" = 0;
"5" = 0;
"6" = 0;
"7" = 0;
"8" = 0;
"9" = 0;
};
};
width = 584;
},
{
associatedMasterId = m001;
layerId = "77CA8AC9-9381-4DA6-A08D-CD03461C9E23";
name = "14 de dic. de 23, 15:52";
shapes = (
{
closed = 1;
nodes = (
(361,342,l),
(337,312,o),
(339,283,o),
(346,265,cs),
(356,234,o),
(402,203,o),
(462,236,c),
(442,268,l),
(408,253,o),
(381,263,o),
(376,284,cs),
(372,301,o),
(380,330,o),
(411,357,c),
(397,391,l),
(290,359,l),
(301,326,l)
);
},
{
ref = eopenreversed;
},
{
closed = 1;
nodes = (
(518,244,o),
(545,213,o),
(588,213,cs),
(618,213,o),
(635,223,o),
(653,233,c),
(642,260,l),
(636,257,o),
(622,246,o),
(600,246,cs),
(582,246,o),
(559,260,o),
(559,296,cs),
(559,326,o),
(569,352,o),
(598,397,c),
(559,397,l),
(534,360,o),
(518,326,o),
(518,286,cs)
);
}
);
userData = {
com.hugojourdan.ColorFlow = {
"0" = 0;
"1" = 0;
"10" = 0;
"11" = 0;
"2" = 0;
"3" = 0;
"4" = 0;
"5" = 0;
"6" = 0;
"7" = 0;
"8" = 0;
"9" = 0;
};
};
width = 462;
}
);
metricLeft = eopenreversed;
unicode = 605;
},
{
color = 3;
glyphname = ereversed;
lastChange = "2024-02-12 16:49:31 +0000";
layers = (
{
layerId = m001;
shapes = (
{
closed = 1;
nodes = (
(204,-9,o),
(287,83,o),
(300,216,cs),
(312,339,o),
(277,459,o),
(166,459,cs),
(106,459,o),
(57,412,o),
(50,359,cs),
(37,267,o),
(154,218,o),
(252,217,c),
(246,114,o),
(193,25,o),
(130,25,cs),
(88,25,o),
(71,52,o),
(46,103,c),
(10,72,l),
(37,24,o),
(70,-9,o),
(124,-9,cs)
);
},
{
closed = 1;
nodes = (
(149,249,o),
(88,300,o),
(98,367,cs),
(102,397,o),
(119,423,o),
(146,423,cs),
(185,423,o),
(262,402,o),
(254,248,c)
);
}
);
userData = {
com.hugojourdan.ColorFlow = {
"0" = 0;
"1" = 0;
"10" = 0;
"11" = 0;
"2" = 0;
"3" = 0;
"4" = 0;
"5" = 0;
"6" = 0;
"7" = 0;
"8" = 0;
"9" = 0;
};
};
width = 349;
},
{
layerId = "52319A01-0C76-4F01-98F2-7849B20FD9E6";
shapes = (
{
closed = 1;
nodes = (
(284,-18,o),
(403,45,o),
(427,220,cs),
(453,407,o),
(343,470,o),
(241,470,cs),
(132,470,o),
(30,409,o),
(21,320,cs),
(14,254,o),
(55,192,o),
(218,162,c),
(202,124,o),
(178,116,o),
(154,116,cs),
(140,116,o),
(98,122,o),
(62,153,c),
(-9,56,l),
(33,16,o),
(89,-18,o),
(167,-18,cs)
);
},
{
closed = 1;
nodes = (
(206,268,o),
(189,301,o),
(193,334,cs),
(194,345,o),
(199,354,o),
(211,354,cs),
(227,354,o),
(248,340,o),
(239,258,c)
);
}
);
userData = {
com.hugojourdan.ColorFlow = {
"0" = 0;
"1" = 0;
"10" = 0;
"11" = 0;
"2" = 0;
"3" = 0;
"4" = 0;
"5" = 0;
"6" = 0;
"7" = 0;
"8" = 0;
"9" = 0;
};
};
width = 438;
},
{
associatedMasterId = "52319A01-0C76-4F01-98F2-7849B20FD9E6";
layerId = "CFA64164-CB17-462C-AED9-F98955023669";
name = "15 de dic. de 23, 21:05";
shapes = (
{
closed = 1;
nodes = (
(314,-18,o),
(403,45,o),
(422,184,cs),
(453,407,o),
(311,470,o),
(203,470,cs),
(100,470,o),
(35,416,o),
(24,341,cs),
(12,254,o),
(93,183,o),
(218,162,c),
(202,124,o),
(178,116,o),
(154,116,cs),
(140,116,o),
(98,122,o),
(62,153,c),
(-9,56,l),
(44,16,o),
(104,-18,o),
(197,-18,cs)
);
},
{
closed = 1;
nodes = (
(206,268,o),
(188,289,o),
(193,324,cs),
(195,339,o),
(204,354,o),
(217,354,cs),
(237,354,o),
(248,340,o),
(239,258,c)
);
}
);
userData = {
com.hugojourdan.ColorFlow = {
"0" = 0;
"1" = 0;
"10" = 0;
"11" = 0;
"2" = 0;
"3" = 0;
"4" = 0;
"5" = 0;
"6" = 0;
"7" = 0;
"8" = 0;
"9" = 0;
};
};
width = 436;
},
{
associatedMasterId = m001;
layerId = "8DFAF002-F5CD-4A06-9DDE-7154EAE5F25F";
name = "15 de dic. de 23, 21:07";
shapes = (
{
closed = 1;
nodes = (
(237,-9,o),
(297,147,o),
(297,274,cs),
(297,390,o),
(240,459,o),
(163,459,cs),
(23,459,o),
(-37,303,o),
(-37,176,cs),
(-37,60,o),
(16,-9,o),
(97,-9,cs)
);
},
{
closed = 1;
nodes = (
(51,25,o),
(11,86,o),
(11,184,cs),
(11,265,o),
(35,425,o),
(140,425,cs),
(215,425,o),
(250,356,o),
(250,266,cs),
(250,181,o),
(225,25,o),
(121,25,cs)
);
}
);
userData = {
com.hugojourdan.ColorFlow = {
"0" = 0;
"1" = 0;
"10" = 0;
"11" = 0;
"2" = 0;
"3" = 0;
"4" = 0;
"5" = 0;
"6" = 0;
"7" = 0;
"8" = 0;
"9" = 0;
};
};
visible = 1;
width = 340;
}
);
metricRight = o;
unicode = 600;
},
{
color = 11;
glyphname = eshcurl;
lastChange = "2024-05-17 05:35:04 +0000";
layers = (
{
layerId = "52319A01-0C76-4F01-98F2-7849B20FD9E6";
shapes = (
{
closed = 1;
nodes = (
(285,-243,o),
(399,-174,o),
(410,-15,c),
(427,510,ls),
(428,541,o),
(461,570,o),
(505,567,c),
(483,717,l),
(307,717,o),
(235,611,o),
(231,491,cs),
(214,-7,l),
(205,-125,o),
(194,-135,o),
(174,-135,cs),
(165,-135,o),
(160,-130,o),
(161,-121,cs),
(162,-111,o),
(171,-101,o),
(197,-101,cs),
(249,-101,o),
(381,-102,o),
(465,-113,c),
(471,-19,l),
(393,-8,o),
(297,-4,o),
(211,-4,cs),
(115,-4,o),
(71,-72,o),
(67,-130,cs),
(62,-201,o),
(113,-243,o),
(186,-243,cs)
);
}
);
userData = {
com.hugojourdan.ColorFlow = {
"0" = 0;
"1" = 0;
"10" = 0;
"11" = 0;
"2" = 0;
"3" = 0;
"4" = 0;
"5" = 0;
"6" = 0;
"7" = 0;
"8" = 0;
"9" = 0;
};
};
width = 481;
},
{
layerId = m001;
shapes = (
{
closed = 1;
nodes = (
(151,-225,o),
(239,-167,o),
(244,-9,cs),
(261,489,ls),
(266,623,o),
(316,645,o),
(400,664,c),
(392,698,l),
(299,698,o),
(217,602,o),
(213,482,cs),
(196,-16,ls),
(191,-160,o),
(132,-183,o),
(101,-184,cs),
(77,-185,o),
(64,-168,o),
(65,-148,cs),
(66,-116,o),
(91,-91,o),
(156,-91,cs),
(201,-91,o),
(252,-98,o),
(301,-106,c),
(304,-64,l),
(247,-55,o),
(205,-51,o),
(163,-51,cs),
(86,-51,o),
(26,-87,o),
(22,-150,cs),
(19,-194,o),
(54,-225,o),
(96,-225,cs)
);
}
);
userData = {
com.hugojourdan.ColorFlow = {
"0" = 0;
"1" = 0;
"10" = 0;
"11" = 0;
"2" = 0;
"3" = 0;
"4" = 0;
"5" = 0;
"6" = 0;
"7" = 0;
"8" = 0;
"9" = 0;
};
};
width = 369;
}
);
unicode = 646;
},
{
color = 11;
glyphname = eshsquatreversed;
lastChange = "2024-05-17 05:35:04 +0000";
layers = (
{
layerId = "52319A01-0C76-4F01-98F2-7849B20FD9E6";
shapes = (
{
closed = 1;
nodes = (
(309,-94,l),
(265,-97,o),
(236,-68,o),
(239,-37,cs),
(270,243,ls),
(283,363,o),
(226,469,o),
(50,469,c),
(7,319,l),
(51,322,o),
(80,293,o),
(77,262,cs),
(47,-15,l),
(38,-135,o),
(91,-244,o),
(267,-244,c)
);
}
);
userData = {
com.hugojourdan.ColorFlow = {
"0" = 0;
"1" = 0;
"10" = 0;
"11" = 0;
"2" = 0;
"3" = 0;
"4" = 0;
"5" = 0;
"6" = 0;
"7" = 0;
"8" = 0;
"9" = 0;
};
};
width = 331;
},
{
layerId = m001;
shapes = (
{
closed = 1;
nodes = (
(263,-191,l),
(165,-191,o),
(134,-150,o),
(148,-16,cs),
(176,244,ls),
(192,394,o),
(156,460,o),
(27,460,c),
(14,426,l),
(96,426,o),
(144,403,o),
(128,251,cs),
(100,-9,ls),
(85,-145,o),
(107,-225,o),
(249,-225,c)
);
}
);
userData = {
com.hugojourdan.ColorFlow = {
"0" = 0;
"1" = 0;
"10" = 0;
"11" = 0;
"2" = 0;
"3" = 0;
"4" = 0;
"5" = 0;
"6" = 0;
"7" = 0;
"8" = 0;
"9" = 0;
};
};
width = 292;
}
);
unicode = 645;
},
{
color = 3;
glyphname = schwahook;
lastChange = "2024-02-12 16:49:31 +0000";
layers = (
{
layerId = m001;
shapes = (
{
closed = 1;
nodes = (
(411,241,l),
(399,275,l),
(270,238,l),
(279,205,l)
);
},
{
closed = 1;
nodes = (
(320,88,o),
(345,57,o),
(388,57,cs),
(418,57,o),
(436,67,o),
(454,77,c),
(445,104,l),
(439,101,o),
(424,90,o),
(402,90,cs),
(384,90,o),
(362,104,o),
(365,140,cs),
(367,170,o),
(379,196,o),
(411,241,c),
(372,241,l),
(344,204,o),
(326,170,o),
(323,130,cs)
);
},
{
ref = schwa;
}
);
userData = {
com.hugojourdan.ColorFlow = {
"0" = 0;
"1" = 0;
"10" = 0;
"11" = 0;
"2" = 0;
"3" = 0;
"4" = 0;
"5" = 0;
"6" = 0;
"7" = 0;
"8" = 0;
"9" = 0;
};
};
width = 464;
},
{
layerId = "52319A01-0C76-4F01-98F2-7849B20FD9E6";
shapes = (
{
closed = 1;
nodes = (
(597,263,l),
(577,369,l),
(337,307,l),
(353,202,l)
);
},
{
closed = 1;
nodes = (
(436,83,o),
(487,40,o),
(557,40,cs),
(596,40,o),
(628,51,o),
(647,61,c),
(640,145,l),
(622,138,o),
(607,135,o),
(593,135,cs),
(569,135,o),
(555,152,o),
(556,171,cs),
(558,191,o),
(564,204,o),
(597,263,c),
(507,263,l),
(469,224,o),
(443,187,o),
(440,145,cs)
);
},
{
ref = schwa;
}
);
userData = {
com.hugojourdan.ColorFlow = {
"0" = 0;
"1" = 0;
"10" = 0;
"11" = 0;
"2" = 0;
"3" = 0;
"4" = 0;
"5" = 0;
"6" = 0;
"7" = 0;
"8" = 0;
"9" = 0;
};
};
width = 658;
}
);
metricLeft = schwa;
unicode = 602;
},
{
color = 3;
glyphname = ezh;
lastChange = "2024-02-12 16:49:31 +0000";
layers = (
{
layerId = m001;
shapes = (
{
closed = 1;
nodes = (
(215,-196,o),
(328,-127,o),
(336,-3,cs),
(343,100,o),
(249,173,o),
(144,174,c),
(347,416,l),
(349,450,l),
(45,450,l),
(37,400,l),
(282,404,l),
(89,174,l),
(98,133,l),
(108,134,o),
(117,134,o),
(129,134,cs),
(213,134,o),
(295,70,o),
(289,-14,cs),
(283,-96,o),
(217,-150,o),
(135,-150,cs),
(92,-150,o),
(57,-143,o),
(5,-119,c),
(-15,-165,l),
(19,-182,o),
(70,-191,o),
(102,-192,cs)
);
}
);
userData = {
com.hugojourdan.ColorFlow = {
"0" = 0;
"1" = 0;
"10" = 0;
"11" = 0;
"2" = 0;
"3" = 0;
"4" = 0;
"5" = 0;
"6" = 0;
"7" = 0;
"8" = 0;
"9" = 0;
};
};
width = 374;
},
{
layerId = "52319A01-0C76-4F01-98F2-7849B20FD9E6";
shapes = (
{
closed = 1;
nodes = (
(294,-220,o),
(419,-121,o),
(427,5,cs),
(434,92,o),
(386,158,o),
(273,176,c),
(429,313,l),
(439,450,l),
(43,450,l),
(19,302,l),
(213,302,l),
(69,164,l),
(75,63,l),
(97,65,o),
(127,68,o),
(154,68,cs),
(200,68,o),
(231,31,o),
(229,-6,cs),
(226,-46,o),
(185,-84,o),
(143,-84,cs),
(95,-84,o),
(53,-66,o),
(14,-50,c),
(-29,-192,l),
(-3,-201,o),
(35,-226,o),
(133,-224,cs)
);
}
);
userData = {
com.hugojourdan.ColorFlow = {
"0" = 0;
"1" = 0;
"10" = 0;
"11" = 0;
"2" = 0;
"3" = 0;
"4" = 0;
"5" = 0;
"6" = 0;
"7" = 0;
"8" = 0;
"9" = 0;
};
};
width = 444;
}
);
metricRight = z;
unicode = 658;
},
{
color = 11;
glyphname = ezhcurl;
lastChange = "2024-05-17 05:35:04 +0000";
layers = (
{
layerId = "52319A01-0C76-4F01-98F2-7849B20FD9E6";
shapes = (
{
closed = 1;
nodes = (
(50,-234,o),
(153,-234,cs),
(310,-234,o),
(483,-121,o),
(492,5,cs),
(498,92,o),
(451,158,o),
(338,176,c),
(494,313,l),
(503,450,l),
(97,450,l),
(74,302,l),
(278,302,l),
(123,164,l),
(129,63,l),
(151,65,o),
(185,68,o),
(212,68,cs),
(268,68,o),
(296,31,o),
(293,-6,cs),
(288,-78,o),
(164,-100,o),
(107,-100,cs),
(86,-100,o),
(71,-92,o),
(72,-80,cs),
(73,-68,o),
(91,-63,o),
(99,-63,cs),
(122,-63,o),
(169,-87,o),
(304,-277,c),
(389,-221,l),
(240,-3,o),
(181,31,o),
(106,31,cs),
(42,31,o),
(-16,-16,o),
(-21,-79,cs),
(-27,-170,o)
);
}
);
userData = {
com.hugojourdan.ColorFlow = {
"0" = 0;
"1" = 0;
"10" = 0;
"11" = 0;
"2" = 0;
"3" = 0;
"4" = 0;
"5" = 0;
"6" = 0;
"7" = 0;
"8" = 0;
"9" = 0;
};
};
width = 507;
},
{
layerId = m001;
shapes = (
{
closed = 1;
nodes = (
(53,-190,o),
(110,-192,cs),
(230,-196,o),
(349,-127,o),
(358,-3,cs),
(365,100,o),
(266,173,o),
(155,174,c),
(369,416,l),
(371,450,l),
(50,450,l),
(42,400,l),
(301,404,l),
(97,174,l),
(106,133,l),
(117,134,o),
(126,134,o),
(139,134,cs),
(228,134,o),
(314,70,o),
(308,-14,cs),
(302,-96,o),
(207,-153,o),
(112,-150,cs),
(80,-149,o),
(18,-137,o),
(22,-88,cs),
(23,-65,o),
(45,-41,o),
(74,-41,cs),
(122,-41,o),
(167,-45,o),
(323,-190,c),
(349,-161,l),
(198,-12,o),
(135,0,o),
(73,-1,cs),
(22,-2,o),
(-19,-36,o),
(-22,-89,cs),
(-28,-169,o)
);
}
);
userData = {
com.hugojourdan.ColorFlow = {
"0" = 0;
"1" = 0;
"10" = 0;
"11" = 0;
"2" = 0;
"3" = 0;
"4" = 0;
"5" = 0;
"6" = 0;
"7" = 0;
"8" = 0;
"9" = 0;
};
};
width = 376;
}
);
unicode = 659;
},
{
color = 4;
glyphname = f;
kernLeft = KO_f;
kernRight = KO_f;
lastChange = "2023-12-16 23:22:53 +0000";
layers = (
{
layerId = m001;
shapes = (
{
closed = 1;
nodes = (
(36,-225,o),
(105,-162,o),
(117,3,cs),
(147,414,l),
(254,414,l),
(265,450,l),
(150,450,l),
(159,564,ls),
(165,635,o),
(205,659,o),
(243,659,cs),
(271,659,o),
(293,658,o),
(317,653,c),
(326,693,l),
(318,695,o),
(296,697,o),
(278,697,cs),
(211,697,o),
(123,663,o),
(111,513,cs),
(109,492,o),
(108,471,o),
(106,450,c),
(48,445,l),
(40,414,l),
(103,414,l),
(70,-28,ls),
(61,-151,o),
(26,-189,o),
(-17,-192,cs),
(-39,-194,o),
(-65,-189,o),
(-84,-183,c),
(-93,-221,l),
(-78,-224,o),
(-65,-225,o),
(-53,-225,cs)
);
}
);
userData = {
com.hugojourdan.ColorFlow = {
"0" = 0;
"1" = 0;
"10" = 0;
"11" = 0;
"2" = 0;
"3" = 0;
"4" = 0;
"5" = 0;
"6" = 0;
"7" = 0;
"8" = 0;
"9" = 0;
};
};
width = 237;
},
{
layerId = "52319A01-0C76-4F01-98F2-7849B20FD9E6";
shapes = (
{
closed = 1;
nodes = (
(72,-244,o),
(216,-181,o),
(226,-8,cs),
(246,330,l),
(309,330,l),
(327,450,l),
(253,450,l),
(257,526,ls),
(258,550,o),
(274,566,o),
(301,566,cs),
(318,566,o),
(355,561,o),
(365,556,c),
(399,706,l),
(383,711,o),
(351,717,o),
(302,717,cs),
(219,717,o),
(107,668,o),
(71,526,cs),
(65,505,o),
(62,473,o),
(60,448,c),
(1,426,l),
(0,330,l),
(54,330,l),
(34,-26,ls),
(32,-64,o),
(8,-79,o),
(-21,-79,cs),
(-39,-79,o),
(-61,-76,o),
(-73,-71,c),
(-108,-226,l),
(-89,-236,o),
(-54,-244,o),
(-25,-244,cs)
);
}
);
userData = {
com.hugojourdan.ColorFlow = {
"0" = 0;
"1" = 0;
"10" = 0;
"11" = 0;
"2" = 0;
"3" = 0;
"4" = 0;
"5" = 0;
"6" = 0;
"7" = 0;
"8" = 0;
"9" = 0;
};
};
width = 292;
},
{
associatedMasterId = m001;
layerId = "B2709F1F-68E5-4095-987C-6876E1D83382";
name = "17 de oct. de 23, 0:17";
shapes = (
{
closed = 1;
nodes = (
(36,-225,o),
(106,-162,o),
(117,3,cs),
(147,414,l),
(254,414,l),
(265,450,l),
(150,450,l),
(159,575,ls),
(164,646,o),
(205,670,o),
(243,670,cs),
(271,670,o),
(293,669,o),
(317,664,c),
(326,704,l),
(318,706,o),
(296,708,o),
(291,708,cs),
(207,708,o),
(123,674,o),
(111,513,cs),
(109,492,o),
(108,471,o),
(106,450,c),
(48,445,l),
(40,414,l),
(103,414,l),
(70,-28,ls),
(62,-151,o),
(23,-192,o),
(-17,-192,cs),
(-39,-192,o),
(-65,-187,o),
(-86,-183,c),
(-93,-222,l),
(-78,-223,o),
(-65,-225,o),
(-57,-225,cs)
);
}
);
visible = 1;
width = 237;
},
{
associatedMasterId = "52319A01-0C76-4F01-98F2-7849B20FD9E6";
layerId = "FA084BC1-F88E-4DCC-BB79-F537124A2C54";
name = "17 de oct. de 23, 0:17";
shapes = (
{
closed = 1;
nodes = (
(72,-244,o),
(215,-181,o),
(226,-8,cs),
(246,330,l),
(309,330,l),
(327,450,l),
(253,450,l),
(257,517,ls),
(258,541,o),
(274,557,o),
(301,557,cs),
(318,557,o),
(355,552,o),
(364,547,c),
(399,697,l),
(384,702,o),
(351,708,o),
(302,708,cs),
(219,708,o),
(107,659,o),
(71,517,cs),
(65,496,o),
(62,473,o),
(60,448,c),
(1,426,l),
(0,330,l),
(54,330,l),
(34,-39,ls),
(32,-74,o),
(8,-79,o),
(-21,-79,cs),
(-39,-79,o),
(-61,-78,o),
(-67,-70,c),
(-108,-226,l),
(-97,-238,o),
(-54,-244,o),
(-25,-244,cs)
);
}
);
visible = 1;
width = 292;
}
);
unicode = 102;
userData = {
KernOnName = f;
};
},
{
color = 3;
glyphname = fengdigraph;
lastChange = "2024-02-12 16:49:31 +0000";
layers = (
{
layerId = m001;
shapes = (
{
closed = 1;
nodes = (
(36,-225,o),
(105,-162,o),
(117,3,cs),
(147,414,l),
(334,414,l),
(345,450,l),
(150,450,l),
(159,564,ls),
(165,635,o),
(205,659,o),
(243,659,cs),
(271,659,o),
(293,658,o),
(317,653,c),
(326,693,l),
(318,695,o),
(296,697,o),
(278,697,cs),
(211,697,o),
(123,663,o),
(111,513,cs),
(109,492,o),
(108,471,o),
(106,450,c),
(48,445,l),
(40,414,l),
(103,414,l),
(70,-28,ls),
(61,-151,o),
(26,-189,o),
(-17,-192,cs),
(-39,-194,o),
(-65,-189,o),
(-84,-183,c),
(-93,-221,l),
(-78,-224,o),
(-65,-225,o),
(-53,-225,cs)
);
},
{
alignment = -1;
pos = (227,0);
ref = eng;
}
);
userData = {
com.hugojourdan.ColorFlow = {
"0" = 0;
"1" = 0;
"10" = 0;
"11" = 0;
"2" = 0;
"3" = 0;
"4" = 0;
"5" = 0;
"6" = 0;
"7" = 0;
"8" = 0;
"9" = 0;
};
};
width = 656;
},
{
layerId = "52319A01-0C76-4F01-98F2-7849B20FD9E6";
shapes = (
{
closed = 1;
nodes = (
(72,-244,o),
(216,-181,o),
(226,-8,cs),
(246,330,l),
(409,330,l),
(427,450,l),
(253,450,l),
(257,526,ls),
(258,550,o),
(274,566,o),
(301,566,cs),
(318,566,o),
(355,561,o),
(365,556,c),
(399,706,l),
(383,711,o),
(351,717,o),
(302,717,cs),
(219,717,o),
(107,668,o),
(71,526,cs),
(65,505,o),
(62,473,o),
(60,448,c),
(1,426,l),
(0,330,l),
(54,330,l),
(34,-26,ls),
(32,-64,o),
(8,-79,o),
(-21,-79,cs),
(-39,-79,o),
(-61,-76,o),
(-73,-71,c),
(-108,-226,l),
(-89,-236,o),
(-54,-244,o),
(-25,-244,cs)
);
},
{
alignment = -1;
pos = (292,0);
ref = eng;
}
);
userData = {
com.hugojourdan.ColorFlow = {
"0" = 0;
"1" = 0;
"10" = 0;
"11" = 0;
"2" = 0;
"3" = 0;
"4" = 0;
"5" = 0;
"6" = 0;
"7" = 0;
"8" = 0;
"9" = 0;
};
};
width = 823;
}
);
metricLeft = f;
metricRight = eng;
unicode = 681;
},
{
color = 4;
glyphname = g;
kernRight = KO_g;
lastChange = "2023-12-16 23:22:53 +0000";
layers = (
{
anchors = (
{
name = top;
pos = (216,500);
}
);
layerId = m001;
shapes = (
{
closed = 1;
nodes = (
(224,-176,o),
(327,-119,o),
(327,-55,cs),
(327,-6,o),
(295,15,o),
(237,53,cs),
(175,91,o),
(119,113,o),
(119,132,cs),
(119,153,o),
(140,170,o),
(176,193,c),
(260,194,o),
(321,261,o),
(321,347,cs),
(321,379,o),
(306,407,o),
(283,428,c),
(352,480,l),
(360,497,l),
(328,529,l),
(266,440,l),
(248,452,o),
(226,459,o),
(205,459,cs),
(109,459,o),
(57,391,o),
(57,308,cs),
(57,243,o),
(109,201,o),
(143,197,c),
(101,167,o),
(83,154,o),
(81,120,c),
(83,100,o),
(93,89,o),
(140,62,c),
(114,44,o),
(89,25,o),
(63,7,cs),
(17,-26,o),
(0,-58,o),
(0,-91,cs),
(0,-141,o),
(56,-176,o),
(141,-176,cs)
);
},
{
closed = 1;
nodes = (
(87,-144,o),
(44,-111,o),
(44,-76,cs),
(44,-41,o),
(64,-24,o),
(109,9,cs),
(127,23,o),
(145,36,o),
(163,50,c),
(167,47,o),
(172,45,o),
(177,42,cs),
(249,4,o),
(286,-27,o),
(286,-62,cs),
(286,-111,o),
(222,-144,o),
(167,-144,cs)
);
},
{
closed = 1;
nodes = (
(147,225,o),
(99,264,o),
(99,322,cs),
(99,400,o),
(136,427,o),
(185,427,cs),
(227,427,o),
(278,396,o),
(278,332,cs),
(278,250,o),
(238,225,o),
(187,225,cs)
);
}
);
userData = {
com.hugojourdan.ColorFlow = {
"0" = 0;
"1" = 0;
"10" = 0;
"11" = 0;
"2" = 0;
"3" = 0;
"4" = 0;
"5" = 0;
"6" = 0;
"7" = 0;
"8" = 0;
"9" = 0;
};
};
width = 367;
},
{
anchors = (
{
name = top;
pos = (184,500);
}
);
layerId = "52319A01-0C76-4F01-98F2-7849B20FD9E6";
shapes = (
{
closed = 1;
nodes = (
(290,-244,o),
(419,-138,o),
(419,-19,cs),
(419,49,o),
(397,103,o),
(280,111,cs),
(236,114,o),
(213,116,o),
(200,120,cs),
(184,125,o),
(185,132,o),
(185,142,c),
(332,142,o),
(419,224,o),
(419,317,cs),
(419,364,o),
(409,398,o),
(389,422,c),
(472,473,l),
(484,501,l),
(390,595,l),
(303,465,l),
(284,469,o),
(264,470,o),
(241,470,cs),
(124,470,o),
(10,406,o),
(10,293,cs),
(10,229,o),
(30,184,o),
(79,161,c),
(41,130,o),
(18,91,o),
(19,69,cs),
(18,46,o),
(25,22,o),
(46,1,c),
(12,-12,o),
(-12,-30,o),
(-28,-48,cs),
(-51,-74,o),
(-58,-101,o),
(-58,-132,cs),
(-58,-197,o),
(-6,-244,o),
(130,-244,cs)
);
},
{
closed = 1;
nodes = (
(119,-111,o),
(102,-89,o),
(102,-70,cs),
(102,-62,o),
(104,-55,o),
(107,-49,cs),
(110,-41,o),
(115,-35,o),
(121,-29,c),
(133,-32,o),
(147,-34,o),
(162,-36,cs),
(249,-45,o),
(264,-40,o),
(264,-71,cs),
(264,-89,o),
(244,-111,o),
(171,-111,cs)
);
},
{
closed = 1;
nodes = (
(183,251,o),
(183,275,o),
(183,318,cs),
(183,334,o),
(179,361,o),
(211,361,cs),
(249,361,o),
(246,330,o),
(246,292,cs),
(246,276,o),
(238,251,o),
(223,251,cs)
);
}
);
userData = {
com.hugojourdan.ColorFlow = {
"0" = 0;
"1" = 0;
"10" = 0;
"11" = 0;
"2" = 0;
"3" = 0;
"4" = 0;
"5" = 0;
"6" = 0;
"7" = 0;
"8" = 0;
"9" = 0;
};
};
width = 418;
}
);
unicode = 103;
userData = {
KernOnName = g;
};
},
{
color = 3;
glyphname = "gamma-latin";
lastChange = "2024-02-12 16:49:31 +0000";
layers = (
{
layerId = m001;
shapes = (
{
closed = 1;
nodes = (
(277,-230,o),
(324,-180,o),
(324,-120,cs),
(324,-68,o),
(297,-16,o),
(259,71,c),
(340,196,o),
(403,325,o),
(444,450,c),
(397,450,l),
(364,340,o),
(314,223,o),
(241,113,c),
(127,454,l),
(76,448,l),
(210,75,l),
(187,31,o),
(117,-66,o),
(112,-130,cs),
(108,-180,o),
(139,-230,o),
(206,-230,cs)
);
},
{
closed = 1;
nodes = (
(178,-196,o),
(150,-171,o),
(154,-130,cs),
(159,-82,o),
(195,-16,o),
(227,35,c),
(257,-35,o),
(283,-91,o),
(281,-132,cs),
(279,-172,o),
(253,-196,o),
(214,-196,cs)
);
}
);
userData = {
com.hugojourdan.ColorFlow = {
"0" = 0;
"1" = 0;
"10" = 0;
"11" = 0;
"2" = 0;
"3" = 0;
"4" = 0;
"5" = 0;
"6" = 0;
"7" = 0;
"8" = 0;
"9" = 0;
};
};
width = 473;
},
{
layerId = "52319A01-0C76-4F01-98F2-7849B20FD9E6";
shapes = (
{
closed = 1;
nodes = (
(311,-241,o),
(407,-181,o),
(413,-91,cs),
(417,-33,o),
(382,15,o),
(342,88,c),
(413,180,o),
(477,300,o),
(537,450,c),
(357,450,l),
(338,374,o),
(299,300,o),
(264,253,c),
(212,454,l),
(13,440,l),
(142,104,l),
(103,46,o),
(44,-28,o),
(39,-98,cs),
(33,-185,o),
(94,-241,o),
(202,-241,cs)
);
},
{
closed = 1;
nodes = (
(211,-115,o),
(196,-102,o),
(198,-83,cs),
(199,-61,o),
(213,-47,o),
(227,-26,c),
(241,-57,o),
(254,-72,o),
(252,-87,cs),
(251,-106,o),
(241,-115,o),
(227,-115,cs)
);
}
);
userData = {
com.hugojourdan.ColorFlow = {
"0" = 0;
"1" = 0;
"10" = 0;
"11" = 0;
"2" = 0;
"3" = 0;
"4" = 0;
"5" = 0;
"6" = 0;
"7" = 0;
"8" = 0;
"9" = 0;
};
};
width = 522;
}
);
metricLeft = v;
metricRight = v;
unicode = 611;
},
{
color = 4;
glyphname = gcommaaccent;
lastChange = "2023-10-23 16:22:14 +0000";
layers = (
{
layerId = m001;
shapes = (
{
closed = 1;
nodes = (
(238,521,o),
(253,536,o),
(256,550,c),
(257,571,o),
(229,587,o),
(231,597,cs),
(232,610,o),
(237,638,o),
(273,702,c),
(243,713,l),
(201,634,o),
(182,604,o),
(180,578,cs),
(178,551,o),
(208,521,o),
(223,521,cs)
);
},
{
ref = g;
}
);
userData = {
com.hugojourdan.ColorFlow = {
"0" = 0;
"1" = 0;
"10" = 0;
"11" = 0;
"2" = 0;
"3" = 0;
"4" = 0;
"5" = 0;
"6" = 0;
"7" = 0;
"8" = 0;
"9" = 0;
};
};
width = 367;
},
{
layerId = "52319A01-0C76-4F01-98F2-7849B20FD9E6";
shapes = (
{
closed = 1;
nodes = (
(227,478,o),
(279,521,o),
(278,550,cs),
(279,567,o),
(244,587,o),
(242,601,c),
(243,614,o),
(284,664,o),
(292,683,c),
(211,717,l),
(143,634,o),
(120,574,o),
(118,552,cs),
(116,532,o),
(157,478,o),
(193,478,cs)
);
},
{
ref = g;
}
);
userData = {
com.hugojourdan.ColorFlow = {
"0" = 0;
"1" = 0;
"10" = 0;
"11" = 0;
"2" = 0;
"3" = 0;
"4" = 0;
"5" = 0;
"6" = 0;
"7" = 0;
"8" = 0;
"9" = 0;
};
};
width = 418;
}
);
unicode = 291;
},
{
color = 3;
glyphname = ghook;
lastChange = "2024-02-12 16:49:31 +0000";
layers = (
{
layerId = m001;
shapes = (
{
closed = 1;
nodes = (
(206,-222,o),
(307,-145,o),
(316,-5,cs),
(348,473,ls),
(358,610,o),
(387,658,o),
(457,658,cs),
(461,658,o),
(469,658,o),
(476,657,c),
(470,697,l),
(402,697,o),
(316,625,o),
(307,484,cs),
(304,442,l),
(290,450,o),
(270,459,o),
(242,459,cs),
(118,459,o),
(43,312,o),
(43,164,cs),
(43,36,o),
(82,-9,o),
(136,-9,cs),
(175,-9,o),
(244,39,o),
(279,134,c),
(270,-12,ls),
(262,-132,o),
(210,-183,o),
(84,-187,cs),
(66,-187,o),
(47,-186,o),
(27,-184,c),
(36,-220,l),
(48,-221,o),
(63,-222,o),
(81,-222,cs)
);
},
{
closed = 1;
nodes = (
(108,35,o),
(88,92,o),
(88,173,cs),
(88,323,o),
(143,421,o),
(211,421,cs),
(239,421,o),
(278,413,o),
(298,404,c),
(287,246,l),
(264,92,o),
(192,35,o),
(154,35,cs)
);
}
);
userData = {
com.hugojourdan.ColorFlow = {
"0" = 0;
"1" = 0;
"10" = 0;
"11" = 0;
"2" = 0;
"3" = 0;
"4" = 0;
"5" = 0;
"6" = 0;
"7" = 0;
"8" = 0;
"9" = 0;
};
};
width = 408;
},
{
layerId = "52319A01-0C76-4F01-98F2-7849B20FD9E6";
shapes = (
{
closed = 1;
nodes = (
(335,-239,o),
(477,-129,o),
(487,5,cs),
(525,491,ls),
(529,544,o),
(568,555,o),
(595,555,cs),
(623,555,o),
(645,554,o),
(659,551,c),
(639,717,l),
(470,717,o),
(348,621,o),
(335,489,cs),
(333,469,l),
(327,470,o),
(320,470,o),
(314,470,cs),
(151,470,o),
(7,348,o),
(7,164,cs),
(7,36,o),
(71,-20,o),
(151,-20,cs),
(205,-20,o),
(250,5,o),
(295,41,c),
(291,-11,ls),
(287,-57,o),
(249,-84,o),
(156,-86,cs),
(130,-86,o),
(100,-84,o),
(67,-79,c),
(81,-234,l),
(116,-238,o),
(148,-239,o),
(178,-239,cs)
);
},
{
closed = 1;
nodes = (
(236,112,o),
(208,111,o),
(208,173,cs),
(208,338,o),
(248,344,o),
(295,344,cs),
(306,344,o),
(315,342,o),
(322,340,c),
(314,261,ls),
(301,133,o),
(265,112,o),
(242,112,cs)
);
}
);
userData = {
com.hugojourdan.ColorFlow = {
"0" = 0;
"1" = 0;
"10" = 0;
"11" = 0;
"2" = 0;
"3" = 0;
"4" = 0;
"5" = 0;
"6" = 0;
"7" = 0;
"8" = 0;
"9" = 0;
};
};
width = 537;
}
);
unicode = 608;
},
{
color = 3;
glyphname = glottalstop;
lastChange = "2024-02-12 16:49:31 +0000";
layers = (
{
layerId = m001;
shapes = (
{
closed = 1;
nodes = (
(155,0,l),
(171,226,ls),
(175,291,o),
(187,308,o),
(229,340,cs),
(290,389,o),
(334,427,o),
(338,490,cs),
(344,573,o),
(282,630,o),
(199,630,cs),
(131,630,o),
(84,609,o),
(43,588,c),
(58,547,l),
(101,575,o),
(141,593,o),
(166,593,cs),
(236,593,o),
(286,548,o),
(281,478,cs),
(278,427,o),
(258,401,o),
(200,355,cs),
(147,313,o),
(122,294,o),
(117,226,cs),
(101,0,l)
);
}
);
userData = {
com.hugojourdan.ColorFlow = {
"0" = 0;
"1" = 0;
"10" = 0;
"11" = 0;
"2" = 0;
"3" = 0;
"4" = 0;
"5" = 0;
"6" = 0;
"7" = 0;
"8" = 0;
"9" = 0;
};
};
width = 338;
},
{
layerId = "52319A01-0C76-4F01-98F2-7849B20FD9E6";
shapes = (
{
closed = 1;
nodes = (
(287,0,l),
(302,218,ls),
(305,257,o),
(306,278,o),
(347,302,cs),
(402,335,o),
(459,379,o),
(464,452,cs),
(471,557,o),
(381,628,o),
(254,628,cs),
(176,628,o),
(106,601,o),
(39,565,c),
(89,436,l),
(151,473,o),
(182,482,o),
(214,482,cs),
(245,482,o),
(263,462,o),
(262,440,cs),
(259,399,o),
(227,367,o),
(170,314,cs),
(124,271,o),
(117,247,o),
(115,215,cs),
(100,0,l)
);
}
);
userData = {
com.hugojourdan.ColorFlow = {
"0" = 0;
"1" = 0;
"10" = 0;
"11" = 0;
"2" = 0;
"3" = 0;
"4" = 0;
"5" = 0;
"6" = 0;
"7" = 0;
"8" = 0;
"9" = 0;
};
};
width = 463;
}
);
unicode = 660;
},
{
color = 3;
glyphname = glottalstopreversed;
lastChange = "2024-02-12 16:49:31 +0000";
layers = (
{
layerId = m001;
shapes = (
{
closed = 1;
nodes = (
(221,226,ls),
(226,294,o),
(217,320,o),
(170,362,cs),
(119,408,o),
(81,437,o),
(86,513,cs),
(90,579,o),
(130,593,o),
(182,593,cs),
(247,593,o),
(285,575,o),
(324,547,c),
(345,588,l),
(308,609,o),
(263,630,o),
(195,630,cs),
(112,630,o),
(42,573,o),
(36,490,cs),
(32,427,o),
(70,381,o),
(124,332,cs),
(162,300,o),
(171,291,o),
(167,226,cs),
(151,0,l),
(205,0,l)
);
}
);
userData = {
com.hugojourdan.ColorFlow = {
"0" = 0;
"1" = 0;
"10" = 0;
"11" = 0;
"2" = 0;
"3" = 0;
"4" = 0;
"5" = 0;
"6" = 0;
"7" = 0;
"8" = 0;
"9" = 0;
};
};
width = 338;
},
{
layerId = "52319A01-0C76-4F01-98F2-7849B20FD9E6";
shapes = (
{
closed = 1;
nodes = (
(346,215,ls),
(348,247,o),
(345,271,o),
(305,314,cs),
(256,367,o),
(228,399,o),
(231,440,cs),
(232,462,o),
(254,482,o),
(285,482,cs),
(317,482,o),
(346,473,o),
(404,436,c),
(472,565,l),
(409,601,o),
(343,628,o),
(265,628,cs),
(138,628,o),
(38,557,o),
(31,452,cs),
(26,379,o),
(75,335,o),
(126,302,cs),
(163,278,o),
(162,257,o),
(159,218,cs),
(144,0,l),
(331,0,l)
);
}
);
userData = {
com.hugojourdan.ColorFlow = {
"0" = 0;
"1" = 0;
"10" = 0;
"11" = 0;
"2" = 0;
"3" = 0;
"4" = 0;
"5" = 0;
"6" = 0;
"7" = 0;
"8" = 0;
"9" = 0;
};
};
width = 463;
}
);
unicode = 661;
},
{
color = 3;
glyphname = glottalstopstroke;
lastChange = "2024-02-12 16:49:31 +0000";
layers = (
{
layerId = m001;
shapes = (
{
closed = 1;
nodes = (
(237,172,l),
(240,209,l),
(46,209,l),
(43,172,l)
);
},
{
closed = 1;
nodes = (
(155,0,l),
(171,226,ls),
(175,291,o),
(187,308,o),
(229,340,cs),
(290,389,o),
(334,427,o),
(338,490,cs),
(344,573,o),
(282,630,o),
(199,630,cs),
(131,630,o),
(84,609,o),
(43,588,c),
(58,547,l),
(101,575,o),
(141,593,o),
(166,593,cs),
(236,593,o),
(286,548,o),
(281,478,cs),
(278,427,o),
(258,401,o),
(200,355,cs),
(147,313,o),
(122,294,o),
(117,226,cs),
(101,0,l)
);
}
);
userData = {
com.hugojourdan.ColorFlow = {
"0" = 0;
"1" = 0;
"10" = 0;
"11" = 0;
"2" = 0;
"3" = 0;
"4" = 0;
"5" = 0;
"6" = 0;
"7" = 0;
"8" = 0;
"9" = 0;
};
};
width = 338;
},
{
layerId = "52319A01-0C76-4F01-98F2-7849B20FD9E6";
shapes = (
{
closed = 1;
nodes = (
(373,81,l),
(382,210,l),
(35,210,l),
(26,81,l)
);
},
{
closed = 1;
nodes = (
(287,0,l),
(302,218,ls),
(305,257,o),
(306,278,o),
(347,302,cs),
(402,335,o),
(459,379,o),
(464,452,cs),
(471,557,o),
(381,628,o),
(254,628,cs),
(176,628,o),
(106,601,o),
(39,565,c),
(89,436,l),
(151,473,o),
(182,482,o),
(214,482,cs),
(245,482,o),
(263,462,o),
(262,440,cs),
(259,399,o),
(227,367,o),
(170,314,cs),
(124,271,o),
(117,247,o),
(115,215,cs),
(100,0,l)
);
}
);
userData = {
com.hugojourdan.ColorFlow = {
"0" = 0;
"1" = 0;
"10" = 0;
"11" = 0;
"2" = 0;
"3" = 0;
"4" = 0;
"5" = 0;
"6" = 0;
"7" = 0;
"8" = 0;
"9" = 0;
};
};
width = 463;
},
{
associatedMasterId = "52319A01-0C76-4F01-98F2-7849B20FD9E6";
layerId = "8757C173-65A0-419F-BCFE-4EAD15040A1A";
name = "11 de sep. de 23, 12:12";
shapes = (
{
closed = 1;
nodes = (
(288,255,l),
(288,276,o),
(302,293,o),
(342,325,cs),
(382,355,o),
(448,412,o),
(448,475,cs),
(448,580,o),
(353,651,o),
(226,651,cs),
(173,651,o),
(80,624,o),
(15,588,c),
(74,459,l),
(134,496,o),
(150,505,o),
(196,505,cs),
(223,505,o),
(247,475,o),
(247,463,cs),
(247,412,o),
(222,386,o),
(167,340,cs),
(117,298,o),
(102,279,o),
(102,238,c),
(106,0,l),
(288,0,l)
);
}
);
userData = {
com.hugojourdan.ColorFlow = {
"0" = 0;
"1" = 0;
"10" = 0;
"11" = 0;
"2" = 0;
"3" = 0;
"4" = 0;
"5" = 0;
"6" = 0;
"7" = 0;
"8" = 0;
"9" = 0;
};
};
width = 600;
}
);
unicode = 673;
},
{
color = 3;
glyphname = glottalstopstrokereversed;
lastChange = "2024-02-12 16:49:31 +0000";
layers = (
{
layerId = m001;
shapes = (
{
closed = 1;
nodes = (
(221,226,ls),
(226,294,o),
(217,320,o),
(170,362,cs),
(119,408,o),
(81,437,o),
(86,513,cs),
(90,579,o),
(130,593,o),
(182,593,cs),
(247,593,o),
(285,575,o),
(324,547,c),
(345,588,l),
(308,609,o),
(263,630,o),
(195,630,cs),
(112,630,o),
(42,573,o),
(36,490,cs),
(32,427,o),
(70,381,o),
(124,332,cs),
(162,300,o),
(171,291,o),
(167,226,cs),
(151,0,l),
(205,0,l)
);
},
{
closed = 1;
nodes = (
(287,172,l),
(290,209,l),
(96,209,l),
(93,172,l)
);
}
);
userData = {
com.hugojourdan.ColorFlow = {
"0" = 0;
"1" = 0;
"10" = 0;
"11" = 0;
"2" = 0;
"3" = 0;
"4" = 0;
"5" = 0;
"6" = 0;
"7" = 0;
"8" = 0;
"9" = 0;
};
};
width = 338;
},
{
layerId = "52319A01-0C76-4F01-98F2-7849B20FD9E6";
shapes = (
{
closed = 1;
nodes = (
(346,215,ls),
(348,247,o),
(345,271,o),
(305,314,cs),
(256,367,o),
(228,399,o),
(231,440,cs),
(232,462,o),
(254,482,o),
(285,482,cs),
(317,482,o),
(346,473,o),
(404,436,c),
(472,565,l),
(409,601,o),
(343,628,o),
(265,628,cs),
(138,628,o),
(38,557,o),
(31,452,cs),
(26,379,o),
(75,335,o),
(126,302,cs),
(163,278,o),
(162,257,o),
(159,218,cs),
(144,0,l),
(331,0,l)
);
},
{
closed = 1;
nodes = (
(417,81,l),
(426,210,l),
(79,210,l),
(70,81,l)
);
}
);
userData = {
com.hugojourdan.ColorFlow = {
"0" = 0;
"1" = 0;
"10" = 0;
"11" = 0;
"2" = 0;
"3" = 0;
"4" = 0;
"5" = 0;
"6" = 0;
"7" = 0;
"8" = 0;
"9" = 0;
};
};
width = 463;
}
);
unicode = 674;
},
{
color = 3;
glyphname = gsingle;
lastChange = "2024-02-12 16:49:31 +0000";
layers = (
{
anchors = (
{
name = bottom;
pos = (220,0);
},
{
name = ogonek;
pos = (314,0);
},
{
name = top;
pos = (241,500);
}
);
layerId = m001;
shapes = (
{
closed = 1;
nodes = (
(175,-9,o),
(244,39,o),
(279,134,c),
(320,69,l),
(348,468,l),
(317,473,l),
(310,439,l),
(296,447,o),
(274,459,o),
(242,459,cs),
(118,459,o),
(43,312,o),
(43,164,cs),
(43,36,o),
(82,-9,o),
(136,-9,cs)
);
},
{
closed = 1;
nodes = (
(206,-222,o),
(307,-145,o),
(316,-5,cs),
(327,170,l),
(281,158,l),
(270,-12,ls),
(262,-132,o),
(210,-183,o),
(84,-187,cs),
(66,-187,o),
(47,-186,o),
(27,-184,c),
(36,-220,l),
(48,-221,o),
(63,-222,o),
(81,-222,cs)
);
},
{
closed = 1;
nodes = (
(108,35,o),
(88,92,o),
(88,173,cs),
(88,323,o),
(143,421,o),
(211,421,cs),
(239,421,o),
(278,413,o),
(298,404,c),
(287,246,l),
(264,92,o),
(192,35,o),
(154,35,cs)
);
}
);
userData = {
com.hugojourdan.ColorFlow = {
"0" = 0;
"1" = 0;
"10" = 0;
"11" = 0;
"2" = 0;
"3" = 0;
"4" = 0;
"5" = 0;
"6" = 0;
"7" = 0;
"8" = 0;
"9" = 0;
};
};
width = 408;
},
{
anchors = (
{
name = bottom;
pos = (205,0);
},
{
name = ogonek;
pos = (485,0);
},
{
name = top;
pos = (292,500);
}
);
layerId = "52319A01-0C76-4F01-98F2-7849B20FD9E6";
shapes = (
{
closed = 1;
nodes = (
(213,-20,o),
(262,12,o),
(313,56,c),
(500,182,l),
(521,443,l),
(490,477,l),
(391,459,l),
(366,465,o),
(338,470,o),
(314,470,cs),
(151,470,o),
(7,348,o),
(7,164,cs),
(7,36,o),
(71,-20,o),
(151,-20,cs)
);
},
{
closed = 1;
nodes = (
(335,-239,o),
(477,-129,o),
(487,5,cs),
(502,208,l),
(296,62,l),
(291,-11,ls),
(288,-57,o),
(249,-84,o),
(156,-86,cs),
(130,-86,o),
(100,-84,o),
(67,-79,c),
(81,-234,l),
(116,-238,o),
(148,-239,o),
(178,-239,cs)
);
},
{
closed = 1;
nodes = (
(236,112,o),
(208,111,o),
(208,173,cs),
(208,338,o),
(248,344,o),
(295,344,cs),
(306,344,o),
(315,342,o),
(322,340,c),
(314,261,l),
(299,133,o),
(265,112,o),
(242,112,cs)
);
}
);
userData = {
com.hugojourdan.ColorFlow = {
"0" = 0;
"1" = 0;
"10" = 0;
"11" = 0;
"2" = 0;
"3" = 0;
"4" = 0;
"5" = 0;
"6" = 0;
"7" = 0;
"8" = 0;
"9" = 0;
};
};
width = 537;
}
);
metricLeft = a;
metricRight = d;
unicode = 609;
},
{
color = 4;
glyphname = h;
kernLeft = KO_i;
kernRight = KO_n;
lastChange = "2023-12-16 23:22:53 +0000";
layers = (
{
anchors = (
{
name = center;
pos = (216,225);
},
{
name = top;
pos = (216,450);
}
);
layerId = m001;
shapes = (
{
closed = 1;
nodes = (
(109,0,l),
(120,172,l),
(133,331,o),
(223,416,o),
(263,416,cs),
(305,416,o),
(318,389,o),
(318,316,cs),
(318,255,o),
(294,48,o),
(291,0,c),
(335,0,l),
(341,51,o),
(366,268,o),
(366,347,cs),
(366,421,o),
(342,459,o),
(288,459,cs),
(236,459,o),
(175,405,o),
(128,299,c),
(154,697,l),
(111,687,l),
(64,0,l)
);
}
);
userData = {
com.hugojourdan.ColorFlow = {
"0" = 0;
"1" = 0;
"10" = 0;
"11" = 0;
"2" = 0;
"3" = 0;
"4" = 0;
"5" = 0;
"6" = 0;
"7" = 0;
"8" = 0;
"9" = 0;
};
};
width = 428;
},
{
anchors = (
{
name = center;
pos = (259,225);
},
{
name = top;
pos = (259,450);
}
);
layerId = "52319A01-0C76-4F01-98F2-7849B20FD9E6";
shapes = (
{
closed = 1;
nodes = (
(207,0,l),
(223,218,l),
(240,322,o),
(273,322,o),
(289,322,cs),
(301,322,o),
(314,312,o),
(314,284,cs),
(314,233,o),
(287,48,o),
(280,0,c),
(470,0,l),
(472,51,o),
(508,257,o),
(508,336,cs),
(508,432,o),
(459,470,o),
(380,470,cs),
(331,470,o),
(281,444,o),
(236,389,c),
(261,717,l),
(66,692,l),
(17,0,l)
);
}
);
userData = {
com.hugojourdan.ColorFlow = {
"0" = 0;
"1" = 0;
"10" = 0;
"11" = 0;
"2" = 0;
"3" = 0;
"4" = 0;
"5" = 0;
"6" = 0;
"7" = 0;
"8" = 0;
"9" = 0;
};
};
width = 533;
}
);
unicode = 104;
userData = {
KernOnName = h;
};
},
{
color = 4;
glyphname = hbar;
lastChange = "2023-10-23 16:22:14 +0000";
layers = (
{
layerId = m001;
shapes = (
{
closed = 1;
nodes = (
(255,560,l),
(269,583,l),
(272,598,l),
(21,598,l),
(7,575,l),
(4,560,l)
);
},
{
ref = h;
}
);
userData = {
com.hugojourdan.ColorFlow = {
"0" = 0;
"1" = 0;
"10" = 0;
"11" = 0;
"2" = 0;
"3" = 0;
"4" = 0;
"5" = 0;
"6" = 0;
"7" = 0;
"8" = 0;
"9" = 0;
};
};
width = 419;
},
{
layerId = "52319A01-0C76-4F01-98F2-7849B20FD9E6";
shapes = (
{
closed = 1;
nodes = (
(360,530,l),
(397,605,l),
(396,620,l),
(43,620,l),
(7,545,l),
(8,530,l)
);
},
{
ref = h;
}
);
userData = {
com.hugojourdan.ColorFlow = {
"0" = 0;
"1" = 0;
"10" = 0;
"11" = 0;
"2" = 0;
"3" = 0;
"4" = 0;
"5" = 0;
"6" = 0;
"7" = 0;
"8" = 0;
"9" = 0;
};
};
width = 554;
}
);
unicode = 295;
},
{
color = 3;
glyphname = henghook;
lastChange = "2024-02-12 16:49:31 +0000";
layers = (
{
layerId = m001;
shapes = (
{
closed = 1;
nodes = (
(231,-229,o),
(338,-155,o),
(345,43,cs),
(349,105,o),
(366,271,o),
(366,347,cs),
(366,421,o),
(342,459,o),
(288,459,cs),
(237,459,o),
(172,398,o),
(125,298,c),
(138,473,ls),
(148,610,o),
(177,658,o),
(247,658,cs),
(251,658,o),
(259,658,o),
(266,657,c),
(260,697,l),
(192,697,o),
(107,625,o),
(97,484,cs),
(64,0,l),
(109,0,l),
(126,208,l),
(148,345,o),
(226,416,o),
(263,416,cs),
(305,416,o),
(318,389,o),
(318,316,cs),
(318,257,o),
(304,109,o),
(298,22,cs),
(284,-138,o),
(252,-186,o),
(181,-186,cs),
(178,-186,o),
(170,-185,o),
(163,-185,c),
(172,-230,l)
);
}
);
userData = {
com.hugojourdan.ColorFlow = {
"0" = 0;
"1" = 0;
"10" = 0;
"11" = 0;
"2" = 0;
"3" = 0;
"4" = 0;
"5" = 0;
"6" = 0;
"7" = 0;
"8" = 0;
"9" = 0;
};
};
width = 429;
},
{
layerId = "52319A01-0C76-4F01-98F2-7849B20FD9E6";
shapes = (
{
closed = 1;
nodes = (
(377,-233,o),
(440,-136,o),
(465,-37,cs),
(473,3,o),
(508,264,o),
(508,336,cs),
(508,432,o),
(459,470,o),
(380,470,cs),
(329,470,o),
(278,442,o),
(231,384,c),
(242,491,ls),
(247,544,o),
(285,555,o),
(312,555,cs),
(340,555,o),
(362,554,o),
(376,551,c),
(356,717,l),
(184,717,o),
(61,617,o),
(50,465,cs),
(17,0,l),
(207,0,l),
(217,168,ls),
(230,322,o),
(271,322,o),
(289,322,cs),
(301,322,o),
(314,312,o),
(314,284,cs),
(314,231,o),
(285,-4,o),
(279,-29,cs),
(273,-58,o),
(237,-69,o),
(211,-69,cs),
(182,-69,o),
(163,-68,o),
(148,-65,c),
(165,-230,l)
);
}
);
userData = {
com.hugojourdan.ColorFlow = {
"0" = 0;
"1" = 0;
"10" = 0;
"11" = 0;
"2" = 0;
"3" = 0;
"4" = 0;
"5" = 0;
"6" = 0;
"7" = 0;
"8" = 0;
"9" = 0;
};
};
width = 531;
}
);
unicode = 615;
},
{
color = 3;
glyphname = hhook;
lastChange = "2024-02-12 16:49:31 +0000";
layers = (
{
anchors = (
{
name = center;
pos = (216,225);
},
{
name = top;
pos = (216,450);
}
);
layerId = m001;
shapes = (
{
closed = 1;
nodes = (
(148,610,o),
(177,658,o),
(247,658,cs),
(251,658,o),
(259,658,o),
(266,657,c),
(260,697,l),
(192,697,o),
(107,625,o),
(97,484,cs),
(64,0,l),
(109,0,l),
(120,172,l),
(133,331,o),
(223,416,o),
(263,416,cs),
(305,416,o),
(318,389,o),
(318,316,cs),
(318,255,o),
(294,48,o),
(291,0,c),
(335,0,l),
(341,51,o),
(366,268,o),
(366,347,cs),
(366,421,o),
(342,459,o),
(288,459,cs),
(236,459,o),
(175,405,o),
(128,299,c),
(138,473,ls)
);
}
);
userData = {
com.hugojourdan.ColorFlow = {
"0" = 0;
"1" = 0;
"10" = 0;
"11" = 0;
"2" = 0;
"3" = 0;
"4" = 0;
"5" = 0;
"6" = 0;
"7" = 0;
"8" = 0;
"9" = 0;
};
};
width = 428;
},
{
anchors = (
{
name = center;
pos = (259,225);
},
{
name = top;
pos = (259,450);
}
);
layerId = "52319A01-0C76-4F01-98F2-7849B20FD9E6";
shapes = (
{
closed = 1;
nodes = (
(245,544,o),
(285,555,o),
(312,555,cs),
(340,555,o),
(362,554,o),
(376,551,c),
(356,717,l),
(184,717,o),
(61,617,o),
(50,465,cs),
(17,0,l),
(207,0,l),
(223,218,l),
(240,322,o),
(273,322,o),
(289,322,cs),
(301,322,o),
(314,312,o),
(314,284,cs),
(314,233,o),
(287,48,o),
(280,0,c),
(470,0,l),
(472,51,o),
(508,257,o),
(508,336,cs),
(508,432,o),
(459,470,o),
(380,470,cs),
(331,470,o),
(281,444,o),
(236,389,c),
(242,491,ls)
);
}
);
userData = {
com.hugojourdan.ColorFlow = {
"0" = 0;
"1" = 0;
"10" = 0;
"11" = 0;
"2" = 0;
"3" = 0;
"4" = 0;
"5" = 0;
"6" = 0;
"7" = 0;
"8" = 0;
"9" = 0;
};
};
width = 533;
}
);
unicode = 614;
},
{
color = 11;
glyphname = hturnedfishhook;
lastChange = "2024-05-17 05:35:04 +0000";
layers = (
{
anchors = (
{
name = bottom;
pos = (357,0);
},
{
name = center;
pos = (357,225);
}
);
layerId = "52319A01-0C76-4F01-98F2-7849B20FD9E6";
shapes = (
{
closed = 1;
nodes = (
(550,-242,l),
(599,450,l),
(409,450,l),
(393,232,l),
(376,128,o),
(343,128,o),
(327,128,cs),
(315,128,o),
(302,138,o),
(302,166,cs),
(302,183,o),
(302,193,o),
(302,215,cs),
(302,355,o),
(268,456,o),
(127,459,cs),
(100,459,o),
(71,456,o),
(37,450,c),
(4,288,l),
(27,292,o),
(49,295,o),
(64,292,cs),
(112,284,o),
(108,229,o),
(108,155,cs),
(108,142,o),
(108,128,o),
(108,114,cs),
(106,18,o),
(157,-20,o),
(236,-20,cs),
(285,-20,o),
(335,6,o),
(380,61,c),
(355,-267,l)
);
}
);
userData = {
com.hugojourdan.ColorFlow = {
"0" = 0;
"1" = 0;
"10" = 0;
"11" = 0;
"2" = 0;
"3" = 0;
"4" = 0;
"5" = 0;
"6" = 0;
"7" = 0;
"8" = 0;
"9" = 0;
};
};
width = 616;
},
{
anchors = (
{
name = bottom;
pos = (266,0);
},
{
name = center;
pos = (266,225);
}
);
layerId = m001;
shapes = (
{
closed = 1;
nodes = (
(371,-237,l),
(418,450,l),
(373,450,l),
(362,278,l),
(349,119,o),
(259,34,o),
(219,34,cs),
(177,34,o),
(160,61,o),
(164,134,cs),
(165,151,o),
(167,191,o),
(171,239,cs),
(182,360,o),
(189,457,o),
(49,464,cs),
(40,464,o),
(31,464,o),
(22,464,c),
(13,418,l),
(29,418,o),
(43,418,o),
(55,416,cs),
(118,410,o),
(137,379,o),
(126,255,cs),
(122,204,o),
(116,138,o),
(116,103,cs),
(116,29,o),
(140,-9,o),
(194,-9,cs),
(246,-9,o),
(307,45,o),
(354,151,c),
(328,-247,l)
);
}
);
userData = {
com.hugojourdan.ColorFlow = {
"0" = 0;
"1" = 0;
"10" = 0;
"11" = 0;
"2" = 0;
"3" = 0;
"4" = 0;
"5" = 0;
"6" = 0;
"7" = 0;
"8" = 0;
"9" = 0;
};
};
width = 482;
}
);
unicode = 686;
},
{
color = 11;
glyphname = hturnedfishhookandtail;
lastChange = "2024-05-17 05:35:04 +0000";
layers = (
{
anchors = (
{
name = bottom;
pos = (357,0);
},
{
name = center;
pos = (357,225);
}
);
layerId = "52319A01-0C76-4F01-98F2-7849B20FD9E6";
shapes = (
{
closed = 1;
nodes = (
(644,-93,l),
(615,-88,o),
(601,-79,o),
(589,-64,cs),
(573,-46,o),
(567,-29,o),
(569,6,cs),
(599,450,l),
(409,450,l),
(393,232,l),
(376,128,o),
(343,128,o),
(327,128,cs),
(315,128,o),
(302,138,o),
(302,166,cs),
(302,183,o),
(302,193,o),
(302,215,cs),
(302,355,o),
(268,456,o),
(127,459,cs),
(100,459,o),
(71,456,o),
(37,450,c),
(4,288,l),
(27,292,o),
(49,295,o),
(64,292,cs),
(112,284,o),
(108,229,o),
(108,155,cs),
(108,142,o),
(108,128,o),
(108,114,cs),
(106,18,o),
(157,-20,o),
(236,-20,cs),
(285,-20,o),
(335,6,o),
(380,61,c),
(374,-5,ls),
(369,-64,o),
(390,-128,o),
(437,-170,cs),
(481,-211,o),
(537,-232,o),
(588,-237,c)
);
}
);
userData = {
com.hugojourdan.ColorFlow = {
"0" = 0;
"1" = 0;
"10" = 0;
"11" = 0;
"2" = 0;
"3" = 0;
"4" = 0;
"5" = 0;
"6" = 0;
"7" = 0;
"8" = 0;
"9" = 0;
};
};
width = 625;
},
{
anchors = (
{
name = bottom;
pos = (266,0);
},
{
name = center;
pos = (266,225);
}
);
layerId = m001;
shapes = (
{
closed = 1;
nodes = (
(528,-184,l),
(494,-181,o),
(445,-169,o),
(417,-133,cs),
(391,-101,o),
(384,-44,o),
(387,0,cs),
(418,450,l),
(373,450,l),
(362,278,l),
(349,119,o),
(259,34,o),
(219,34,cs),
(177,34,o),
(160,61,o),
(164,134,cs),
(165,151,o),
(167,191,o),
(171,239,cs),
(182,360,o),
(189,457,o),
(49,464,cs),
(40,464,o),
(31,464,o),
(22,464,c),
(13,418,l),
(29,418,o),
(43,418,o),
(55,416,cs),
(118,410,o),
(137,379,o),
(126,255,cs),
(122,204,o),
(116,138,o),
(116,103,cs),
(116,29,o),
(140,-9,o),
(194,-9,cs),
(246,-9,o),
(307,45,o),
(354,151,c),
(344,11,ls),
(340,-52,o),
(347,-103,o),
(366,-138,cs),
(398,-195,o),
(456,-217,o),
(514,-221,c)
);
}
);
userData = {
com.hugojourdan.ColorFlow = {
"0" = 0;
"1" = 0;
"10" = 0;
"11" = 0;
"2" = 0;
"3" = 0;
"4" = 0;
"5" = 0;
"6" = 0;
"7" = 0;
"8" = 0;
"9" = 0;
};
};
width = 495;
}
);
unicode = 687;
},
{
color = 4;
glyphname = i;
kernLeft = KO_i;
kernRight = KO_i;
lastChange = "2023-12-16 23:22:53 +0000";
layers = (
{
anchors = (
{
name = ogonek;
pos = (108,0);
},
{
name = top;
pos = (125,500);
}
);
layerId = m001;
shapes = (
{
closed = 1;
nodes = (
(108,0,l),
(141,459,l),
(96,449,l),
(64,0,l)
);
},
{
closed = 1;
nodes = (
(140,568,o),
(164,599,o),
(164,610,cs),
(164,627,o),
(145,648,o),
(134,648,cs),
(127,648,o),
(100,620,o),
(100,603,cs),
(100,588,o),
(118,568,o),
(129,568,cs)
);
}
);
userData = {
com.hugojourdan.ColorFlow = {
"0" = 0;
"1" = 0;
"10" = 0;
"11" = 0;
"2" = 0;
"3" = 0;
"4" = 0;
"5" = 0;
"6" = 0;
"7" = 0;
"8" = 0;
"9" = 0;
};
};
width = 205;
},
{
anchors = (
{
name = ogonek;
pos = (206,0);
},
{
name = top;
pos = (136,500);
}
);
layerId = "52319A01-0C76-4F01-98F2-7849B20FD9E6";
shapes = (
{
closed = 1;
nodes = (
(206,0,l),
(239,470,l),
(49,445,l),
(17,0,l)
);
},
{
closed = 1;
nodes = (
(195,499,o),
(258,567,o),
(258,606,cs),
(258,646,o),
(185,691,o),
(149,691,cs),
(101,691,o),
(42,620,o),
(42,584,cs),
(42,545,o),
(114,499,o),
(151,499,cs)
);
}
);
userData = {
com.hugojourdan.ColorFlow = {
"0" = 0;
"1" = 0;
"10" = 0;
"11" = 0;
"2" = 0;
"3" = 0;
"4" = 0;
"5" = 0;
"6" = 0;
"7" = 0;
"8" = 0;
"9" = 0;
};
};
width = 256;
}
);
unicode = 105;
userData = {
KernOnName = i;
};
},
{
color = 4;
glyphname = dotlessi;
lastChange = "2023-10-23 16:22:14 +0000";
layers = (
{
anchors = (
{
name = ogonek;
pos = (170,10);
},
{
name = top;
pos = (103,502);
}
);
layerId = m001;
shapes = (
{
closed = 1;
nodes = (
(97,0,l),
(130,459,l),
(86,449,l),
(54,0,l)
);
}
);
userData = {
com.hugojourdan.ColorFlow = {
"0" = 0;
"1" = 0;
"10" = 0;
"11" = 0;
"2" = 0;
"3" = 0;
"4" = 0;
"5" = 0;
"6" = 0;
"7" = 0;
"8" = 0;
"9" = 0;
};
};
width = 189;
},
{
anchors = (
{
name = ogonek;
pos = (262,10);
},
{
name = top;
pos = (187,498);
}
);
layerId = "52319A01-0C76-4F01-98F2-7849B20FD9E6";
shapes = (
{
closed = 1;
nodes = (
(236,0,l),
(269,470,l),
(79,445,l),
(47,0,l)
);
}
);
userData = {
com.hugojourdan.ColorFlow = {
"0" = 0;
"1" = 0;
"10" = 0;
"11" = 0;
"2" = 0;
"3" = 0;
"4" = 0;
"5" = 0;
"6" = 0;
"7" = 0;
"8" = 0;
"9" = 0;
};
};
width = 291;
}
);
unicode = 305;
},
{
color = 4;
glyphname = idieresis;
lastChange = "2025-03-04 12:22:03 +0000";
layers = (
{
layerId = m001;
shapes = (
{
pos = (9,0);
ref = dotlessi;
},
{
closed = 1;
nodes = (
(67,574,o),
(92,597,o),
(93,612,cs),
(95,626,o),
(64,641,o),
(55,641,cs),
(45,641,o),
(20,619,o),
(19,603,cs),
(17,591,o),
(47,574,o),
(57,574,cs)
);
},
{
closed = 1;
nodes = (
(206,574,o),
(230,597,o),
(231,612,cs),
(233,626,o),
(203,641,o),
(193,641,cs),
(183,641,o),
(158,619,o),
(157,603,cs),
(155,591,o),
(185,574,o),
(195,574,cs)
);
}
);
userData = {
com.hugojourdan.ColorFlow = {
"0" = 0;
"1" = 0;
"10" = 0;
"11" = 0;
"2" = 0;
"3" = 0;
"4" = 0;
"5" = 0;
"6" = 0;
"7" = 0;
"8" = 0;
"9" = 0;
};
};
width = 199;
},
{
layerId = "52319A01-0C76-4F01-98F2-7849B20FD9E6";
shapes = (
{
pos = (-27,0);
ref = dotlessi;
},
{
closed = 1;
nodes = (
(86,482,o),
(154,546,o),
(155,580,cs),
(157,619,o),
(94,671,o),
(59,671,cs),
(23,671,o),
(-42,604,o),
(-43,571,cs),
(-45,533,o),
(17,482,o),
(53,482,cs)
);
},
{
closed = 1;
nodes = (
(304,482,o),
(372,546,o),
(373,580,cs),
(375,619,o),
(312,671,o),
(277,671,cs),
(241,671,o),
(177,604,o),
(176,571,cs),
(174,533,o),
(236,482,o),
(272,482,cs)
);
}
);
userData = {
com.hugojourdan.ColorFlow = {
"0" = 0;
"1" = 0;
"10" = 0;
"11" = 0;
"2" = 0;
"3" = 0;
"4" = 0;
"5" = 0;
"6" = 0;
"7" = 0;
"8" = 0;
"9" = 0;
};
};
width = 261;
}
);
unicode = 239;
},
{
color = 3;
glyphname = istroke;
lastChange = "2024-02-12 16:50:04 +0000";
layers = (
{
layerId = m001;
shapes = (
{
ref = i;
},
{
closed = 1;
nodes = (
(194,222,l),
(196,259,l),
(13,259,l),
(11,222,l)
);
}
);
userData = {
com.hugojourdan.ColorFlow = {
"0" = 0;
"1" = 0;
"10" = 0;
"11" = 0;
"2" = 0;
"3" = 0;
"4" = 0;
"5" = 0;
"6" = 0;
"7" = 0;
"8" = 0;
"9" = 0;
};
};
width = 205;
},
{
layerId = "52319A01-0C76-4F01-98F2-7849B20FD9E6";
shapes = (
{
ref = i;
},
{
closed = 1;
nodes = (
(287,177,l),
(297,306,l),
(-30,306,l),
(-40,177,l)
);
}
);
userData = {
com.hugojourdan.ColorFlow = {
"0" = 0;
"1" = 0;
"10" = 0;
"11" = 0;
"2" = 0;
"3" = 0;
"4" = 0;
"5" = 0;
"6" = 0;
"7" = 0;
"8" = 0;
"9" = 0;
};
};
width = 256;
}
);
unicode = 616;
},
{
color = 3;
glyphname = j;
lastChange = "2024-02-12 16:50:04 +0000";
layers = (
{
anchors = (
{
name = top;
pos = (121,500);
}
);
layerId = m001;
shapes = (
{
closed = 1;
nodes = (
(12,-225,o),
(98,-153,o),
(108,-12,cs),
(143,461,l),
(99,451,l),
(66,-1,ls),
(56,-138,o),
(27,-186,o),
(-43,-186,cs),
(-47,-186,o),
(-55,-186,o),
(-62,-185,c),
(-56,-225,l)
);
},
{
closed = 1;
nodes = (
(146,568,o),
(169,599,o),
(169,610,cs),
(169,627,o),
(150,648,o),
(140,648,cs),
(132,648,o),
(106,620,o),
(106,603,cs),
(106,588,o),
(124,568,o),
(135,568,cs)
);
}
);
userData = {
com.hugojourdan.ColorFlow = {
"0" = 0;
"1" = 0;
"10" = 0;
"11" = 0;
"2" = 0;
"3" = 0;
"4" = 0;
"5" = 0;
"6" = 0;
"7" = 0;
"8" = 0;
"9" = 0;
};
};
width = 210;
},
{
anchors = (
{
name = top;
pos = (136,500);
}
);
layerId = "52319A01-0C76-4F01-98F2-7849B20FD9E6";
shapes = (
{
closed = 1;
nodes = (
(66,-244,o),
(190,-144,o),
(200,8,cs),
(231,468,l),
(41,444,l),
(8,-18,ls),
(4,-71,o),
(-35,-82,o),
(-62,-82,cs),
(-90,-82,o),
(-112,-81,o),
(-126,-78,c),
(-106,-244,l)
);
},
{
closed = 1;
nodes = (
(186,499,o),
(249,567,o),
(249,606,cs),
(249,646,o),
(176,691,o),
(140,691,cs),
(92,691,o),
(33,620,o),
(33,584,cs),
(33,545,o),
(105,499,o),
(142,499,cs)
);
}
);
userData = {
com.hugojourdan.ColorFlow = {
"0" = 0;
"1" = 0;
"10" = 0;
"11" = 0;
"2" = 0;
"3" = 0;
"4" = 0;
"5" = 0;
"6" = 0;
"7" = 0;
"8" = 0;
"9" = 0;
};
};
width = 240;
},
{
anchors = (
{
name = top;
pos = (121,500);
}
);
associatedMasterId = m001;
layerId = "9E3BABAA-9308-44BE-B145-02762B147481";
name = "17 de oct. de 23, 1:13";
shapes = (
{
closed = 1;
nodes = (
(6,-229,o),
(99,-153,o),
(108,-12,cs),
(143,461,l),
(99,451,l),
(66,-1,ls),
(57,-138,o),
(27,-186,o),
(-43,-186,cs),
(-47,-186,o),
(-55,-185,o),
(-62,-185,c),
(-53,-230,l)
);
},
{
closed = 1;
nodes = (
(146,568,o),
(169,599,o),
(169,610,cs),
(169,627,o),
(150,648,o),
(140,648,cs),
(132,648,o),
(106,620,o),
(106,603,cs),
(106,588,o),
(124,568,o),
(135,568,cs)
);
}
);
visible = 1;
width = 210;
},
{
anchors = (
{
name = top;
pos = (136,500);
}
);
associatedMasterId = "52319A01-0C76-4F01-98F2-7849B20FD9E6";
layerId = "9DC479A0-481A-4DDA-A3E3-EB27375B4C02";
name = "17 de oct. de 23, 1:13";
shapes = (
{
closed = 1;
nodes = (
(108,-233,o),
(187,-134,o),
(200,18,cs),
(231,468,l),
(41,444,l),
(8,-8,l),
(2,-58,o),
(-35,-69,o),
(-62,-69,cs),
(-90,-69,o),
(-110,-68,o),
(-124,-65,c),
(-108,-230,l)
);
},
{
closed = 1;
nodes = (
(186,499,o),
(249,567,o),
(249,606,cs),
(249,646,o),
(176,691,o),
(140,691,cs),
(92,691,o),
(33,620,o),
(33,584,cs),
(33,545,o),
(105,499,o),
(142,499,cs)
);
}
);
visible = 1;
width = 240;
}
);
unicode = 106;
},
{
color = 11;
glyphname = jdotless;
lastChange = "2025-03-03 15:39:55 +0000";
layers = (
{
anchors = (
{
name = top;
pos = (109,500);
}
);
layerId = m001;
shapes = (
{
closed = 1;
nodes = (
(12,-225,o),
(98,-153,o),
(108,-12,cs),
(143,461,l),
(99,451,l),
(66,-1,ls),
(56,-138,o),
(27,-186,o),
(-43,-186,cs),
(-47,-186,o),
(-55,-186,o),
(-62,-185,c),
(-56,-225,l)
);
}
);
userData = {
com.hugojourdan.ColorFlow = {
"0" = 0;
"1" = 0;
"10" = 0;
"11" = 0;
"2" = 0;
"3" = 0;
"4" = 0;
"5" = 0;
"6" = 0;
"7" = 0;
"8" = 0;
"9" = 0;
};
};
width = 210;
},
{
anchors = (
{
name = top;
pos = (118,500);
}
);
layerId = "52319A01-0C76-4F01-98F2-7849B20FD9E6";
shapes = (
{
closed = 1;
nodes = (
(66,-244,o),
(190,-144,o),
(200,8,cs),
(231,468,l),
(41,444,l),
(8,-18,ls),
(4,-71,o),
(-35,-82,o),
(-62,-82,cs),
(-90,-82,o),
(-112,-81,o),
(-126,-78,c),
(-106,-244,l)
);
}
);
userData = {
com.hugojourdan.ColorFlow = {
"0" = 0;
"1" = 0;
"10" = 0;
"11" = 0;
"2" = 0;
"3" = 0;
"4" = 0;
"5" = 0;
"6" = 0;
"7" = 0;
"8" = 0;
"9" = 0;
};
};
width = 240;
}
);
unicode = 567;
},
{
color = 4;
glyphname = jcircumflex;
lastChange = "2023-10-23 17:02:16 +0000";
layers = (
{
layerId = m001;
shapes = (
{
closed = 1;
nodes = (
(8,-229,o),
(98,-153,o),
(108,-12,cs),
(143,461,l),
(99,451,l),
(66,-1,ls),
(56,-138,o),
(27,-186,o),
(-43,-186,cs),
(-47,-186,o),
(-55,-186,o),
(-62,-185,c),
(-56,-230,l)
);
},
{
pos = (-65,0);
ref = circumflex;
}
);
userData = {
com.hugojourdan.ColorFlow = {
"0" = 0;
"1" = 0;
"10" = 0;
"11" = 0;
"2" = 0;
"3" = 0;
"4" = 0;
"5" = 0;
"6" = 0;
"7" = 0;
"8" = 0;
"9" = 0;
};
};
width = 210;
},
{
layerId = "52319A01-0C76-4F01-98F2-7849B20FD9E6";
shapes = (
{
closed = 1;
nodes = (
(110,-233,o),
(190,-134,o),
(200,18,cs),
(231,468,l),
(41,444,l),
(8,-8,l),
(2,-58,o),
(-35,-69,o),
(-62,-69,cs),
(-90,-69,o),
(-112,-68,o),
(-126,-65,c),
(-106,-230,l)
);
},
{
pos = (-112,0);
ref = circumflex;
}
);
userData = {
com.hugojourdan.ColorFlow = {
"0" = 0;
"1" = 0;
"10" = 0;
"11" = 0;
"2" = 0;
"3" = 0;
"4" = 0;
"5" = 0;
"6" = 0;
"7" = 0;
"8" = 0;
"9" = 0;
};
};
width = 240;
}
);
unicode = 309;
},
{
color = 1;
glyphname = jcrossedtail;
lastChange = "2024-04-13 16:19:06 +0000";
layers = (
{
anchors = (
{
name = top;
pos = (121,500);
}
);
layerId = m001;
shapes = (
{
closed = 1;
nodes = (
(146,568,o),
(169,599,o),
(169,610,cs),
(169,627,o),
(150,648,o),
(140,648,cs),
(132,648,o),
(106,620,o),
(106,603,cs),
(106,588,o),
(124,568,o),
(135,568,cs)
);
},
{
closed = 1;
nodes = (
(99,-167,o),
(16,-225,o),
(-39,-225,cs),
(-81,-225,o),
(-111,-194,o),
(-108,-150,cs),
(-104,-87,o),
(-44,-51,o),
(33,-51,cs),
(75,-51,o),
(117,-55,o),
(174,-64,c),
(171,-106,l),
(122,-98,o),
(71,-91,o),
(26,-91,cs),
(-39,-91,o),
(-64,-116,o),
(-65,-148,cs),
(-66,-168,o),
(-53,-185,o),
(-29,-184,cs),
(2,-183,o),
(55,-152,o),
(67,8,cs),
(99,451,l),
(143,461,l),
(110,15,ls)
);
}
);
userData = {
com.hugojourdan.ColorFlow = {
"0" = 0;
"1" = 0;
"10" = 0;
"11" = 0;
"2" = 0;
"3" = 0;
"4" = 0;
"5" = 0;
"6" = 0;
"7" = 0;
"8" = 0;
"9" = 0;
};
};
width = 210;
},
{
anchors = (
{
name = top;
pos = (136,500);
}
);
layerId = "52319A01-0C76-4F01-98F2-7849B20FD9E6";
shapes = (
{
closed = 1;
nodes = (
(186,499,o),
(249,567,o),
(249,606,cs),
(249,646,o),
(176,691,o),
(140,691,cs),
(92,691,o),
(33,620,o),
(33,584,cs),
(33,545,o),
(105,499,o),
(142,499,cs)
);
},
{
closed = 1;
nodes = (
(188,-159,o),
(78,-243,o),
(-21,-243,cs),
(-94,-243,o),
(-145,-201,o),
(-140,-130,cs),
(-136,-72,o),
(-92,-4,o),
(4,-4,cs),
(90,-4,o),
(186,-8,o),
(264,-19,c),
(258,-113,l),
(174,-102,o),
(42,-101,o),
(-10,-101,cs),
(-36,-101,o),
(-45,-111,o),
(-46,-121,cs),
(-47,-130,o),
(-42,-135,o),
(-33,-135,cs),
(-13,-135,o),
(0,-118,o),
(9,0,cs),
(41,444,l),
(231,468,l),
(199,0,ls)
);
}
);
userData = {
com.hugojourdan.ColorFlow = {
"0" = 0;
"1" = 0;
"10" = 0;
"11" = 0;
"2" = 0;
"3" = 0;
"4" = 0;
"5" = 0;
"6" = 0;
"7" = 0;
"8" = 0;
"9" = 0;
};
};
width = 240;
}
);
unicode = 669;
},
{
color = 3;
glyphname = jdotlessstroke;
lastChange = "2024-02-12 16:50:04 +0000";
layers = (
{
anchors = (
{
name = top;
pos = (121,500);
}
);
layerId = m001;
shapes = (
{
closed = 1;
nodes = (
(12,-225,o),
(98,-153,o),
(108,-12,cs),
(143,461,l),
(99,451,l),
(66,-1,ls),
(56,-138,o),
(27,-186,o),
(-43,-186,cs),
(-47,-186,o),
(-55,-186,o),
(-62,-185,c),
(-56,-225,l)
);
},
{
closed = 1;
nodes = (
(196,222,l),
(198,259,l),
(14,259,l),
(12,222,l)
);
}
);
userData = {
com.hugojourdan.ColorFlow = {
"0" = 0;
"1" = 0;
"10" = 0;
"11" = 0;
"2" = 0;
"3" = 0;
"4" = 0;
"5" = 0;
"6" = 0;
"7" = 0;
"8" = 0;
"9" = 0;
};
};
width = 210;
},
{
anchors = (
{
name = top;
pos = (136,500);
}
);
layerId = "52319A01-0C76-4F01-98F2-7849B20FD9E6";
shapes = (
{
closed = 1;
nodes = (
(110,-234,o),
(190,-134,o),
(200,18,cs),
(231,468,l),
(41,444,l),
(8,-8,l),
(2,-61,o),
(-35,-72,o),
(-62,-72,cs),
(-90,-72,o),
(-112,-71,o),
(-126,-68,c),
(-106,-234,l)
);
},
{
closed = 1;
nodes = (
(287,177,l),
(297,306,l),
(-40,306,l),
(-50,177,l)
);
}
);
userData = {
com.hugojourdan.ColorFlow = {
"0" = 0;
"1" = 0;
"10" = 0;
"11" = 0;
"2" = 0;
"3" = 0;
"4" = 0;
"5" = 0;
"6" = 0;
"7" = 0;
"8" = 0;
"9" = 0;
};
};
width = 240;
}
);
unicode = 607;
},
{
color = 3;
glyphname = jdotlessstrokehook;
lastChange = "2024-02-12 16:50:04 +0000";
layers = (
{
layerId = m001;
shapes = (
{
ref = esh;
},
{
closed = 1;
nodes = (
(194,232,l),
(196,269,l),
(13,269,l),
(11,232,l)
);
}
);
userData = {
com.hugojourdan.ColorFlow = {
"0" = 0;
"1" = 0;
"10" = 0;
"11" = 0;
"2" = 0;
"3" = 0;
"4" = 0;
"5" = 0;
"6" = 0;
"7" = 0;
"8" = 0;
"9" = 0;
};
};
width = 211;
},
{
layerId = "52319A01-0C76-4F01-98F2-7849B20FD9E6";
shapes = (
{
ref = esh;
},
{
closed = 1;
nodes = (
(301,177,l),
(311,306,l),
(-16,306,l),
(-26,177,l)
);
}
);
userData = {
com.hugojourdan.ColorFlow = {
"0" = 0;
"1" = 0;
"10" = 0;
"11" = 0;
"2" = 0;
"3" = 0;
"4" = 0;
"5" = 0;
"6" = 0;
"7" = 0;
"8" = 0;
"9" = 0;
};
};
width = 274;
}
);
metricLeft = esh;
metricRight = esh;
unicode = 644;
},
{
color = 4;
glyphname = k;
kernLeft = KO_i;
kernRight = KO_k;
lastChange = "2023-12-16 23:22:53 +0000";
layers = (
{
anchors = (
{
name = bottom;
pos = (198,0);
}
);
layerId = m001;
shapes = (
{
closed = 1;
nodes = (
(349,19,l),
(327,46,o),
(305,69,o),
(175,265,c),
(246,315,o),
(298,363,o),
(357,450,c),
(312,450,l),
(264,379,o),
(218,329,o),
(144,277,cs),
(138,273,o),
(133,270,o),
(127,266,c),
(158,697,l),
(113,683,l),
(64,0,l),
(108,0,l),
(127,263,l),
(275,29,o),
(297,9,o),
(314,-6,c)
);
}
);
userData = {
com.hugojourdan.ColorFlow = {
"0" = 0;
"1" = 0;
"10" = 0;
"11" = 0;
"2" = 0;
"3" = 0;
"4" = 0;
"5" = 0;
"6" = 0;
"7" = 0;
"8" = 0;
"9" = 0;
};
};
width = 367;
},
{
anchors = (
{
name = bottom;
pos = (292,0);
}
);
layerId = "52319A01-0C76-4F01-98F2-7849B20FD9E6";
shapes = (
{
closed = 1;
nodes = (
(535,26,l),
(503,64,o),
(477,102,o),
(403,237,c),
(465,307,o),
(527,401,o),
(539,450,c),
(348,450,l),
(321,386,o),
(273,314,o),
(241,268,cs),
(235,259,o),
(229,252,o),
(224,245,c),
(258,717,l),
(68,703,l),
(17,0,l),
(206,0,l),
(223,239,l),
(278,94,o),
(312,28,o),
(340,-13,c)
);
}
);
userData = {
com.hugojourdan.ColorFlow = {
"0" = 0;
"1" = 0;
"10" = 0;
"11" = 0;
"2" = 0;
"3" = 0;
"4" = 0;
"5" = 0;
"6" = 0;
"7" = 0;
"8" = 0;
"9" = 0;
};
};
width = 509;
}
);
unicode = 107;
userData = {
KernOnName = k;
};
},
{
color = 3;
glyphname = khook;
lastChange = "2024-02-12 16:50:04 +0000";
layers = (
{
anchors = (
{
name = bottom;
pos = (198,0);
}
);
layerId = m001;
shapes = (
{
closed = 1;
nodes = (
(150,610,o),
(179,658,o),
(249,658,cs),
(253,658,o),
(261,658,o),
(268,657,c),
(262,697,l),
(194,697,o),
(109,625,o),
(99,484,cs),
(64,0,l),
(108,0,l),
(127,263,l),
(275,29,o),
(297,9,o),
(314,-6,c),
(349,19,l),
(327,46,o),
(305,69,o),
(175,265,c),
(246,315,o),
(298,363,o),
(357,450,c),
(312,450,l),
(264,379,o),
(218,329,o),
(144,277,cs),
(138,273,o),
(133,270,o),
(127,266,c),
(140,473,ls)
);
}
);
userData = {
com.hugojourdan.ColorFlow = {
"0" = 0;
"1" = 0;
"10" = 0;
"11" = 0;
"2" = 0;
"3" = 0;
"4" = 0;
"5" = 0;
"6" = 0;
"7" = 0;
"8" = 0;
"9" = 0;
};
};
width = 367;
},
{
anchors = (
{
name = bottom;
pos = (292,0);
}
);
layerId = "52319A01-0C76-4F01-98F2-7849B20FD9E6";
shapes = (
{
closed = 1;
nodes = (
(246,544,o),
(285,555,o),
(312,555,cs),
(340,555,o),
(362,554,o),
(376,551,c),
(356,717,l),
(184,717,o),
(61,617,o),
(50,465,cs),
(17,0,l),
(206,0,l),
(223,239,l),
(278,94,o),
(312,28,o),
(340,-13,c),
(535,26,l),
(503,64,o),
(477,102,o),
(403,237,c),
(465,307,o),
(527,401,o),
(539,450,c),
(348,450,l),
(321,386,o),
(273,314,o),
(241,268,cs),
(235,259,o),
(229,252,o),
(224,245,c),
(242,491,ls)
);
}
);
userData = {
com.hugojourdan.ColorFlow = {
"0" = 0;
"1" = 0;
"10" = 0;
"11" = 0;
"2" = 0;
"3" = 0;
"4" = 0;
"5" = 0;
"6" = 0;
"7" = 0;
"8" = 0;
"9" = 0;
};
};
width = 509;
}
);
unicode = 409;
},
{
color = 4;
glyphname = l;
kernLeft = KO_l;
kernRight = KO_l;
lastChange = "2023-12-16 23:22:53 +0000";
layers = (
{
anchors = (
{
name = bottom;
pos = (98,0);
},
{
name = top;
pos = (134,920);
},
{
name = topright;
pos = (196,450);
}
);
layerId = m001;
shapes = (
{
closed = 1;
nodes = (
(136,-9,o),
(158,3,o),
(195,31,c),
(191,62,l),
(168,44,o),
(145,33,o),
(133,33,cs),
(120,33,o),
(105,40,o),
(105,69,cs),
(105,75,o),
(107,102,o),
(150,697,c),
(105,687,l),
(90,482,o),
(75,257,o),
(60,52,cs),
(57,11,o),
(90,-9,o),
(114,-9,cs)
);
}
);
userData = {
com.hugojourdan.ColorFlow = {
"0" = 0;
"1" = 0;
"10" = 0;
"11" = 0;
"2" = 0;
"3" = 0;
"4" = 0;
"5" = 0;
"6" = 0;
"7" = 0;
"8" = 0;
"9" = 0;
};
};
width = 223;
},
{
anchors = (
{
name = bottom;
pos = (203,0);
},
{
name = top;
pos = (134,38);
},
{
name = topright;
pos = (309,450);
}
);
layerId = "52319A01-0C76-4F01-98F2-7849B20FD9E6";
shapes = (
{
closed = 1;
nodes = (
(179,-20,o),
(235,-1,o),
(292,22,c),
(274,151,l),
(264,146,o),
(246,139,o),
(231,143,cs),
(216,147,o),
(214,164,o),
(214,171,cs),
(214,250,o),
(237,440,o),
(260,717,c),
(70,692,l),
(51,479,o),
(20,219,o),
(20,100,cs),
(20,16,o),
(64,-20,o),
(136,-20,cs)
);
}
);
userData = {
com.hugojourdan.ColorFlow = {
"0" = 0;
"1" = 0;
"10" = 0;
"11" = 0;
"2" = 0;
"3" = 0;
"4" = 0;
"5" = 0;
"6" = 0;
"7" = 0;
"8" = 0;
"9" = 0;
};
};
width = 303;
},
{
anchors = (
{
name = bottom;
pos = (98,0);
},
{
name = top;
pos = (134,920);
},
{
name = topright;
pos = (196,450);
}
);
associatedMasterId = m001;
layerId = "40B083A7-AAE8-4CE3-99F8-ECC7B887B2BB";
name = "17 de oct. de 23, 0:43";
shapes = (
{
closed = 1;
nodes = (
(136,-9,o),
(160,5,o),
(200,35,c),
(189,61,l),
(169,44,o),
(145,33,o),
(133,33,cs),
(120,33,o),
(105,40,o),
(105,69,cs),
(105,75,o),
(108,82,o),
(149,677,c),
(104,667,l),
(89,462,o),
(75,257,o),
(60,52,cs),
(57,11,o),
(90,-9,o),
(114,-9,cs)
);
}
);
visible = 1;
width = 223;
},
{
anchors = (
{
name = bottom;
pos = (203,0);
},
{
name = top;
pos = (134,38);
},
{
name = topright;
pos = (309,450);
}
);
associatedMasterId = "52319A01-0C76-4F01-98F2-7849B20FD9E6";
layerId = "2B9C1E5C-9010-467D-ACE2-C4A55EE91126";
name = "17 de oct. de 23, 0:43";
shapes = (
{
closed = 1;
nodes = (
(183,-20,o),
(248,1,o),
(302,28,c),
(281,153,l),
(267,149,o),
(254,142,o),
(235,142,cs),
(218,142,o),
(214,164,o),
(214,171,cs),
(214,250,o),
(239,458,o),
(262,735,c),
(72,710,l),
(53,497,o),
(20,219,o),
(20,100,cs),
(20,16,o),
(64,-20,o),
(136,-20,cs)
);
}
);
visible = 1;
width = 303;
}
);
unicode = 108;
userData = {
KernOnName = l;
};
},
{
color = 3;
glyphname = lbelt;
lastChange = "2024-02-12 16:50:04 +0000";
layers = (
{
layerId = m001;
shapes = (
{
pos = (69,0);
ref = l;
},
{
closed = 1;
nodes = (
(272,378,l),
(205,363,o),
(172,359,o),
(128,359,cs),
(84,359,o),
(52,371,o),
(54,399,cs),
(56,419,o),
(73,434,o),
(97,435,cs),
(122,436,o),
(156,420,o),
(153,386,c),
(189,394,l),
(180,458,o),
(135,471,o),
(97,471,cs),
(51,471,o),
(15,435,o),
(12,397,cs),
(9,347,o),
(50,318,o),
(140,320,cs),
(180,321,o),
(204,321,o),
(269,337,c)
);
}
);
userData = {
com.hugojourdan.ColorFlow = {
"0" = 0;
"1" = 0;
"10" = 0;
"11" = 0;
"2" = 0;
"3" = 0;
"4" = 0;
"5" = 0;
"6" = 0;
"7" = 0;
"8" = 0;
"9" = 0;
};
};
width = 292;
},
{
layerId = "52319A01-0C76-4F01-98F2-7849B20FD9E6";
shapes = (
{
pos = (130,0);
ref = l;
},
{
closed = 1;
nodes = (
(428,328,l),
(287,313,o),
(211,324,o),
(157,324,cs),
(130,324,o),
(121,337,o),
(121,345,cs),
(122,358,o),
(130,365,o),
(143,366,cs),
(154,367,o),
(166,360,o),
(166,346,c),
(232,377,l),
(232,422,o),
(183,470,o),
(129,470,cs),
(62,470,o),
(12,413,o),
(8,346,cs),
(0,245,o),
(90,206,o),
(149,206,cs),
(327,206,o),
(373,209,o),
(420,213,c)
);
}
);
userData = {
com.hugojourdan.ColorFlow = {
"0" = 0;
"1" = 0;
"10" = 0;
"11" = 0;
"2" = 0;
"3" = 0;
"4" = 0;
"5" = 0;
"6" = 0;
"7" = 0;
"8" = 0;
"9" = 0;
};
};
width = 433;
}
);
unicode = 620;
},
{
color = 3;
glyphname = lezh;
lastChange = "2024-02-12 16:50:04 +0000";
layers = (
{
anchors = (
{
name = bottom;
pos = (98,0);
},
{
name = top;
pos = (134,920);
}
);
layerId = m001;
shapes = (
{
closed = 1;
nodes = (
(100,0,l),
(106,72,o),
(126,363,o),
(150,697,c),
(105,687,l),
(92,510,o),
(70,181,o),
(57,0,c)
);
},
{
pos = (87,0);
ref = ezh;
}
);
userData = {
com.hugojourdan.ColorFlow = {
"0" = 0;
"1" = 0;
"10" = 0;
"11" = 0;
"2" = 0;
"3" = 0;
"4" = 0;
"5" = 0;
"6" = 0;
"7" = 0;
"8" = 0;
"9" = 0;
};
};
width = 461;
},
{
anchors = (
{
name = bottom;
pos = (203,0);
},
{
name = top;
pos = (134,38);
}
);
layerId = "52319A01-0C76-4F01-98F2-7849B20FD9E6";
shapes = (
{
closed = 1;
nodes = (
(199,0,l),
(207,101,o),
(244,524,o),
(260,717,c),
(70,692,l),
(58,555,o),
(20,126,o),
(9,0,c)
);
},
{
pos = (192,0);
ref = ezh;
}
);
userData = {
com.hugojourdan.ColorFlow = {
"0" = 0;
"1" = 0;
"10" = 0;
"11" = 0;
"2" = 0;
"3" = 0;
"4" = 0;
"5" = 0;
"6" = 0;
"7" = 0;
"8" = 0;
"9" = 0;
};
};
width = 636;
}
);
metricRight = ezh;
unicode = 622;
},
{
color = 3;
glyphname = lhookretroflex;
lastChange = "2024-02-12 16:50:04 +0000";
layers = (
{
anchors = (
{
name = bottom;
pos = (98,0);
},
{
name = top;
pos = (134,920);
},
{
name = topright;
pos = (196,450);
}
);
layerId = m001;
shapes = (
{
closed = 1;
nodes = (
(105,93,o),
(135,485,o),
(150,697,c),
(105,687,l),
(90,482,o),
(57,94,o),
(57,11,cs),
(57,-76,o),
(60,-94,o),
(79,-129,cs),
(111,-186,o),
(169,-217,o),
(227,-221,c),
(241,-184,l),
(207,-181,o),
(158,-169,o),
(130,-133,cs),
(104,-101,o),
(105,-57,o),
(105,0,c)
);
}
);
userData = {
com.hugojourdan.ColorFlow = {
"0" = 0;
"1" = 0;
"10" = 0;
"11" = 0;
"2" = 0;
"3" = 0;
"4" = 0;
"5" = 0;
"6" = 0;
"7" = 0;
"8" = 0;
"9" = 0;
};
};
width = 223;
},
{
anchors = (
{
name = bottom;
pos = (203,0);
},
{
name = top;
pos = (134,38);
},
{
name = topright;
pos = (309,450);
}
);
layerId = "52319A01-0C76-4F01-98F2-7849B20FD9E6";
shapes = (
{
closed = 1;
nodes = (
(216,85,o),
(237,440,o),
(260,717,c),
(70,692,l),
(51,479,o),
(21,114,o),
(21,-5,cs),
(21,-64,o),
(37,-128,o),
(84,-170,cs),
(128,-211,o),
(184,-232,o),
(235,-237,c),
(291,-93,l),
(262,-88,o),
(248,-79,o),
(236,-64,cs),
(220,-46,o),
(215,-29,o),
(216,6,cs)
);
}
);
userData = {
com.hugojourdan.ColorFlow = {
"0" = 0;
"1" = 0;
"10" = 0;
"11" = 0;
"2" = 0;
"3" = 0;
"4" = 0;
"5" = 0;
"6" = 0;
"7" = 0;
"8" = 0;
"9" = 0;
};
};
width = 303;
}
);
unicode = 621;
},
{
color = 3;
glyphname = lsdigraph;
lastChange = "2024-02-12 16:50:04 +0000";
layers = (
{
anchors = (
{
name = bottom;
pos = (98,0);
},
{
name = top;
pos = (134,920);
},
{
name = topright;
pos = (196,450);
}
);
layerId = m001;
shapes = (
{
closed = 1;
nodes = (
(133,-9,o),
(152,0,o),
(178,13,c),
(204,5,o),
(245,-9,o),
(301,-9,cs),
(333,-9,o),
(427,18,o),
(427,119,cs),
(427,145,o),
(417,171,o),
(379,210,cs),
(314,272,ls),
(270,314,o),
(269,336,o),
(269,358,cs),
(269,396,o),
(294,421,o),
(330,421,cs),
(364,421,o),
(418,403,o),
(441,398,c),
(454,441,l),
(440,448,o),
(380,459,o),
(349,459,cs),
(305,459,o),
(227,423,o),
(227,341,cs),
(227,299,o),
(244,275,o),
(278,241,cs),
(337,184,ls),
(375,148,o),
(384,121,o),
(384,94,cs),
(384,63,o),
(371,28,o),
(323,28,cs),
(272,28,o),
(230,44,o),
(191,62,c),
(168,44,o),
(145,33,o),
(133,33,cs),
(120,33,o),
(105,40,o),
(105,69,cs),
(105,75,o),
(107,102,o),
(150,697,c),
(105,687,l),
(90,482,o),
(75,257,o),
(60,52,cs),
(57,11,o),
(90,-9,o),
(114,-9,cs)
);
}
);
userData = {
com.hugojourdan.ColorFlow = {
"0" = 0;
"1" = 0;
"10" = 0;
"11" = 0;
"2" = 0;
"3" = 0;
"4" = 0;
"5" = 0;
"6" = 0;
"7" = 0;
"8" = 0;
"9" = 0;
};
};
width = 483;
},
{
anchors = (
{
name = bottom;
pos = (203,0);
},
{
name = top;
pos = (134,38);
},
{
name = topright;
pos = (309,450);
}
);
layerId = "52319A01-0C76-4F01-98F2-7849B20FD9E6";
shapes = (
{
closed = 1;
nodes = (
(173,-20,o),
(219,-6,o),
(268,12,c),
(305,-6,o),
(361,-20,o),
(413,-20,cs),
(580,-20,o),
(634,87,o),
(634,155,cs),
(634,237,o),
(597,268,o),
(542,290,cs),
(507,304,ls),
(484,313,o),
(454,321,o),
(454,332,cs),
(454,338,o),
(457,348,o),
(478,348,cs),
(524,348,o),
(561,334,o),
(603,306,c),
(643,437,l),
(614,452,o),
(565,470,o),
(486,470,cs),
(344,470,o),
(277,393,o),
(277,311,cs),
(277,241,o),
(304,199,o),
(361,172,cs),
(412,148,ls),
(439,135,o),
(453,132,o),
(453,124,cs),
(453,110,o),
(429,112,o),
(428,112,cs),
(402,112,o),
(351,121,o),
(294,162,c),
(264,146,o),
(246,139,o),
(231,143,cs),
(216,147,o),
(214,164,o),
(214,171,cs),
(214,250,o),
(237,440,o),
(260,717,c),
(70,692,l),
(51,479,o),
(20,219,o),
(20,100,cs),
(20,16,o),
(64,-20,o),
(136,-20,cs)
);
}
);
userData = {
com.hugojourdan.ColorFlow = {
"0" = 0;
"1" = 0;
"10" = 0;
"11" = 0;
"2" = 0;
"3" = 0;
"4" = 0;
"5" = 0;
"6" = 0;
"7" = 0;
"8" = 0;
"9" = 0;
};
};
width = 650;
},
{
anchors = (
{
name = bottom;
pos = (203,0);
},
{
name = top;
pos = (134,38);
},
{
name = topright;
pos = (309,450);
}
);
associatedMasterId = "52319A01-0C76-4F01-98F2-7849B20FD9E6";
layerId = "5C20A032-7C66-4112-AEF3-DF317C6F0A74";
name = "14 de dic. de 23, 10:48";
shapes = (
{
closed = 1;
nodes = (
(179,-20,o),
(235,-1,o),
(292,22,c),
(274,151,l),
(264,146,o),
(246,139,o),
(231,143,cs),
(216,147,o),
(214,164,o),
(214,171,cs),
(214,250,o),
(237,440,o),
(260,717,c),
(70,692,l),
(51,479,o),
(20,219,o),
(20,100,cs),
(20,16,o),
(64,-20,o),
(136,-20,cs)
);
},
{
closed = 1;
nodes = (
(580,-20,o),
(634,87,o),
(634,155,cs),
(634,237,o),
(597,268,o),
(542,290,cs),
(507,304,ls),
(484,313,o),
(454,321,o),
(454,332,cs),
(454,338,o),
(457,348,o),
(478,348,cs),
(524,348,o),
(561,334,o),
(603,306,c),
(643,437,l),
(614,452,o),
(565,470,o),
(486,470,cs),
(344,470,o),
(277,393,o),
(277,311,cs),
(277,241,o),
(304,199,o),
(361,172,cs),
(412,148,ls),
(439,135,o),
(453,132,o),
(453,124,cs),
(453,110,o),
(429,112,o),
(428,112,cs),
(402,112,o),
(351,121,o),
(294,162,c),
(254,20,l),
(290,-2,o),
(354,-20,o),
(413,-20,cs)
);
}
);
userData = {
com.hugojourdan.ColorFlow = {
"0" = 0;
"1" = 0;
"10" = 0;
"11" = 0;
"2" = 0;
"3" = 0;
"4" = 0;
"5" = 0;
"6" = 0;
"7" = 0;
"8" = 0;
"9" = 0;
};
};
visible = 1;
width = 650;
},
{
anchors = (
{
name = bottom;
pos = (98,0);
},
{
name = top;
pos = (134,920);
},
{
name = topright;
pos = (196,450);
}
);
associatedMasterId = m001;
layerId = "21AE9548-56A6-4266-884B-35FDA4E07A93";
name = "14 de dic. de 23, 10:49";
shapes = (
{
closed = 1;
nodes = (
(136,-9,o),
(158,3,o),
(195,31,c),
(191,62,l),
(168,44,o),
(145,33,o),
(133,33,cs),
(120,33,o),
(105,40,o),
(105,69,cs),
(105,75,o),
(107,102,o),
(150,697,c),
(105,687,l),
(90,482,o),
(75,257,o),
(60,52,cs),
(57,11,o),
(90,-9,o),
(114,-9,cs)
);
},
{
closed = 1;
nodes = (
(333,-9,o),
(427,18,o),
(427,119,cs),
(427,145,o),
(417,171,o),
(379,210,cs),
(314,272,ls),
(270,314,o),
(269,336,o),
(269,358,cs),
(269,396,o),
(294,421,o),
(330,421,cs),
(364,421,o),
(418,403,o),
(441,398,c),
(454,441,l),
(440,448,o),
(380,459,o),
(349,459,cs),
(305,459,o),
(227,423,o),
(227,341,cs),
(227,299,o),
(244,275,o),
(278,241,cs),
(337,184,ls),
(375,148,o),
(384,121,o),
(384,94,cs),
(384,63,o),
(371,28,o),
(323,28,cs),
(271,28,o),
(229,44,o),
(190,57,c),
(178,13,l),
(204,5,o),
(245,-9,o),
(301,-9,cs)
);
}
);
userData = {
com.hugojourdan.ColorFlow = {
"0" = 0;
"1" = 0;
"10" = 0;
"11" = 0;
"2" = 0;
"3" = 0;
"4" = 0;
"5" = 0;
"6" = 0;
"7" = 0;
"8" = 0;
"9" = 0;
};
};
width = 483;
}
);
metricLeft = l;
metricRight = s;
unicode = 682;
},
{
color = 4;
glyphname = lslash;
lastChange = "2023-10-23 16:22:14 +0000";
layers = (
{
layerId = m001;
shapes = (
{
closed = 1;
nodes = (
(213,349,l),
(217,391,l),
(27,308,l),
(23,266,l)
);
},
{
ref = l;
}
);
userData = {
com.hugojourdan.ColorFlow = {
"0" = 0;
"1" = 0;
"10" = 0;
"11" = 0;
"2" = 0;
"3" = 0;
"4" = 0;
"5" = 0;
"6" = 0;
"7" = 0;
"8" = 0;
"9" = 0;
};
};
width = 251;
},
{
layerId = "52319A01-0C76-4F01-98F2-7849B20FD9E6";
shapes = (
{
closed = 1;
nodes = (
(297,353,l),
(305,489,l),
(-5,363,l),
(-13,226,l)
);
},
{
ref = l;
}
);
userData = {
com.hugojourdan.ColorFlow = {
"0" = 0;
"1" = 0;
"10" = 0;
"11" = 0;
"2" = 0;
"3" = 0;
"4" = 0;
"5" = 0;
"6" = 0;
"7" = 0;
"8" = 0;
"9" = 0;
};
};
width = 306;
}
);
unicode = 322;
},
{
color = 3;
glyphname = lzdigraph;
lastChange = "2024-02-12 16:50:04 +0000";
layers = (
{
layerId = m001;
shapes = (
{
closed = 1;
nodes = (
(100,0,l),
(150,697,l),
(105,687,l),
(56,0,l)
);
},
{
closed = 1;
nodes = (
(464,0,l),
(473,41,l),
(231,37,l),
(472,401,l),
(478,450,l),
(117,450,l),
(111,412,l),
(430,414,l),
(188,46,l),
(184,0,l)
);
}
);
userData = {
com.hugojourdan.ColorFlow = {
"0" = 0;
"1" = 0;
"10" = 0;
"11" = 0;
"2" = 0;
"3" = 0;
"4" = 0;
"5" = 0;
"6" = 0;
"7" = 0;
"8" = 0;
"9" = 0;
};
};
width = 508;
},
{
layerId = "52319A01-0C76-4F01-98F2-7849B20FD9E6";
shapes = (
{
closed = 1;
nodes = (
(200,0,l),
(258,717,l),
(68,692,l),
(10,0,l)
);
},
{
closed = 1;
nodes = (
(620,0,l),
(653,148,l),
(500,140,l),
(678,375,l),
(680,450,l),
(146,450,l),
(124,303,l),
(420,312,l),
(244,76,l),
(240,0,l)
);
}
);
userData = {
com.hugojourdan.ColorFlow = {
"0" = 0;
"1" = 0;
"10" = 0;
"11" = 0;
"2" = 0;
"3" = 0;
"4" = 0;
"5" = 0;
"6" = 0;
"7" = 0;
"8" = 0;
"9" = 0;
};
};
width = 670;
}
);
metricLeft = l;
metricRight = z;
unicode = 683;
},
{
color = 4;
glyphname = m;
kernLeft = KO_r;
kernRight = KO_n;
lastChange = "2023-12-16 23:22:17 +0000";
layers = (
{
anchors = (
{
name = top;
pos = (343,500);
}
);
layerId = m001;
shapes = (
{
closed = 1;
nodes = (
(107,0,l),
(121,181,l),
(135,333,o),
(222,416,o),
(262,416,cs),
(304,416,o),
(310,388,o),
(310,316,cs),
(310,254,o),
(289,47,o),
(286,-1,c),
(330,0,l),
(334,32,o),
(344,129,o),
(351,217,c),
(375,348,o),
(451,416,o),
(487,416,cs),
(529,416,o),
(535,389,o),
(535,316,cs),
(535,255,o),
(517,48,o),
(514,0,c),
(558,0,l),
(564,51,o),
(583,268,o),
(583,347,cs),
(583,421,o),
(566,459,o),
(512,459,cs),
(461,459,o),
(403,408,o),
(357,309,c),
(360,355,o),
(369,459,o),
(288,459,cs),
(236,459,o),
(178,408,o),
(131,308,c),
(127,459,l),
(95,449,l),
(64,0,l)
);
}
);
userData = {
com.hugojourdan.ColorFlow = {
"0" = 0;
"1" = 0;
"10" = 0;
"11" = 0;
"2" = 0;
"3" = 0;
"4" = 0;
"5" = 0;
"6" = 0;
"7" = 0;
"8" = 0;
"9" = 0;
};
};
width = 648;
},
{
anchors = (
{
name = top;
pos = (416,500);
}
);
layerId = "52319A01-0C76-4F01-98F2-7849B20FD9E6";
shapes = (
{
closed = 1;
nodes = (
(209,0,l),
(220,159,l),
(231,322,o),
(273,322,o),
(292,322,cs),
(304,322,o),
(317,315,o),
(317,286,cs),
(317,235,o),
(293,51,o),
(286,3,c),
(476,0,l),
(477,25,o),
(485,86,o),
(503,224,cs),
(519,322,o),
(552,322,o),
(567,322,cs),
(580,322,o),
(593,312,o),
(593,284,cs),
(593,233,o),
(560,48,o),
(554,0,c),
(744,0,l),
(746,51,o),
(787,257,o),
(787,336,cs),
(787,432,o),
(737,470,o),
(658,470,cs),
(607,470,o),
(555,441,o),
(508,381,c),
(493,444,o),
(447,470,o),
(382,470,cs),
(330,470,o),
(278,440,o),
(230,379,c),
(225,470,l),
(48,445,l),
(17,0,l)
);
}
);
userData = {
com.hugojourdan.ColorFlow = {
"0" = 0;
"1" = 0;
"10" = 0;
"11" = 0;
"2" = 0;
"3" = 0;
"4" = 0;
"5" = 0;
"6" = 0;
"7" = 0;
"8" = 0;
"9" = 0;
};
};
width = 808;
},
{
anchors = (
{
name = top;
pos = (416,500);
}
);
associatedMasterId = "52319A01-0C76-4F01-98F2-7849B20FD9E6";
layerId = "6B65808E-F0EF-4E33-B7E2-9969608C0484";
name = "24 de ago. de 23, 12:27";
shapes = (
{
closed = 1;
nodes = (
(209,0,l),
(219,148,ls),
(219,151,o),
(219,153,o),
(220,156,c),
(220,159,ls),
(231,322,o),
(273,322,o),
(292,322,cs),
(304,322,o),
(317,315,o),
(317,286,cs),
(317,235,o),
(293,51,o),
(286,3,c),
(476,0,l),
(477,25,o),
(485,86,o),
(494,151,c),
(495,148,l),
(496,157,o),
(496,166,o),
(497,174,cs),
(503,224,ls),
(519,322,o),
(552,322,o),
(567,322,cs),
(580,322,o),
(593,312,o),
(593,284,cs),
(593,233,o),
(560,48,o),
(554,0,c),
(744,0,l),
(746,51,o),
(787,257,o),
(787,336,cs),
(787,432,o),
(737,470,o),
(658,470,cs),
(607,470,o),
(555,441,o),
(508,381,c),
(493,444,o),
(447,470,o),
(382,470,cs),
(330,470,o),
(278,440,o),
(230,379,c),
(225,470,l),
(48,445,l),
(17,0,l)
);
},
{
closed = 1;
nodes = (
(209,0,l),
(219,148,ls),
(219,151,o),
(219,153,o),
(220,156,c),
(220,159,ls),
(231,322,o),
(273,322,o),
(292,322,cs),
(304,322,o),
(317,315,o),
(317,286,cs),
(317,235,o),
(293,51,o),
(286,3,c),
(476,0,l),
(477,25,o),
(485,86,o),
(494,151,c),
(495,148,l),
(496,157,o),
(496,166,o),
(497,174,cs),
(503,224,ls),
(519,322,o),
(552,322,o),
(567,322,cs),
(580,322,o),
(593,312,o),
(593,284,cs),
(593,233,o),
(560,48,o),
(554,0,c),
(744,0,l),
(746,51,o),
(787,257,o),
(787,336,cs),
(787,432,o),
(737,470,o),
(658,470,cs),
(607,470,o),
(555,441,o),
(508,381,c),
(493,444,o),
(447,470,o),
(382,470,cs),
(330,470,o),
(278,440,o),
(230,379,c),
(225,470,l),
(48,445,l),
(17,0,l)
);
}
);
visible = 1;
width = 808;
},
{
anchors = (
{
name = top;
pos = (343,500);
}
);
associatedMasterId = m001;
layerId = "CEFA5DC5-86DC-4120-A77F-F4EE57379BBF";
name = "24 de ago. de 23, 12:28";
shapes = (
{
closed = 1;
nodes = (
(330,0,l),
(334,32,o),
(344,129,o),
(351,217,c),
(375,348,o),
(451,416,o),
(487,416,cs),
(529,416,o),
(535,389,o),
(535,316,cs),
(535,255,o),
(517,48,o),
(514,0,c),
(558,0,l),
(564,51,o),
(583,268,o),
(583,347,cs),
(583,421,o),
(566,459,o),
(512,459,cs),
(461,459,o),
(403,408,o),
(357,309,c),
(358,324,o),
(358,337,o),
(358,347,cs),
(358,421,o),
(341,459,o),
(288,459,cs),
(236,459,o),
(178,408,o),
(131,308,c),
(127,459,l),
(95,449,l),
(64,0,l),
(107,0,l),
(121,181,l),
(121,174,ls),
(135,333,o),
(222,416,o),
(262,416,cs),
(304,416,o),
(310,388,o),
(310,316,cs),
(310,254,o),
(289,47,o),
(286,-1,c)
);
},
{
closed = 1;
nodes = (
(330,0,l),
(334,32,o),
(344,129,o),
(351,217,c),
(375,348,o),
(451,416,o),
(487,416,cs),
(529,416,o),
(535,389,o),
(535,316,cs),
(535,255,o),
(517,48,o),
(514,0,c),
(558,0,l),
(564,51,o),
(583,268,o),
(583,347,cs),
(583,421,o),
(566,459,o),
(512,459,cs),
(461,459,o),
(403,408,o),
(357,309,c),
(358,324,o),
(358,337,o),
(358,347,cs),
(358,421,o),
(341,459,o),
(288,459,cs),
(236,459,o),
(178,408,o),
(131,308,c),
(127,459,l),
(95,449,l),
(64,0,l),
(107,0,l),
(121,181,l),
(121,174,ls),
(135,333,o),
(222,416,o),
(262,416,cs),
(304,416,o),
(310,388,o),
(310,316,cs),
(310,254,o),
(289,47,o),
(286,-1,c)
);
}
);
width = 648;
}
);
unicode = 109;
},
{
color = 3;
glyphname = mhook;
lastChange = "2024-02-12 16:50:04 +0000";
layers = (
{
anchors = (
{
name = top;
pos = (343,500);
}
);
layerId = m001;
shapes = (
{
closed = 1;
nodes = (
(583,421,o),
(566,459,o),
(512,459,cs),
(461,459,o),
(403,408,o),
(357,309,c),
(360,355,o),
(369,459,o),
(288,459,cs),
(236,459,o),
(178,408,o),
(131,308,c),
(127,459,l),
(95,449,l),
(64,0,l),
(107,0,l),
(121,181,l),
(135,333,o),
(222,416,o),
(262,416,cs),
(304,416,o),
(310,388,o),
(310,316,cs),
(310,254,o),
(289,47,o),
(286,-1,c),
(330,0,l),
(334,32,o),
(344,129,o),
(351,217,c),
(375,348,o),
(451,416,o),
(487,416,cs),
(529,416,o),
(535,389,o),
(535,316,cs),
(535,257,o),
(521,109,o),
(515,22,cs),
(501,-138,o),
(469,-186,o),
(398,-186,cs),
(395,-186,o),
(387,-185,o),
(380,-185,c),
(389,-230,l),
(448,-229,o),
(555,-155,o),
(562,43,cs),
(566,105,o),
(583,271,o),
(583,347,cs)
);
}
);
userData = {
com.hugojourdan.ColorFlow = {
"0" = 0;
"1" = 0;
"10" = 0;
"11" = 0;
"2" = 0;
"3" = 0;
"4" = 0;
"5" = 0;
"6" = 0;
"7" = 0;
"8" = 0;
"9" = 0;
};
};
width = 646;
},
{
anchors = (
{
name = top;
pos = (416,500);
}
);
layerId = "52319A01-0C76-4F01-98F2-7849B20FD9E6";
shapes = (
{
closed = 1;
nodes = (
(787,432,o),
(737,470,o),
(658,470,cs),
(607,470,o),
(555,441,o),
(508,381,c),
(493,444,o),
(447,470,o),
(382,470,cs),
(330,470,o),
(278,440,o),
(230,379,c),
(225,470,l),
(48,445,l),
(17,0,l),
(209,0,l),
(220,159,l),
(231,322,o),
(273,322,o),
(292,322,cs),
(304,322,o),
(317,315,o),
(317,286,cs),
(317,235,o),
(293,51,o),
(286,3,c),
(476,0,l),
(477,25,o),
(485,86,o),
(503,224,cs),
(519,322,o),
(552,322,o),
(567,322,cs),
(580,322,o),
(593,312,o),
(593,284,cs),
(593,231,o),
(564,-4,o),
(558,-29,cs),
(552,-58,o),
(516,-69,o),
(490,-69,cs),
(461,-69,o),
(442,-68,o),
(427,-65,c),
(444,-230,l),
(656,-233,o),
(719,-136,o),
(744,-37,cs),
(752,3,o),
(787,264,o),
(787,336,cs)
);
}
);
userData = {
com.hugojourdan.ColorFlow = {
"0" = 0;
"1" = 0;
"10" = 0;
"11" = 0;
"2" = 0;
"3" = 0;
"4" = 0;
"5" = 0;
"6" = 0;
"7" = 0;
"8" = 0;
"9" = 0;
};
};
width = 810;
}
);
metricLeft = m;
metricRight = eng;
unicode = 625;
},
{
color = 3;
glyphname = mlonglegturned;
lastChange = "2024-02-12 16:50:04 +0000";
layers = (
{
anchors = (
{
name = bottom;
pos = (305,-50);
}
);
layerId = m001;
shapes = (
{
closed = 1;
nodes = (
(538,-215,l),
(584,450,l),
(541,450,l),
(527,269,l),
(513,117,o),
(426,34,o),
(386,34,cs),
(344,34,o),
(338,62,o),
(338,134,cs),
(338,196,o),
(359,403,o),
(362,451,c),
(318,450,l),
(314,418,o),
(304,321,o),
(297,233,c),
(273,102,o),
(197,34,o),
(161,34,cs),
(119,34,o),
(113,61,o),
(113,134,cs),
(113,195,o),
(131,402,o),
(134,450,c),
(90,450,l),
(84,399,o),
(65,182,o),
(65,103,cs),
(65,29,o),
(82,-9,o),
(136,-9,cs),
(187,-9,o),
(245,42,o),
(291,141,c),
(288,95,o),
(279,-9,o),
(360,-9,cs),
(412,-9,o),
(472,42,o),
(519,142,c),
(494,-225,l)
);
}
);
userData = {
com.hugojourdan.ColorFlow = {
"0" = 0;
"1" = 0;
"10" = 0;
"11" = 0;
"2" = 0;
"3" = 0;
"4" = 0;
"5" = 0;
"6" = 0;
"7" = 0;
"8" = 0;
"9" = 0;
};
};
width = 648;
},
{
anchors = (
{
name = bottom;
pos = (388,-50);
}
);
layerId = "52319A01-0C76-4F01-98F2-7849B20FD9E6";
shapes = (
{
closed = 1;
nodes = (
(740,-219,l),
(787,450,l),
(595,450,l),
(584,291,l),
(573,128,o),
(531,128,o),
(512,128,cs),
(500,128,o),
(487,135,o),
(487,164,cs),
(487,215,o),
(511,399,o),
(518,447,c),
(328,450,l),
(327,425,o),
(319,364,o),
(301,226,cs),
(285,128,o),
(252,128,o),
(237,128,cs),
(224,128,o),
(211,138,o),
(211,166,cs),
(211,217,o),
(244,402,o),
(250,450,c),
(60,450,l),
(58,399,o),
(17,193,o),
(17,114,cs),
(17,18,o),
(67,-20,o),
(146,-20,cs),
(197,-20,o),
(249,9,o),
(296,69,c),
(311,6,o),
(357,-20,o),
(422,-20,cs),
(474,-20,o),
(526,10,o),
(574,71,c),
(550,-244,l)
);
}
);
userData = {
com.hugojourdan.ColorFlow = {
"0" = 0;
"1" = 0;
"10" = 0;
"11" = 0;
"2" = 0;
"3" = 0;
"4" = 0;
"5" = 0;
"6" = 0;
"7" = 0;
"8" = 0;
"9" = 0;
};
};
width = 805;
}
);
metricLeft = u;
metricRight = u;
unicode = 624;
},
{
color = 3;
glyphname = mmiddletilde;
lastChange = "2024-02-12 16:50:04 +0000";
layers = (
{
layerId = m001;
shapes = (
{
ref = m;
},
{
closed = 1;
nodes = (
(27,170,o),
(62,197,o),
(88,197,cs),
(114,197,o),
(517,164,o),
(553,164,cs),
(595,164,o),
(617,192,o),
(643,215,c),
(624,239,l),
(608,225,o),
(585,212,o),
(559,212,cs),
(530,212,o),
(142,240,o),
(100,240,cs),
(58,240,o),
(30,215,o),
(2,186,c),
(20,166,l)
);
}
);
userData = {
com.hugojourdan.ColorFlow = {
"0" = 0;
"1" = 0;
"10" = 0;
"11" = 0;
"2" = 0;
"3" = 0;
"4" = 0;
"5" = 0;
"6" = 0;
"7" = 0;
"8" = 0;
"9" = 0;
};
};
width = 648;
},
{
layerId = "52319A01-0C76-4F01-98F2-7849B20FD9E6";
shapes = (
{
ref = m;
},
{
closed = 1;
nodes = (
(-1,106,o),
(37,144,o),
(63,144,cs),
(89,144,o),
(688,111,o),
(724,111,cs),
(766,111,o),
(857,190,o),
(872,234,c),
(812,299,l),
(789,274,o),
(760,246,o),
(734,246,cs),
(705,246,o),
(117,282,o),
(75,282,cs),
(33,282,o),
(-49,190,o),
(-56,177,c),
(-5,98,l)
);
}
);
userData = {
com.hugojourdan.ColorFlow = {
"0" = 0;
"1" = 0;
"10" = 0;
"11" = 0;
"2" = 0;
"3" = 0;
"4" = 0;
"5" = 0;
"6" = 0;
"7" = 0;
"8" = 0;
"9" = 0;
};
};
width = 808;
}
);
unicode = 7535;
},
{
color = 4;
glyphname = n;
kernLeft = KO_r;
kernRight = KO_n;
lastChange = "2023-12-16 23:22:53 +0000";
layers = (
{
anchors = (
{
name = bottom;
pos = (198,0);
},
{
name = top;
pos = (249,500);
}
);
layerId = m001;
shapes = (
{
closed = 1;
nodes = (
(109,0,l),
(126,208,l),
(148,345,o),
(226,416,o),
(263,416,cs),
(305,416,o),
(318,389,o),
(318,316,cs),
(318,255,o),
(294,48,o),
(291,0,c),
(335,0,l),
(341,51,o),
(366,268,o),
(366,347,cs),
(366,421,o),
(342,459,o),
(288,459,cs),
(237,459,o),
(179,408,o),
(132,308,c),
(127,459,l),
(95,449,l),
(64,0,l)
);
}
);
userData = {
com.hugojourdan.ColorFlow = {
"0" = 0;
"1" = 0;
"10" = 0;
"11" = 0;
"2" = 0;
"3" = 0;
"4" = 0;
"5" = 0;
"6" = 0;
"7" = 0;
"8" = 0;
"9" = 0;
};
};
width = 429;
},
{
anchors = (
{
name = bottom;
pos = (245,0);
},
{
name = top;
pos = (260,500);
}
);
layerId = "52319A01-0C76-4F01-98F2-7849B20FD9E6";
shapes = (
{
closed = 1;
nodes = (
(207,0,l),
(217,168,ls),
(226,322,o),
(271,320,o),
(289,320,cs),
(301,320,o),
(314,310,o),
(314,284,cs),
(314,233,o),
(287,48,o),
(280,0,c),
(470,0,l),
(472,51,o),
(508,257,o),
(508,336,cs),
(508,432,o),
(459,470,o),
(380,470,cs),
(329,470,o),
(278,442,o),
(231,383,c),
(225,470,l),
(48,445,l),
(17,0,l)
);
}
);
userData = {
com.hugojourdan.ColorFlow = {
"0" = 0;
"1" = 0;
"10" = 0;
"11" = 0;
"2" = 0;
"3" = 0;
"4" = 0;
"5" = 0;
"6" = 0;
"7" = 0;
"8" = 0;
"9" = 0;
};
};
width = 531;
}
);
unicode = 110;
userData = {
KernOnName = n;
};
},
{
color = 3;
glyphname = nhookleft;
lastChange = "2024-02-12 16:50:04 +0000";
layers = (
{
anchors = (
{
name = bottom;
pos = (200,0);
},
{
name = top;
pos = (251,500);
}
);
layerId = m001;
shapes = (
{
closed = 1;
nodes = (
(127,208,l),
(149,345,o),
(228,416,o),
(265,416,cs),
(307,416,o),
(320,389,o),
(320,316,cs),
(320,255,o),
(296,48,o),
(293,0,c),
(337,0,l),
(343,51,o),
(368,268,o),
(368,347,cs),
(368,421,o),
(344,459,o),
(290,459,cs),
(239,459,o),
(181,408,o),
(134,308,c),
(129,459,l),
(97,449,l),
(66,0,ls),
(57,-137,o),
(27,-186,o),
(-43,-186,cs),
(-47,-186,o),
(-55,-186,o),
(-62,-185,c),
(-56,-225,l),
(12,-225,o),
(97,-153,o),
(109,-12,cs)
);
}
);
userData = {
com.hugojourdan.ColorFlow = {
"0" = 0;
"1" = 0;
"10" = 0;
"11" = 0;
"2" = 0;
"3" = 0;
"4" = 0;
"5" = 0;
"6" = 0;
"7" = 0;
"8" = 0;
"9" = 0;
};
};
width = 431;
},
{
anchors = (
{
name = bottom;
pos = (238,0);
},
{
name = top;
pos = (253,500);
}
);
layerId = "52319A01-0C76-4F01-98F2-7849B20FD9E6";
shapes = (
{
closed = 1;
nodes = (
(210,168,ls),
(220,322,o),
(264,320,o),
(282,320,cs),
(294,320,o),
(307,310,o),
(307,284,cs),
(307,233,o),
(280,48,o),
(273,0,c),
(463,0,l),
(465,51,o),
(501,257,o),
(501,336,cs),
(501,432,o),
(452,470,o),
(373,470,cs),
(322,470,o),
(271,442,o),
(224,383,c),
(218,470,l),
(41,445,l),
(8,-18,ls),
(4,-71,o),
(-35,-82,o),
(-62,-82,cs),
(-90,-82,o),
(-112,-81,o),
(-126,-78,c),
(-106,-244,l),
(66,-244,o),
(190,-144,o),
(200,8,cs)
);
}
);
userData = {
com.hugojourdan.ColorFlow = {
"0" = 0;
"1" = 0;
"10" = 0;
"11" = 0;
"2" = 0;
"3" = 0;
"4" = 0;
"5" = 0;
"6" = 0;
"7" = 0;
"8" = 0;
"9" = 0;
};
};
width = 524;
}
);
metricLeft = j;
metricRight = n;
unicode = 626;
},
{
color = 3;
glyphname = nhookretroflex;
lastChange = "2024-02-12 16:50:04 +0000";
layers = (
{
anchors = (
{
name = bottom;
pos = (198,0);
},
{
name = top;
pos = (249,500);
}
);
layerId = m001;
shapes = (
{
closed = 1;
nodes = (
(344,51,o),
(366,268,o),
(366,347,cs),
(366,421,o),
(342,459,o),
(288,459,cs),
(237,459,o),
(179,408,o),
(132,308,c),
(127,459,l),
(95,449,l),
(64,0,l),
(109,0,l),
(126,208,l),
(148,345,o),
(226,416,o),
(263,416,cs),
(305,416,o),
(318,389,o),
(318,316,cs),
(318,255,o),
(295,59,o),
(292,11,cs),
(286,-76,o),
(288,-94,o),
(304,-129,cs),
(332,-186,o),
(388,-217,o),
(446,-221,c),
(462,-184,l),
(429,-181,o),
(381,-169,o),
(355,-133,cs),
(331,-101,o),
(334,-57,o),
(339,0,cs)
);
}
);
userData = {
com.hugojourdan.ColorFlow = {
"0" = 0;
"1" = 0;
"10" = 0;
"11" = 0;
"2" = 0;
"3" = 0;
"4" = 0;
"5" = 0;
"6" = 0;
"7" = 0;
"8" = 0;
"9" = 0;
};
};
width = 429;
},
{
anchors = (
{
name = bottom;
pos = (245,0);
},
{
name = top;
pos = (260,500);
}
);
layerId = "52319A01-0C76-4F01-98F2-7849B20FD9E6";
shapes = (
{
closed = 1;
nodes = (
(477,57,o),
(508,257,o),
(508,336,cs),
(508,432,o),
(459,470,o),
(380,470,cs),
(329,470,o),
(278,442,o),
(231,383,c),
(225,470,l),
(48,445,l),
(17,0,l),
(207,0,l),
(217,168,ls),
(226,322,o),
(271,320,o),
(289,320,cs),
(301,320,o),
(314,310,o),
(314,284,cs),
(314,233,o),
(280,44,o),
(280,-5,cs),
(280,-64,o),
(296,-128,o),
(343,-170,cs),
(387,-211,o),
(443,-232,o),
(494,-237,c),
(550,-93,l),
(521,-88,o),
(507,-79,o),
(495,-64,cs),
(479,-46,o),
(474,-29,o),
(475,6,c)
);
}
);
userData = {
com.hugojourdan.ColorFlow = {
"0" = 0;
"1" = 0;
"10" = 0;
"11" = 0;
"2" = 0;
"3" = 0;
"4" = 0;
"5" = 0;
"6" = 0;
"7" = 0;
"8" = 0;
"9" = 0;
};
};
width = 531;
}
);
unicode = 627;
},
{
color = 3;
glyphname = nmiddletilde;
lastChange = "2024-02-12 16:50:04 +0000";
layers = (
{
layerId = m001;
shapes = (
{
ref = n;
},
{
closed = 1;
nodes = (
(27,170,o),
(62,197,o),
(88,197,cs),
(114,197,o),
(307,164,o),
(343,164,cs),
(385,164,o),
(407,192,o),
(433,215,c),
(414,239,l),
(398,225,o),
(375,212,o),
(349,212,cs),
(320,212,o),
(142,240,o),
(100,240,cs),
(58,240,o),
(30,215,o),
(2,186,c),
(20,166,l)
);
}
);
userData = {
com.hugojourdan.ColorFlow = {
"0" = 0;
"1" = 0;
"10" = 0;
"11" = 0;
"2" = 0;
"3" = 0;
"4" = 0;
"5" = 0;
"6" = 0;
"7" = 0;
"8" = 0;
"9" = 0;
};
};
width = 429;
},
{
layerId = "52319A01-0C76-4F01-98F2-7849B20FD9E6";
shapes = (
{
ref = n;
},
{
closed = 1;
nodes = (
(-1,106,o),
(37,144,o),
(63,144,cs),
(89,144,o),
(411,111,o),
(447,111,cs),
(489,111,o),
(580,190,o),
(595,234,c),
(535,299,l),
(512,274,o),
(483,246,o),
(457,246,cs),
(428,246,o),
(117,282,o),
(75,282,cs),
(33,282,o),
(-49,190,o),
(-56,177,c),
(-5,98,l)
);
}
);
userData = {
com.hugojourdan.ColorFlow = {
"0" = 0;
"1" = 0;
"10" = 0;
"11" = 0;
"2" = 0;
"3" = 0;
"4" = 0;
"5" = 0;
"6" = 0;
"7" = 0;
"8" = 0;
"9" = 0;
};
};
width = 531;
}
);
unicode = 7536;
},
{
color = 4;
glyphname = eng;
lastChange = "2023-10-23 16:22:14 +0000";
layers = (
{
layerId = m001;
shapes = (
{
closed = 1;
nodes = (
(231,-229,o),
(338,-155,o),
(345,43,cs),
(349,105,o),
(366,271,o),
(366,347,cs),
(366,421,o),
(342,459,o),
(288,459,cs),
(237,459,o),
(179,408,o),
(132,308,c),
(127,459,l),
(95,449,l),
(64,0,l),
(109,0,l),
(126,208,l),
(148,345,o),
(226,416,o),
(263,416,cs),
(305,416,o),
(318,389,o),
(318,316,cs),
(318,257,o),
(304,109,o),
(298,22,cs),
(284,-138,o),
(252,-186,o),
(181,-186,cs),
(178,-186,o),
(170,-185,o),
(163,-185,c),
(172,-230,l)
);
}
);
userData = {
com.hugojourdan.ColorFlow = {
"0" = 0;
"1" = 0;
"10" = 0;
"11" = 0;
"2" = 0;
"3" = 0;
"4" = 0;
"5" = 0;
"6" = 0;
"7" = 0;
"8" = 0;
"9" = 0;
};
};
width = 429;
},
{
layerId = "52319A01-0C76-4F01-98F2-7849B20FD9E6";
shapes = (
{
closed = 1;
nodes = (
(377,-233,o),
(440,-136,o),
(465,-37,cs),
(473,3,o),
(508,264,o),
(508,336,cs),
(508,432,o),
(459,470,o),
(380,470,cs),
(329,470,o),
(278,442,o),
(231,383,c),
(225,470,l),
(48,445,l),
(17,0,l),
(207,0,l),
(217,168,ls),
(230,322,o),
(271,322,o),
(289,322,cs),
(301,322,o),
(314,312,o),
(314,284,cs),
(314,231,o),
(285,-4,o),
(279,-29,cs),
(273,-58,o),
(237,-69,o),
(211,-69,cs),
(182,-69,o),
(163,-68,o),
(148,-65,c),
(165,-230,l)
);
}
);
userData = {
com.hugojourdan.ColorFlow = {
"0" = 0;
"1" = 0;
"10" = 0;
"11" = 0;
"2" = 0;
"3" = 0;
"4" = 0;
"5" = 0;
"6" = 0;
"7" = 0;
"8" = 0;
"9" = 0;
};
};
width = 531;
}
);
unicode = 331;
},
{
color = 4;
glyphname = o;
kernLeft = KO_o;
kernRight = KO_o;
lastChange = "2023-12-16 23:22:53 +0000";
layers = (
{
anchors = (
{
name = top;
pos = (243,500);
}
);
layerId = m001;
shapes = (
{
closed = 1;
nodes = (
(319,-9,o),
(379,147,o),
(379,274,cs),
(379,390,o),
(322,459,o),
(245,459,cs),
(105,459,o),
(45,303,o),
(45,176,cs),
(45,60,o),
(98,-9,o),
(179,-9,cs)
);
},
{
closed = 1;
nodes = (
(133,25,o),
(93,86,o),
(93,184,cs),
(93,265,o),
(117,425,o),
(222,425,cs),
(297,425,o),
(332,356,o),
(332,266,cs),
(332,181,o),
(307,25,o),
(203,25,cs)
);
}
);
userData = {
com.hugojourdan.ColorFlow = {
"0" = 0;
"1" = 0;
"10" = 0;
"11" = 0;
"2" = 0;
"3" = 0;
"4" = 0;
"5" = 0;
"6" = 0;
"7" = 0;
"8" = 0;
"9" = 0;
};
};
width = 425;
},
{
anchors = (
{
name = top;
pos = (269,500);
}
);
annotations = (
{
pos = (276,100);
type = Arrow;
}
);
layerId = "52319A01-0C76-4F01-98F2-7849B20FD9E6";
shapes = (
{
closed = 1;
nodes = (
(381,-20,o),
(467,117,o),
(467,255,cs),
(467,416,o),
(384,470,o),
(267,470,cs),
(98,470,o),
(9,333,o),
(9,195,cs),
(9,34,o),
(105,-20,o),
(209,-20,cs)
);
},
{
closed = 1;
nodes = (
(216,98,o),
(202,119,o),
(202,184,cs),
(202,250,o),
(201,352,o),
(233,352,cs),
(260,352,o),
(274,320,o),
(274,266,cs),
(274,196,o),
(275,98,o),
(243,98,cs)
);
}
);
userData = {
com.hugojourdan.ColorFlow = {
"0" = 0;
"1" = 0;
"10" = 0;
"11" = 0;
"2" = 0;
"3" = 0;
"4" = 0;
"5" = 0;
"6" = 0;
"7" = 0;
"8" = 0;
"9" = 0;
};
};
width = 476;
}
);
unicode = 111;
userData = {
KernOnName = o;
};
},
{
color = 3;
glyphname = obarred;
kernLeft = KO_o;
kernRight = KO_o;
lastChange = "2024-02-12 16:50:04 +0000";
layers = (
{
layerId = m001;
shapes = (
{
closed = 1;
nodes = (
(349,213,l),
(361,250,l),
(155,250,l),
(74,240,l),
(72,213,l)
);
},
{
ref = o;
}
);
userData = {
com.hugojourdan.ColorFlow = {
"0" = 0;
"1" = 0;
"10" = 0;
"11" = 0;
"2" = 0;
"3" = 0;
"4" = 0;
"5" = 0;
"6" = 0;
"7" = 0;
"8" = 0;
"9" = 0;
};
};
width = 425;
},
{
layerId = "52319A01-0C76-4F01-98F2-7849B20FD9E6";
shapes = (
{
closed = 1;
nodes = (
(309,197,l),
(311,264,l),
(225,264,l),
(144,252,l),
(140,197,l)
);
},
{
locked = 1;
ref = o;
}
);
userData = {
com.hugojourdan.ColorFlow = {
"0" = 0;
"1" = 0;
"10" = 0;
"11" = 0;
"2" = 0;
"3" = 0;
"4" = 0;
"5" = 0;
"6" = 0;
"7" = 0;
"8" = 0;
"9" = 0;
};
};
width = 476;
}
);
metricLeft = o;
metricRight = o;
unicode = 629;
},
{
color = 1;
glyphname = "omegaclosed-latin";
lastChange = "2024-04-13 17:09:25 +0000";
layers = (
{
layerId = "52319A01-0C76-4F01-98F2-7849B20FD9E6";
shapes = (
{
closed = 1;
nodes = (
(251,-18,o),
(296,20,o),
(321,67,c),
(331,18,o),
(377,-19,o),
(460,-19,cs),
(567,-19,o),
(644,87,o),
(653,211,cs),
(663,361,o),
(587,462,o),
(365,462,cs),
(159,462,o),
(18,350,o),
(8,197,cs),
(-2,65,o),
(72,-18,o),
(181,-18,cs)
);
},
{
closed = 1;
nodes = (
(203,158,o),
(191,176,o),
(198,209,cs),
(210,262,o),
(246,286,o),
(348,286,cs),
(461,286,o),
(486,255,o),
(483,207,cs),
(481,174,o),
(469,152,o),
(442,152,cs),
(415,152,o),
(417,212,o),
(423,248,c),
(269,242,l),
(266,184,o),
(245,158,o),
(222,158,cs)
);
}
);
userData = {
com.hugojourdan.ColorFlow = {
"0" = 0;
"1" = 0;
"10" = 0;
"11" = 0;
"2" = 0;
"3" = 0;
"4" = 0;
"5" = 0;
"6" = 0;
"7" = 0;
"8" = 0;
"9" = 0;
};
};
width = 664;
},
{
layerId = m001;
shapes = (
{
closed = 1;
nodes = (
(246,-7,o),
(303,40,o),
(328,110,c),
(339,40,o),
(389,-7,o),
(455,-7,cs),
(551,-7,o),
(617,85,o),
(619,196,cs),
(622,346,o),
(531,459,o),
(367,459,cs),
(167,459,o),
(60,337,o),
(45,198,cs),
(31,73,o),
(81,-7,o),
(171,-7,cs)
);
},
{
closed = 1;
nodes = (
(103,36,o),
(77,119,o),
(89,214,cs),
(103,330,o),
(178,417,o),
(335,417,cs),
(502,417,o),
(581,321,o),
(576,188,cs),
(571,66,o),
(518,37,o),
(459,37,cs),
(384,37,o),
(354,96,o),
(365,262,c),
(317,256,l),
(303,96,o),
(247,36,o),
(174,36,cs)
);
}
);
userData = {
com.hugojourdan.ColorFlow = {
"0" = 0;
"1" = 0;
"10" = 0;
"11" = 0;
"2" = 0;
"3" = 0;
"4" = 0;
"5" = 0;
"6" = 0;
"7" = 0;
"8" = 0;
"9" = 0;
};
};
width = 669;
}
);
metricLeft = o;
metricRight = o;
unicode = 631;
},
{
color = 4;
glyphname = oslash;
kernLeft = KO_o;
lastChange = "2023-10-23 16:22:14 +0000";
layers = (
{
anchors = (
{
name = top;
pos = (212,500);
}
);
layerId = m001;
shapes = (
{
closed = 1;
nodes = (
(141,-71,l),
(160,-8,l),
(166,-9,o),
(173,-9,o),
(179,-9,cs),
(319,-9,o),
(379,147,o),
(379,274,cs),
(379,360,o),
(347,421,o),
(299,446,c),
(323,523,l),
(287,523,l),
(267,457,l),
(260,458,o),
(252,459,o),
(245,459,cs),
(105,459,o),
(45,303,o),
(45,176,cs),
(45,87,o),
(76,26,o),
(127,2,c),
(104,-71,l)
);
},
{
closed = 1;
nodes = (
(192,25,o),
(181,27,o),
(172,30,c),
(286,402,l),
(317,374,o),
(332,325,o),
(332,266,cs),
(332,181,o),
(307,25,o),
(203,25,cs)
);
},
{
closed = 1;
nodes = (
(110,73,o),
(93,121,o),
(93,184,cs),
(93,265,o),
(117,425,o),
(222,425,cs),
(234,425,o),
(245,423,o),
(255,420,c),
(140,47,l)
);
}
);
userData = {
com.hugojourdan.ColorFlow = {
"0" = 0;
"1" = 0;
"10" = 0;
"11" = 0;
"2" = 0;
"3" = 0;
"4" = 0;
"5" = 0;
"6" = 0;
"7" = 0;
"8" = 0;
"9" = 0;
};
};
width = 425;
},
{
anchors = (
{
name = top;
pos = (238,500);
}
);
layerId = "52319A01-0C76-4F01-98F2-7849B20FD9E6";
shapes = (
{
closed = 1;
nodes = (
(98,-71,l),
(137,-10,l),
(159,-17,o),
(184,-20,o),
(209,-20,cs),
(381,-20,o),
(467,117,o),
(467,255,cs),
(467,336,o),
(446,390,o),
(410,424,c),
(473,523,l),
(381,523,l),
(342,461,l),
(319,467,o),
(294,470,o),
(267,470,cs),
(98,470,o),
(9,333,o),
(9,195,cs),
(9,115,o),
(32,62,o),
(69,28,c),
(6,-71,l)
);
},
{
closed = 1;
nodes = (
(229,98,o),
(218,100,o),
(210,106,c),
(288,230,l),
(286,202,o),
(283,173,o),
(277,149,cs),
(269,119,o),
(258,98,o),
(243,98,cs)
);
},
{
closed = 1;
nodes = (
(189,239,o),
(192,263,o),
(196,284,cs),
(204,322,o),
(216,352,o),
(233,352,cs),
(246,352,o),
(257,349,o),
(266,341,c),
(188,217,l)
);
}
);
userData = {
com.hugojourdan.ColorFlow = {
"0" = 0;
"1" = 0;
"10" = 0;
"11" = 0;
"2" = 0;
"3" = 0;
"4" = 0;
"5" = 0;
"6" = 0;
"7" = 0;
"8" = 0;
"9" = 0;
};
};
width = 476;
}
);
unicode = 248;
},
{
color = 4;
glyphname = p;
kernLeft = KO_r;
kernRight = KO_p;
lastChange = "2024-02-12 19:28:05 +0000";
layers = (
{
layerId = m001;
shapes = (
{
closed = 1;
nodes = (
(93,-215,l),
(111,12,l),
(157,-7,o),
(175,-10,o),
(213,-10,cs),
(305,-10,o),
(389,130,o),
(389,272,cs),
(389,432,o),
(331,459,o),
(289,459,cs),
(245,459,o),
(183,403,o),
(132,290,c),
(128,459,l),
(97,449,l),
(48,-225,l)
);
},
{
closed = 1;
nodes = (
(189,29,o),
(142,42,o),
(114,51,c),
(121,119,ls),
(142,320,o),
(235,414,o),
(274,414,cs),
(312,414,o),
(343,373,o),
(343,269,cs),
(343,101,o),
(281,29,o),
(225,29,cs)
);
}
);
userData = {
com.hugojourdan.ColorFlow = {
"0" = 0;
"1" = 0;
"10" = 0;
"11" = 0;
"2" = 0;
"3" = 0;
"4" = 0;
"5" = 0;
"6" = 0;
"7" = 0;
"8" = 0;
"9" = 0;
};
};
width = 433;
},
{
layerId = "52319A01-0C76-4F01-98F2-7849B20FD9E6";
shapes = (
{
closed = 1;
nodes = (
(196,-219,l),
(210,-16,l),
(216,-17,o),
(222,-17,o),
(227,-17,cs),
(334,-17,o),
(517,53,o),
(519,298,cs),
(520,381,o),
(492,470,o),
(377,470,cs),
(319,470,o),
(272,443,o),
(236,408,c),
(234,470,l),
(53,445,l),
(5,-244,l)
);
},
{
closed = 1;
nodes = (
(241,109,o),
(229,110,o),
(218,112,c),
(228,258,l),
(237,311,o),
(254,341,o),
(283,341,cs),
(303,341,o),
(315,330,o),
(315,269,cs),
(315,174,o),
(309,109,o),
(255,109,cs)
);
}
);
userData = {
com.hugojourdan.ColorFlow = {
"0" = 0;
"1" = 0;
"10" = 0;
"11" = 0;
"2" = 0;
"3" = 0;
"4" = 0;
"5" = 0;
"6" = 0;
"7" = 0;
"8" = 0;
"9" = 0;
};
};
width = 523;
}
);
unicode = 112;
userData = {
KernOnName = p;
};
},
{
color = 3;
glyphname = "phi-latin";
lastChange = "2024-02-12 16:50:04 +0000";
layers = (
{
layerId = m001;
shapes = (
{
closed = 1;
nodes = (
(407,-10,o),
(493,80,o),
(504,234,cs),
(514,370,o),
(436,446,o),
(323,458,cs),
(314,459,o),
(306,459,o),
(297,458,c),
(294,417,l),
(396,416,o),
(465,353,o),
(455,213,cs),
(447,106,o),
(395,33,o),
(287,33,cs),
(280,33,o),
(274,33,o),
(267,34,c),
(264,-11,l)
);
},
{
closed = 1;
nodes = (
(241,-11,o),
(242,-11,o),
(242,-11,c),
(245,34,l),
(144,42,o),
(86,106,o),
(95,237,cs),
(103,346,o),
(155,417,o),
(271,417,cs),
(271,417,o),
(272,417,o),
(272,417,c),
(275,458,l),
(133,447,o),
(56,361,o),
(46,216,cs),
(36,80,o),
(116,-11,o),
(241,-11,cs)
);
},
{
closed = 1;
nodes = (
(259,-214,l),
(316,599,l),
(279,591,l),
(222,-222,l)
);
}
);
userData = {
com.hugojourdan.ColorFlow = {
"0" = 0;
"1" = 0;
"10" = 0;
"11" = 0;
"2" = 0;
"3" = 0;
"4" = 0;
"5" = 0;
"6" = 0;
"7" = 0;
"8" = 0;
"9" = 0;
};
};
width = 551;
},
{
layerId = "52319A01-0C76-4F01-98F2-7849B20FD9E6";
shapes = (
{
closed = 1;
nodes = (
(526,-16,o),
(637,81,o),
(648,233,cs),
(660,406,o),
(571,470,o),
(422,473,cs),
(416,473,o),
(390,473,o),
(385,473,c),
(376,348,l),
(427,339,o),
(467,318,o),
(459,212,cs),
(453,125,o),
(427,109,o),
(396,109,cs),
(390,109,o),
(364,110,o),
(359,111,c),
(350,-20,l)
);
},
{
closed = 1;
nodes = (
(254,-20,o),
(257,-20,o),
(260,-20,c),
(269,111,l),
(223,118,o),
(192,147,o),
(198,236,cs),
(204,322,o),
(230,340,o),
(282,348,cs),
(283,348,o),
(284,348,o),
(286,348,c),
(295,473,l),
(127,462,o),
(19,365,o),
(9,215,cs),
(-3,43,o),
(92,-20,o),
(251,-20,cs)
);
},
{
closed = 1;
nodes = (
(368,-228,l),
(428,629,l),
(285,613,l),
(225,-244,l)
);
}
);
userData = {
com.hugojourdan.ColorFlow = {
"0" = 0;
"1" = 0;
"10" = 0;
"11" = 0;
"2" = 0;
"3" = 0;
"4" = 0;
"5" = 0;
"6" = 0;
"7" = 0;
"8" = 0;
"9" = 0;
};
};
width = 657;
}
);
metricLeft = o;
metricRight = o;
unicode = 632;
},
{
color = 3;
glyphname = phook;
lastChange = "2024-02-12 16:50:04 +0000";
layers = (
{
layerId = m001;
shapes = (
{
closed = 1;
nodes = (
(187,29,o),
(140,42,o),
(112,51,c),
(119,119,ls),
(140,320,o),
(233,414,o),
(272,414,cs),
(310,414,o),
(341,373,o),
(341,269,cs),
(341,101,o),
(279,29,o),
(223,29,cs)
);
},
{
closed = 1;
nodes = (
(147,610,o),
(177,658,o),
(247,658,cs),
(251,658,o),
(259,658,o),
(266,657,c),
(260,697,l),
(192,697,o),
(107,625,o),
(97,484,cs),
(46,-225,l),
(91,-215,l),
(109,12,l),
(155,-7,o),
(173,-10,o),
(211,-10,cs),
(303,-10,o),
(387,130,o),
(387,272,cs),
(387,432,o),
(329,459,o),
(287,459,cs),
(243,459,o),
(176,396,o),
(125,283,c),
(138,473,ls)
);
}
);
userData = {
com.hugojourdan.ColorFlow = {
"0" = 0;
"1" = 0;
"10" = 0;
"11" = 0;
"2" = 0;
"3" = 0;
"4" = 0;
"5" = 0;
"6" = 0;
"7" = 0;
"8" = 0;
"9" = 0;
};
};
width = 431;
},
{
layerId = "52319A01-0C76-4F01-98F2-7849B20FD9E6";
shapes = (
{
closed = 1;
nodes = (
(241,109,o),
(229,110,o),
(218,112,c),
(228,258,l),
(237,311,o),
(254,341,o),
(283,341,cs),
(303,341,o),
(315,330,o),
(315,269,cs),
(315,174,o),
(309,109,o),
(255,109,cs)
);
},
{
closed = 1;
nodes = (
(238,543,o),
(285,555,o),
(312,555,cs),
(340,555,o),
(362,554,o),
(376,551,c),
(356,717,l),
(184,717,o),
(59,617,o),
(50,465,cs),
(6,-244,l),
(196,-219,l),
(209,-16,l),
(215,-17,o),
(221,-17,o),
(226,-17,cs),
(333,-17,o),
(515,53,o),
(515,298,cs),
(515,381,o),
(486,470,o),
(371,470,cs),
(313,470,o),
(267,443,o),
(231,408,c),
(234,490,l)
);
}
);
userData = {
com.hugojourdan.ColorFlow = {
"0" = 0;
"1" = 0;
"10" = 0;
"11" = 0;
"2" = 0;
"3" = 0;
"4" = 0;
"5" = 0;
"6" = 0;
"7" = 0;
"8" = 0;
"9" = 0;
};
};
width = 523;
}
);
unicode = 421;
},
{
color = 4;
glyphname = thorn;
lastChange = "2023-10-23 16:22:14 +0000";
layers = (
{
layerId = m001;
shapes = (
{
closed = 1;
nodes = (
(89,-215,l),
(105,12,l),
(150,-7,o),
(168,-10,o),
(206,-10,cs),
(299,-10,o),
(382,130,o),
(382,272,cs),
(382,432,o),
(325,459,o),
(282,459,cs),
(238,459,o),
(178,403,o),
(126,291,c),
(154,679,l),
(109,669,l),
(44,-225,l)
);
},
{
closed = 1;
nodes = (
(183,29,o),
(137,42,o),
(108,51,c),
(118,158,l),
(135,306,o),
(220,414,o),
(267,414,cs),
(305,414,o),
(336,373,o),
(336,269,cs),
(336,101,o),
(275,29,o),
(218,29,cs)
);
}
);
userData = {
com.hugojourdan.ColorFlow = {
"0" = 0;
"1" = 0;
"10" = 0;
"11" = 0;
"2" = 0;
"3" = 0;
"4" = 0;
"5" = 0;
"6" = 0;
"7" = 0;
"8" = 0;
"9" = 0;
};
};
width = 427;
},
{
layerId = "52319A01-0C76-4F01-98F2-7849B20FD9E6";
shapes = (
{
closed = 1;
nodes = (
(198,-219,l),
(210,-16,l),
(216,-17,o),
(222,-17,o),
(228,-17,cs),
(335,-17,o),
(517,53,o),
(517,298,cs),
(517,381,o),
(489,470,o),
(374,470,cs),
(317,470,o),
(272,445,o),
(236,411,c),
(256,734,l),
(66,709,l),
(8,-244,l)
);
},
{
closed = 1;
nodes = (
(243,109,o),
(230,110,o),
(218,112,c),
(224,216,ls),
(232,295,o),
(249,341,o),
(286,341,cs),
(305,341,o),
(317,330,o),
(317,269,cs),
(317,174,o),
(311,109,o),
(258,109,cs)
);
}
);
userData = {
com.hugojourdan.ColorFlow = {
"0" = 0;
"1" = 0;
"10" = 0;
"11" = 0;
"2" = 0;
"3" = 0;
"4" = 0;
"5" = 0;
"6" = 0;
"7" = 0;
"8" = 0;
"9" = 0;
};
};
width = 525;
},
{
associatedMasterId = m001;
layerId = "80BF7767-EFD8-47AC-8D85-AA1DD2B6B085";
name = "24 de ago. de 23, 17:52";
shapes = (
{
closed = 1;
nodes = (
(89,-215,l),
(105,12,l),
(150,-7,o),
(168,-10,o),
(206,-10,cs),
(299,-10,o),
(382,130,o),
(382,272,cs),
(382,432,o),
(325,459,o),
(282,459,cs),
(238,459,o),
(178,403,o),
(126,291,c),
(154,679,l),
(109,669,l),
(44,-225,l)
);
},
{
closed = 1;
nodes = (
(183,29,o),
(137,42,o),
(108,51,c),
(115,139,l),
(114,119,ls),
(128,321,o),
(228,414,o),
(267,414,cs),
(305,414,o),
(336,373,o),
(336,269,cs),
(336,101,o),
(275,29,o),
(218,29,cs)
);
},
{
closed = 1;
nodes = (
(89,-215,l),
(105,12,l),
(150,-7,o),
(168,-10,o),
(206,-10,cs),
(299,-10,o),
(382,130,o),
(382,272,cs),
(382,432,o),
(325,459,o),
(282,459,cs),
(238,459,o),
(178,403,o),
(126,291,c),
(154,679,l),
(109,669,l),
(44,-225,l)
);
},
{
closed = 1;
nodes = (
(183,29,o),
(137,42,o),
(108,51,c),
(115,139,l),
(114,119,ls),
(128,321,o),
(228,414,o),
(267,414,cs),
(305,414,o),
(336,373,o),
(336,269,cs),
(336,101,o),
(275,29,o),
(218,29,cs)
);
}
);
visible = 1;
width = 427;
},
{
associatedMasterId = "52319A01-0C76-4F01-98F2-7849B20FD9E6";
layerId = "737686B2-C629-4603-B2C6-C1096AE2CB85";
name = "24 de ago. de 23, 17:52";
shapes = (
{
closed = 1;
nodes = (
(198,-219,l),
(210,-16,l),
(216,-17,o),
(222,-17,o),
(228,-17,cs),
(335,-17,o),
(517,53,o),
(517,298,cs),
(517,381,o),
(489,470,o),
(374,470,cs),
(317,470,o),
(272,445,o),
(236,411,c),
(256,734,l),
(66,709,l),
(8,-244,l)
);
},
{
closed = 1;
nodes = (
(243,109,o),
(230,110,o),
(218,112,c),
(224,216,ls),
(232,295,o),
(249,341,o),
(286,341,cs),
(305,341,o),
(317,330,o),
(317,269,cs),
(317,174,o),
(311,109,o),
(258,109,cs)
);
},
{
closed = 1;
nodes = (
(198,-219,l),
(210,-16,l),
(216,-17,o),
(222,-17,o),
(228,-17,cs),
(335,-17,o),
(517,53,o),
(517,298,cs),
(517,381,o),
(489,470,o),
(374,470,cs),
(317,470,o),
(272,445,o),
(236,411,c),
(256,734,l),
(66,709,l),
(8,-244,l)
);
},
{
closed = 1;
nodes = (
(243,109,o),
(230,110,o),
(218,112,c),
(224,216,ls),
(232,295,o),
(249,341,o),
(286,341,cs),
(305,341,o),
(317,330,o),
(317,269,cs),
(317,174,o),
(311,109,o),
(258,109,cs)
);
}
);
width = 525;
}
);
unicode = 254;
},
{
color = 4;
glyphname = q;
kernLeft = KO_a;
lastChange = "2023-10-23 16:22:14 +0000";
layers = (
{
layerId = m001;
shapes = (
{
closed = 1;
nodes = (
(321,-215,l),
(365,469,l),
(334,473,l),
(327,439,l),
(283,457,o),
(257,459,o),
(220,459,cs),
(128,459,o),
(44,319,o),
(44,177,cs),
(44,17,o),
(102,-10,o),
(144,-10,cs),
(190,-10,o),
(251,47,o),
(303,164,c),
(277,-225,l)
);
},
{
closed = 1;
nodes = (
(122,35,o),
(91,76,o),
(91,180,cs),
(91,348,o),
(150,418,o),
(207,418,cs),
(241,418,o),
(289,407,o),
(318,398,c),
(312,308,l),
(299,133,o),
(198,35,o),
(159,35,cs)
);
}
);
userData = {
com.hugojourdan.ColorFlow = {
"0" = 0;
"1" = 0;
"10" = 0;
"11" = 0;
"2" = 0;
"3" = 0;
"4" = 0;
"5" = 0;
"6" = 0;
"7" = 0;
"8" = 0;
"9" = 0;
};
};
width = 429;
},
{
layerId = "52319A01-0C76-4F01-98F2-7849B20FD9E6";
shapes = (
{
closed = 1;
nodes = (
(456,-219,l),
(504,443,l),
(473,477,l),
(374,459,l),
(349,465,o),
(321,470,o),
(297,470,cs),
(190,470,o),
(8,399,o),
(8,155,cs),
(8,72,o),
(36,-17,o),
(151,-17,cs),
(206,-17,o),
(251,7,o),
(286,39,c),
(266,-244,l)
);
},
{
closed = 1;
nodes = (
(220,112,o),
(208,123,o),
(208,184,cs),
(208,279,o),
(216,345,o),
(269,345,cs),
(283,345,o),
(296,344,o),
(307,342,c),
(298,212,l),
(289,148,o),
(271,112,o),
(239,112,cs)
);
}
);
userData = {
com.hugojourdan.ColorFlow = {
"0" = 0;
"1" = 0;
"10" = 0;
"11" = 0;
"2" = 0;
"3" = 0;
"4" = 0;
"5" = 0;
"6" = 0;
"7" = 0;
"8" = 0;
"9" = 0;
};
};
width = 517;
}
);
unicode = 113;
},
{
color = 3;
glyphname = qhook;
lastChange = "2024-02-12 16:50:04 +0000";
layers = (
{
layerId = m001;
shapes = (
{
closed = 1;
nodes = (
(321,-215,l),
(365,473,ls),
(374,610,o),
(404,658,o),
(474,658,cs),
(478,658,o),
(486,658,o),
(493,657,c),
(487,697,l),
(419,697,o),
(332,625,o),
(323,484,cs),
(320,439,l),
(276,457,o),
(257,459,o),
(220,459,cs),
(128,459,o),
(44,319,o),
(44,177,cs),
(44,17,o),
(102,-10,o),
(144,-10,cs),
(190,-10,o),
(251,47,o),
(303,164,c),
(277,-225,l)
);
},
{
closed = 1;
nodes = (
(122,35,o),
(91,76,o),
(91,180,cs),
(91,348,o),
(150,418,o),
(207,418,cs),
(241,418,o),
(289,407,o),
(318,398,c),
(312,308,l),
(299,133,o),
(198,35,o),
(159,35,cs)
);
}
);
userData = {
com.hugojourdan.ColorFlow = {
"0" = 0;
"1" = 0;
"10" = 0;
"11" = 0;
"2" = 0;
"3" = 0;
"4" = 0;
"5" = 0;
"6" = 0;
"7" = 0;
"8" = 0;
"9" = 0;
};
};
width = 429;
},
{
layerId = "52319A01-0C76-4F01-98F2-7849B20FD9E6";
shapes = (
{
closed = 1;
nodes = (
(456,-219,l),
(509,491,ls),
(513,544,o),
(552,555,o),
(579,555,cs),
(607,555,o),
(629,554,o),
(643,551,c),
(623,717,l),
(454,717,o),
(332,621,o),
(319,489,cs),
(317,469,l),
(310,470,o),
(303,470,o),
(297,470,cs),
(190,470,o),
(8,399,o),
(8,155,cs),
(8,72,o),
(36,-17,o),
(151,-17,cs),
(206,-17,o),
(251,7,o),
(286,39,c),
(266,-244,l)
);
},
{
closed = 1;
nodes = (
(220,112,o),
(208,123,o),
(208,184,cs),
(208,279,o),
(216,345,o),
(269,345,cs),
(283,345,o),
(296,344,o),
(307,342,c),
(298,212,l),
(289,148,o),
(271,112,o),
(239,112,cs)
);
}
);
userData = {
com.hugojourdan.ColorFlow = {
"0" = 0;
"1" = 0;
"10" = 0;
"11" = 0;
"2" = 0;
"3" = 0;
"4" = 0;
"5" = 0;
"6" = 0;
"7" = 0;
"8" = 0;
"9" = 0;
};
};
width = 517;
}
);
unicode = 672;
},
